<?xml version="1.0" encoding="UTF-8" standalone="no"?>
<!-- Created with Inkscape (http://www.inkscape.org/) -->

<svg
   xmlns:dc="http://purl.org/dc/elements/1.1/"
   xmlns:cc="http://creativecommons.org/ns#"
   xmlns:rdf="http://www.w3.org/1999/02/22-rdf-syntax-ns#"
   xmlns:svg="http://www.w3.org/2000/svg"
   xmlns="http://www.w3.org/2000/svg"
   xmlns:sodipodi="http://sodipodi.sourceforge.net/DTD/sodipodi-0.dtd"
   xmlns:inkscape="http://www.inkscape.org/namespaces/inkscape"
   width="399.94168mm"
   height="139.0625mm"
   viewBox="0 0 399.94168 139.0625"
   version="1.1"
   id="svg8"
   inkscape:version="0.92.5 (2060ec1f9f, 2020-04-08)"
   sodipodi:docname="hilbert.svg">
  <defs
     id="defs2" />
  <sodipodi:namedview
     id="base"
     pagecolor="#ffffff"
     bordercolor="#666666"
     borderopacity="1.0"
     inkscape:pageopacity="0.0"
     inkscape:pageshadow="2"
     inkscape:zoom="0.35"
     inkscape:cx="357.36672"
     inkscape:cy="-45.776192"
     inkscape:document-units="mm"
     inkscape:current-layer="layer1"
     showgrid="false"
     inkscape:window-width="1920"
     inkscape:window-height="1027"
     inkscape:window-x="-8"
     inkscape:window-y="-8"
     inkscape:window-maximized="1"
     fit-margin-top="10"
     fit-margin-left="10"
     fit-margin-right="10"
     fit-margin-bottom="10" />
  <metadata
     id="metadata5">
    <rdf:RDF>
      <cc:Work
         rdf:about="">
        <dc:format>image/svg+xml</dc:format>
        <dc:type
           rdf:resource="http://purl.org/dc/dcmitype/StillImage" />
        <dc:title></dc:title>
      </cc:Work>
    </rdf:RDF>
  </metadata>
  <g
     inkscape:label="Layer 1"
     inkscape:groupmode="layer"
     id="layer1"
     transform="translate(102.1128,2.3407782)">
    <path
       id="path10"
       d="M -91.319051,101.45402 V 33.720695 h 67.73334 v 67.733325"
       style="fill:none;stroke:#de1000;stroke-width:1.58749998"
       inkscape:connector-curvature="0" />
    <g
       id="g35"
       transform="matrix(0.26458333,0,0,-0.26458333,17.689284,134.92382)">
      <path
         id="path21"
         d="M 128,128 V 384 H 384 V 128"
         style="fill:none;stroke:#de1000;stroke-width:6"
         inkscape:connector-curvature="0" />
      <path
         id="path23"
         d="M 64,64 H 192 V 192 H 64 V 320 448 H 192 V 320 H 320 V 448 H 448 V 320 192 H 320 V 64 h 128"
         style="fill:none;stroke:#de6b00;stroke-width:4"
         inkscape:connector-curvature="0" />
    </g>
    <g
       id="g54"
       transform="matrix(0.26458333,0,0,-0.26458333,160.56429,134.92382)">
      <path
         id="path37"
         d="M 128,128 V 384 H 384 V 128"
         style="fill:none;stroke:#de1000;stroke-width:6"
         inkscape:connector-curvature="0" />
      <path
         id="path39"
         d="M 64,64 H 192 V 192 H 64 V 320 448 H 192 V 320 H 320 V 448 H 448 V 320 192 H 320 V 64 h 128"
         style="fill:none;stroke:#de6b00;stroke-width:4"
         inkscape:connector-curvature="0" />
      <path
         id="path41"
         d="M 32,32 V 96 H 96 V 32 h 64 64 v 64 h -64 v 64 h 64 v 64 H 160 96 V 160 H 32 v 64 64 h 64 v 64 H 32 v 64 64 h 64 v -64 h 64 v 64 h 64 v -64 -64 h -64 v -64 h 64 64 64 v 64 h -64 v 64 64 h 64 v -64 h 64 v 64 h 64 v -64 -64 h -64 v -64 h 64 v -64 -64 h -64 v 64 h -64 -64 v -64 h 64 V 96 H 288 V 32 h 64 64 v 64 h 64 V 32"
         style="fill:none;stroke:#000000;stroke-width:2"
         inkscape:connector-curvature="0" />
    </g>
  </g>
</svg>
