<?xml version="1.0" encoding="utf-8" standalone="no"?>
<!DOCTYPE svg PUBLIC "-//W3C//DTD SVG 1.1//EN"
  "http://www.w3.org/Graphics/SVG/1.1/DTD/svg11.dtd">
<!-- Created with matplotlib (https://matplotlib.org/) -->
<svg height="360pt" version="1.1" viewBox="0 0 360 360" width="360pt" xmlns="http://www.w3.org/2000/svg" xmlns:xlink="http://www.w3.org/1999/xlink">
 <defs>
  <style type="text/css">
*{stroke-linecap:butt;stroke-linejoin:round;}
  </style>
 </defs>
 <g id="figure_1">
  <g id="patch_1">
   <path d="M 0 360 
L 360 360 
L 360 0 
L 0 0 
z
" style="fill:#ffffff;"/>
  </g>
  <g id="axes_1">
   <g id="patch_2">
    <path d="M 58.825 313.95625 
L 341.7375 313.95625 
L 341.7375 31.04375 
L 58.825 31.04375 
z
" style="fill:#ffffff;"/>
   </g>
   <g id="matplotlib.axis_1">
    <g id="xtick_1">
     <g id="line2d_1">
      <defs>
       <path d="M 0 0 
L 0 3.5 
" id="m0f3977056a" style="stroke:#000000;stroke-width:0.8;"/>
      </defs>
      <g>
       <use style="stroke:#000000;stroke-width:0.8;" x="58.825" xlink:href="#m0f3977056a" y="313.95625"/>
      </g>
     </g>
     <g id="text_1">
      <!-- −1.00 -->
      <defs>
       <path d="M 10.59375 35.5 
L 73.1875 35.5 
L 73.1875 27.203125 
L 10.59375 27.203125 
z
" id="DejaVuSans-8722"/>
       <path d="M 12.40625 8.296875 
L 28.515625 8.296875 
L 28.515625 63.921875 
L 10.984375 60.40625 
L 10.984375 69.390625 
L 28.421875 72.90625 
L 38.28125 72.90625 
L 38.28125 8.296875 
L 54.390625 8.296875 
L 54.390625 0 
L 12.40625 0 
z
" id="DejaVuSans-49"/>
       <path d="M 10.6875 12.40625 
L 21 12.40625 
L 21 0 
L 10.6875 0 
z
" id="DejaVuSans-46"/>
       <path d="M 31.78125 66.40625 
Q 24.171875 66.40625 20.328125 58.90625 
Q 16.5 51.421875 16.5 36.375 
Q 16.5 21.390625 20.328125 13.890625 
Q 24.171875 6.390625 31.78125 6.390625 
Q 39.453125 6.390625 43.28125 13.890625 
Q 47.125 21.390625 47.125 36.375 
Q 47.125 51.421875 43.28125 58.90625 
Q 39.453125 66.40625 31.78125 66.40625 
z
M 31.78125 74.21875 
Q 44.046875 74.21875 50.515625 64.515625 
Q 56.984375 54.828125 56.984375 36.375 
Q 56.984375 17.96875 50.515625 8.265625 
Q 44.046875 -1.421875 31.78125 -1.421875 
Q 19.53125 -1.421875 13.0625 8.265625 
Q 6.59375 17.96875 6.59375 36.375 
Q 6.59375 54.828125 13.0625 64.515625 
Q 19.53125 74.21875 31.78125 74.21875 
z
" id="DejaVuSans-48"/>
      </defs>
      <g transform="translate(43.502344 328.554688)scale(0.1 -0.1)">
       <use xlink:href="#DejaVuSans-8722"/>
       <use x="83.789062" xlink:href="#DejaVuSans-49"/>
       <use x="147.412109" xlink:href="#DejaVuSans-46"/>
       <use x="179.199219" xlink:href="#DejaVuSans-48"/>
       <use x="242.822266" xlink:href="#DejaVuSans-48"/>
      </g>
     </g>
    </g>
    <g id="xtick_2">
     <g id="line2d_2">
      <g>
       <use style="stroke:#000000;stroke-width:0.8;" x="94.189062" xlink:href="#m0f3977056a" y="313.95625"/>
      </g>
     </g>
     <g id="text_2">
      <!-- −0.75 -->
      <defs>
       <path d="M 8.203125 72.90625 
L 55.078125 72.90625 
L 55.078125 68.703125 
L 28.609375 0 
L 18.3125 0 
L 43.21875 64.59375 
L 8.203125 64.59375 
z
" id="DejaVuSans-55"/>
       <path d="M 10.796875 72.90625 
L 49.515625 72.90625 
L 49.515625 64.59375 
L 19.828125 64.59375 
L 19.828125 46.734375 
Q 21.96875 47.46875 24.109375 47.828125 
Q 26.265625 48.1875 28.421875 48.1875 
Q 40.625 48.1875 47.75 41.5 
Q 54.890625 34.8125 54.890625 23.390625 
Q 54.890625 11.625 47.5625 5.09375 
Q 40.234375 -1.421875 26.90625 -1.421875 
Q 22.3125 -1.421875 17.546875 -0.640625 
Q 12.796875 0.140625 7.71875 1.703125 
L 7.71875 11.625 
Q 12.109375 9.234375 16.796875 8.0625 
Q 21.484375 6.890625 26.703125 6.890625 
Q 35.15625 6.890625 40.078125 11.328125 
Q 45.015625 15.765625 45.015625 23.390625 
Q 45.015625 31 40.078125 35.4375 
Q 35.15625 39.890625 26.703125 39.890625 
Q 22.75 39.890625 18.8125 39.015625 
Q 14.890625 38.140625 10.796875 36.28125 
z
" id="DejaVuSans-53"/>
      </defs>
      <g transform="translate(78.866406 328.554688)scale(0.1 -0.1)">
       <use xlink:href="#DejaVuSans-8722"/>
       <use x="83.789062" xlink:href="#DejaVuSans-48"/>
       <use x="147.412109" xlink:href="#DejaVuSans-46"/>
       <use x="179.199219" xlink:href="#DejaVuSans-55"/>
       <use x="242.822266" xlink:href="#DejaVuSans-53"/>
      </g>
     </g>
    </g>
    <g id="xtick_3">
     <g id="line2d_3">
      <g>
       <use style="stroke:#000000;stroke-width:0.8;" x="129.553125" xlink:href="#m0f3977056a" y="313.95625"/>
      </g>
     </g>
     <g id="text_3">
      <!-- −0.50 -->
      <g transform="translate(114.230469 328.554688)scale(0.1 -0.1)">
       <use xlink:href="#DejaVuSans-8722"/>
       <use x="83.789062" xlink:href="#DejaVuSans-48"/>
       <use x="147.412109" xlink:href="#DejaVuSans-46"/>
       <use x="179.199219" xlink:href="#DejaVuSans-53"/>
       <use x="242.822266" xlink:href="#DejaVuSans-48"/>
      </g>
     </g>
    </g>
    <g id="xtick_4">
     <g id="line2d_4">
      <g>
       <use style="stroke:#000000;stroke-width:0.8;" x="164.917188" xlink:href="#m0f3977056a" y="313.95625"/>
      </g>
     </g>
     <g id="text_4">
      <!-- −0.25 -->
      <defs>
       <path d="M 19.1875 8.296875 
L 53.609375 8.296875 
L 53.609375 0 
L 7.328125 0 
L 7.328125 8.296875 
Q 12.9375 14.109375 22.625 23.890625 
Q 32.328125 33.6875 34.8125 36.53125 
Q 39.546875 41.84375 41.421875 45.53125 
Q 43.3125 49.21875 43.3125 52.78125 
Q 43.3125 58.59375 39.234375 62.25 
Q 35.15625 65.921875 28.609375 65.921875 
Q 23.96875 65.921875 18.8125 64.3125 
Q 13.671875 62.703125 7.8125 59.421875 
L 7.8125 69.390625 
Q 13.765625 71.78125 18.9375 73 
Q 24.125 74.21875 28.421875 74.21875 
Q 39.75 74.21875 46.484375 68.546875 
Q 53.21875 62.890625 53.21875 53.421875 
Q 53.21875 48.921875 51.53125 44.890625 
Q 49.859375 40.875 45.40625 35.40625 
Q 44.1875 33.984375 37.640625 27.21875 
Q 31.109375 20.453125 19.1875 8.296875 
z
" id="DejaVuSans-50"/>
      </defs>
      <g transform="translate(149.594531 328.554688)scale(0.1 -0.1)">
       <use xlink:href="#DejaVuSans-8722"/>
       <use x="83.789062" xlink:href="#DejaVuSans-48"/>
       <use x="147.412109" xlink:href="#DejaVuSans-46"/>
       <use x="179.199219" xlink:href="#DejaVuSans-50"/>
       <use x="242.822266" xlink:href="#DejaVuSans-53"/>
      </g>
     </g>
    </g>
    <g id="xtick_5">
     <g id="line2d_5">
      <g>
       <use style="stroke:#000000;stroke-width:0.8;" x="200.28125" xlink:href="#m0f3977056a" y="313.95625"/>
      </g>
     </g>
     <g id="text_5">
      <!-- 0.00 -->
      <g transform="translate(189.148438 328.554688)scale(0.1 -0.1)">
       <use xlink:href="#DejaVuSans-48"/>
       <use x="63.623047" xlink:href="#DejaVuSans-46"/>
       <use x="95.410156" xlink:href="#DejaVuSans-48"/>
       <use x="159.033203" xlink:href="#DejaVuSans-48"/>
      </g>
     </g>
    </g>
    <g id="xtick_6">
     <g id="line2d_6">
      <g>
       <use style="stroke:#000000;stroke-width:0.8;" x="235.645312" xlink:href="#m0f3977056a" y="313.95625"/>
      </g>
     </g>
     <g id="text_6">
      <!-- 0.25 -->
      <g transform="translate(224.5125 328.554688)scale(0.1 -0.1)">
       <use xlink:href="#DejaVuSans-48"/>
       <use x="63.623047" xlink:href="#DejaVuSans-46"/>
       <use x="95.410156" xlink:href="#DejaVuSans-50"/>
       <use x="159.033203" xlink:href="#DejaVuSans-53"/>
      </g>
     </g>
    </g>
    <g id="xtick_7">
     <g id="line2d_7">
      <g>
       <use style="stroke:#000000;stroke-width:0.8;" x="271.009375" xlink:href="#m0f3977056a" y="313.95625"/>
      </g>
     </g>
     <g id="text_7">
      <!-- 0.50 -->
      <g transform="translate(259.876562 328.554688)scale(0.1 -0.1)">
       <use xlink:href="#DejaVuSans-48"/>
       <use x="63.623047" xlink:href="#DejaVuSans-46"/>
       <use x="95.410156" xlink:href="#DejaVuSans-53"/>
       <use x="159.033203" xlink:href="#DejaVuSans-48"/>
      </g>
     </g>
    </g>
    <g id="xtick_8">
     <g id="line2d_8">
      <g>
       <use style="stroke:#000000;stroke-width:0.8;" x="306.373438" xlink:href="#m0f3977056a" y="313.95625"/>
      </g>
     </g>
     <g id="text_8">
      <!-- 0.75 -->
      <g transform="translate(295.240625 328.554688)scale(0.1 -0.1)">
       <use xlink:href="#DejaVuSans-48"/>
       <use x="63.623047" xlink:href="#DejaVuSans-46"/>
       <use x="95.410156" xlink:href="#DejaVuSans-55"/>
       <use x="159.033203" xlink:href="#DejaVuSans-53"/>
      </g>
     </g>
    </g>
    <g id="xtick_9">
     <g id="line2d_9">
      <g>
       <use style="stroke:#000000;stroke-width:0.8;" x="341.7375" xlink:href="#m0f3977056a" y="313.95625"/>
      </g>
     </g>
     <g id="text_9">
      <!-- 1.00 -->
      <g transform="translate(330.604688 328.554688)scale(0.1 -0.1)">
       <use xlink:href="#DejaVuSans-49"/>
       <use x="63.623047" xlink:href="#DejaVuSans-46"/>
       <use x="95.410156" xlink:href="#DejaVuSans-48"/>
       <use x="159.033203" xlink:href="#DejaVuSans-48"/>
      </g>
     </g>
    </g>
    <g id="text_10">
     <!-- U -->
     <defs>
      <path d="M 8.6875 72.90625 
L 18.609375 72.90625 
L 18.609375 28.609375 
Q 18.609375 16.890625 22.84375 11.734375 
Q 27.09375 6.59375 36.625 6.59375 
Q 46.09375 6.59375 50.34375 11.734375 
Q 54.59375 16.890625 54.59375 28.609375 
L 54.59375 72.90625 
L 64.5 72.90625 
L 64.5 27.390625 
Q 64.5 13.140625 57.4375 5.859375 
Q 50.390625 -1.421875 36.625 -1.421875 
Q 22.796875 -1.421875 15.734375 5.859375 
Q 8.6875 13.140625 8.6875 27.390625 
z
" id="DejaVuSans-85"/>
     </defs>
     <g transform="translate(196.621875 342.232813)scale(0.1 -0.1)">
      <use xlink:href="#DejaVuSans-85"/>
     </g>
    </g>
   </g>
   <g id="matplotlib.axis_2">
    <g id="ytick_1">
     <g id="line2d_10">
      <defs>
       <path d="M 0 0 
L -3.5 0 
" id="m3cd3ee80d9" style="stroke:#000000;stroke-width:0.8;"/>
      </defs>
      <g>
       <use style="stroke:#000000;stroke-width:0.8;" x="58.825" xlink:href="#m3cd3ee80d9" y="313.95625"/>
      </g>
     </g>
     <g id="text_11">
      <!-- −1.00 -->
      <g transform="translate(21.179688 317.755469)scale(0.1 -0.1)">
       <use xlink:href="#DejaVuSans-8722"/>
       <use x="83.789062" xlink:href="#DejaVuSans-49"/>
       <use x="147.412109" xlink:href="#DejaVuSans-46"/>
       <use x="179.199219" xlink:href="#DejaVuSans-48"/>
       <use x="242.822266" xlink:href="#DejaVuSans-48"/>
      </g>
     </g>
    </g>
    <g id="ytick_2">
     <g id="line2d_11">
      <g>
       <use style="stroke:#000000;stroke-width:0.8;" x="58.825" xlink:href="#m3cd3ee80d9" y="278.592188"/>
      </g>
     </g>
     <g id="text_12">
      <!-- −0.75 -->
      <g transform="translate(21.179688 282.391406)scale(0.1 -0.1)">
       <use xlink:href="#DejaVuSans-8722"/>
       <use x="83.789062" xlink:href="#DejaVuSans-48"/>
       <use x="147.412109" xlink:href="#DejaVuSans-46"/>
       <use x="179.199219" xlink:href="#DejaVuSans-55"/>
       <use x="242.822266" xlink:href="#DejaVuSans-53"/>
      </g>
     </g>
    </g>
    <g id="ytick_3">
     <g id="line2d_12">
      <g>
       <use style="stroke:#000000;stroke-width:0.8;" x="58.825" xlink:href="#m3cd3ee80d9" y="243.228125"/>
      </g>
     </g>
     <g id="text_13">
      <!-- −0.50 -->
      <g transform="translate(21.179688 247.027344)scale(0.1 -0.1)">
       <use xlink:href="#DejaVuSans-8722"/>
       <use x="83.789062" xlink:href="#DejaVuSans-48"/>
       <use x="147.412109" xlink:href="#DejaVuSans-46"/>
       <use x="179.199219" xlink:href="#DejaVuSans-53"/>
       <use x="242.822266" xlink:href="#DejaVuSans-48"/>
      </g>
     </g>
    </g>
    <g id="ytick_4">
     <g id="line2d_13">
      <g>
       <use style="stroke:#000000;stroke-width:0.8;" x="58.825" xlink:href="#m3cd3ee80d9" y="207.864063"/>
      </g>
     </g>
     <g id="text_14">
      <!-- −0.25 -->
      <g transform="translate(21.179688 211.663281)scale(0.1 -0.1)">
       <use xlink:href="#DejaVuSans-8722"/>
       <use x="83.789062" xlink:href="#DejaVuSans-48"/>
       <use x="147.412109" xlink:href="#DejaVuSans-46"/>
       <use x="179.199219" xlink:href="#DejaVuSans-50"/>
       <use x="242.822266" xlink:href="#DejaVuSans-53"/>
      </g>
     </g>
    </g>
    <g id="ytick_5">
     <g id="line2d_14">
      <g>
       <use style="stroke:#000000;stroke-width:0.8;" x="58.825" xlink:href="#m3cd3ee80d9" y="172.5"/>
      </g>
     </g>
     <g id="text_15">
      <!-- 0.00 -->
      <g transform="translate(29.559375 176.299219)scale(0.1 -0.1)">
       <use xlink:href="#DejaVuSans-48"/>
       <use x="63.623047" xlink:href="#DejaVuSans-46"/>
       <use x="95.410156" xlink:href="#DejaVuSans-48"/>
       <use x="159.033203" xlink:href="#DejaVuSans-48"/>
      </g>
     </g>
    </g>
    <g id="ytick_6">
     <g id="line2d_15">
      <g>
       <use style="stroke:#000000;stroke-width:0.8;" x="58.825" xlink:href="#m3cd3ee80d9" y="137.135938"/>
      </g>
     </g>
     <g id="text_16">
      <!-- 0.25 -->
      <g transform="translate(29.559375 140.935156)scale(0.1 -0.1)">
       <use xlink:href="#DejaVuSans-48"/>
       <use x="63.623047" xlink:href="#DejaVuSans-46"/>
       <use x="95.410156" xlink:href="#DejaVuSans-50"/>
       <use x="159.033203" xlink:href="#DejaVuSans-53"/>
      </g>
     </g>
    </g>
    <g id="ytick_7">
     <g id="line2d_16">
      <g>
       <use style="stroke:#000000;stroke-width:0.8;" x="58.825" xlink:href="#m3cd3ee80d9" y="101.771875"/>
      </g>
     </g>
     <g id="text_17">
      <!-- 0.50 -->
      <g transform="translate(29.559375 105.571094)scale(0.1 -0.1)">
       <use xlink:href="#DejaVuSans-48"/>
       <use x="63.623047" xlink:href="#DejaVuSans-46"/>
       <use x="95.410156" xlink:href="#DejaVuSans-53"/>
       <use x="159.033203" xlink:href="#DejaVuSans-48"/>
      </g>
     </g>
    </g>
    <g id="ytick_8">
     <g id="line2d_17">
      <g>
       <use style="stroke:#000000;stroke-width:0.8;" x="58.825" xlink:href="#m3cd3ee80d9" y="66.407813"/>
      </g>
     </g>
     <g id="text_18">
      <!-- 0.75 -->
      <g transform="translate(29.559375 70.207031)scale(0.1 -0.1)">
       <use xlink:href="#DejaVuSans-48"/>
       <use x="63.623047" xlink:href="#DejaVuSans-46"/>
       <use x="95.410156" xlink:href="#DejaVuSans-55"/>
       <use x="159.033203" xlink:href="#DejaVuSans-53"/>
      </g>
     </g>
    </g>
    <g id="ytick_9">
     <g id="line2d_18">
      <g>
       <use style="stroke:#000000;stroke-width:0.8;" x="58.825" xlink:href="#m3cd3ee80d9" y="31.04375"/>
      </g>
     </g>
     <g id="text_19">
      <!-- 1.00 -->
      <g transform="translate(29.559375 34.842969)scale(0.1 -0.1)">
       <use xlink:href="#DejaVuSans-49"/>
       <use x="63.623047" xlink:href="#DejaVuSans-46"/>
       <use x="95.410156" xlink:href="#DejaVuSans-48"/>
       <use x="159.033203" xlink:href="#DejaVuSans-48"/>
      </g>
     </g>
    </g>
    <g id="text_20">
     <!-- V -->
     <defs>
      <path d="M 28.609375 0 
L 0.78125 72.90625 
L 11.078125 72.90625 
L 34.1875 11.53125 
L 57.328125 72.90625 
L 67.578125 72.90625 
L 39.796875 0 
z
" id="DejaVuSans-86"/>
     </defs>
     <g transform="translate(15.1 175.920313)rotate(-90)scale(0.1 -0.1)">
      <use xlink:href="#DejaVuSans-86"/>
     </g>
    </g>
   </g>
   <g id="line2d_19">
    <path clip-path="url(#p26954cea68)" d="M 286.247055 240.733237 
L 279.873436 238.717791 
L 278.828575 237.932151 
L 278.774328 237.195005 
L 275.539412 235.79144 
L 274.451203 234.017067 
L 274.546211 232.331514 
L 273.232125 231.93985 
L 272.911935 230.693514 
L 269.788452 228.431402 
L 267.022876 222.698582 
L 271.673615 224.110798 
L 272.596893 223.985649 
L 275.864534 221.108964 
L 278.470619 220.955743 
L 277.920686 220.396095 
L 278.411453 218.800477 
L 281.06332 218.11862 
L 283.260176 218.421996 
L 283.398611 219.531266 
L 286.072503 220.012682 
L 288.466551 221.651472 
L 291.961761 223.1123 
L 292.119677 228.471568 
L 291.093527 230.186761 
L 291.61771 230.821673 
L 291.365459 231.711168 
L 292.118649 233.834374 
L 290.372384 235.737373 
L 290.155302 237.831678 
L 286.247055 240.733237 
" style="fill:none;stroke:#000000;stroke-linecap:square;stroke-width:0.5;"/>
   </g>
   <g id="line2d_20">
    <path clip-path="url(#p26954cea68)" d="M 283.260176 218.421996 
L 280.271975 218.168676 
L 278.411453 218.800477 
L 278.152694 220.098241 
L 277.920686 220.396095 
L 276.415874 220.215863 
L 275.627908 220.94251 
L 274.842335 220.835801 
L 272.421508 223.966381 
L 271.673615 224.110798 
L 268.856721 223.43232 
L 265.442322 221.658653 
L 261.438166 221.507016 
L 257.866493 218.022061 
L 257.548866 217.018385 
L 257.372715 207.720019 
L 263.152171 208.205294 
L 263.162565 202.231263 
L 264.346638 203.050336 
L 264.382961 203.862708 
L 267.113394 203.513004 
L 267.296631 204.69615 
L 269.35348 205.645153 
L 271.810404 206.09241 
L 272.852535 205.074937 
L 274.150535 207.081809 
L 276.807494 208.208256 
L 278.737753 210.943 
L 280.490084 210.787307 
L 281.212703 211.43983 
L 281.278 207.610149 
L 280.340083 207.726231 
L 280.266247 208.283651 
L 278.899564 207.930334 
L 276.713397 205.406999 
L 277.551516 202.519935 
L 277.419151 199.979667 
L 276.76854 198.617148 
L 278.271177 197.465461 
L 278.363318 196.605689 
L 284.442792 196.200554 
L 285.389006 197.459917 
L 286.793392 197.736577 
L 287.556508 198.554421 
L 292.832476 201.170947 
L 294.483658 204.161918 
L 293.064026 205.056688 
L 293.482871 205.912832 
L 292.963025 206.653802 
L 293.032305 208.802095 
L 293.952793 209.639832 
L 292.219786 210.305032 
L 292.030251 212.123641 
L 290.99142 213.123994 
L 292.11625 214.619012 
L 292.853825 214.692047 
L 282.716011 216.339952 
L 283.260176 218.421996 
" style="fill:none;stroke:#000000;stroke-linecap:square;stroke-width:0.5;"/>
   </g>
   <g id="line2d_21">
    <path clip-path="url(#p26954cea68)" d="M 336.911922 128.512144 
L 334.460037 128.565505 
L 333.265953 126.722267 
L 333.500963 125.15855 
L 332.603027 124.166207 
L 331.898196 120.949557 
L 330.620606 120.121571 
L 331.266695 119.664263 
L 331.268039 115.86243 
L 332.955174 114.354676 
L 333.075321 111.84856 
L 333.797897 111.221386 
L 336.488466 111.243777 
" style="fill:none;stroke:#000000;stroke-linecap:square;stroke-width:0.5;"/>
   </g>
   <g id="line2d_22"/>
   <g id="line2d_23"/>
   <g id="line2d_24"/>
   <g id="line2d_25"/>
   <g id="line2d_26"/>
   <g id="line2d_27"/>
   <g id="line2d_28"/>
   <g id="line2d_29"/>
   <g id="line2d_30"/>
   <g id="line2d_31">
    <path clip-path="url(#p26954cea68)" d="M 287.923259 175.410587 
L 283.31398 175.543732 
L 281.919875 176.625533 
L 280.564339 176.440701 
L 280.78118 173.938679 
L 281.517005 173.361903 
L 281.579858 172.991098 
L 280.911958 172.841658 
L 281.763103 170.165688 
L 283.531646 168.950595 
L 283.917417 169.513205 
L 286.625852 167.015295 
L 286.880211 165.546319 
L 286.162386 166.259368 
L 284.367401 165.443528 
L 284.735228 162.450274 
L 285.78947 161.563039 
L 287.126015 161.831262 
L 287.981165 161.437599 
L 289.140276 162.225036 
L 292.134415 161.060404 
L 293.871311 161.367802 
L 295.608775 159.91295 
L 296.288692 161.105927 
L 297.275125 161.5571 
L 297.311993 163.019295 
L 298.983646 165.030287 
L 299.243414 167.317071 
L 298.590899 168.757651 
L 297.435069 169.378351 
L 295.601528 171.864553 
L 293.849474 171.854351 
L 293.104031 171.134083 
L 291.996687 172.182772 
L 290.993121 172.156156 
L 290.910123 171.75866 
L 290.51309 172.295813 
L 288.502045 172.883884 
L 287.923259 175.410587 
" style="fill:none;stroke:#000000;stroke-linecap:square;stroke-width:0.5;"/>
   </g>
   <g id="line2d_32"/>
   <g id="line2d_33">
    <path clip-path="url(#p26954cea68)" d="M 321.977152 31.386866 
L 316.295559 36.227765 
L 311.563162 37.357987 
L 308.574906 39.98515 
L 305.560552 40.573291 
L 305.096714 42.426853 
L 305.476654 43.319194 
L 304.478039 44.050015 
L 303.536364 46.044087 
L 302.650943 46.024943 
L 302.34377 44.320497 
L 303.767891 42.053303 
L 303.239899 41.087104 
L 300.783576 43.746203 
L 298.2434 43.70005 
L 294.602032 48.147375 
L 291.425498 50.078495 
L 286.465761 48.578276 
L 284.085077 49.206182 
L 283.426182 52.102462 
L 280.930686 53.514037 
L 279.415065 53.329054 
L 278.593737 51.914836 
L 273.774135 53.627926 
L 276.264201 51.372821 
L 273.176583 52.686028 
L 273.292876 51.990325 
L 274.028759 51.571614 
L 272.568309 49.908283 
L 273.0561 49.437106 
L 273.081105 48.300504 
L 270.164786 47.997164 
L 270.627905 46.197943 
L 271.346598 47.318614 
L 272.805944 46.271456 
L 272.067324 46.403446 
L 271.623404 45.531203 
L 272.399332 44.441287 
L 271.782251 44.327795 
L 271.370152 42.956846 
L 272.043676 41.514233 
L 269.620018 42.787519 
L 269.829163 40.280343 
L 271.544186 37.696004 
L 274.635733 36.835123 
L 275.099164 35.764319 
L 275.376465 36.34378 
L 278.71474 34.893495 
L 278.008554 34.481664 
L 281.441357 32.035745 
L 279.059637 32.059045 
" style="fill:none;stroke:#000000;stroke-linecap:square;stroke-width:0.5;"/>
   </g>
   <g id="line2d_34">
    <path clip-path="url(#p26954cea68)" d="M 278.550588 31.925076 
L 273.916874 34.002221 
L 269.89474 39.855692 
L 270.051443 38.668354 
L 271.711433 36.548682 
L 269.596695 37.429689 
L 269.393196 36.955055 
L 270.288707 35.518743 
L 270.287506 34.140309 
L 271.194178 32.9879 
L 270.277001 31.52137 
" style="fill:none;stroke:#000000;stroke-linecap:square;stroke-width:0.5;"/>
   </g>
   <g id="line2d_35">
    <path clip-path="url(#p26954cea68)" d="M 229.07265 78.100713 
L 229.073655 80.84009 
L 225.923456 83.763155 
L 225.516507 84.571859 
L 225.775065 86.873731 
L 224.956647 88.297666 
L 224.000498 88.922581 
L 222.797197 82.743847 
L 221.001704 81.267735 
L 220.444943 79.512393 
L 219.4857 78.840488 
L 218.904809 76.868978 
L 218.93915 75.968155 
L 220.780353 73.402073 
L 221.155157 71.618588 
L 220.784045 69.405627 
L 221.04037 67.215741 
L 220.684604 66.671506 
L 221.615312 64.945194 
L 224.430289 63.020263 
L 224.812827 63.095181 
L 224.791965 63.784027 
L 224.907211 63.299923 
L 225.724037 63.382746 
L 226.274733 65.172039 
L 227.915701 63.603804 
L 228.102223 64.358978 
L 226.438769 67.310296 
L 226.730611 68.376939 
L 227.788569 69.201494 
L 228.085445 70.652385 
L 225.348618 75.394474 
L 226.001657 76.511094 
L 227.043398 76.526783 
L 227.067873 77.1562 
L 227.669984 76.67582 
L 228.297107 77.958605 
L 229.07265 78.100713 
" style="fill:none;stroke:#000000;stroke-linecap:square;stroke-width:0.5;"/>
   </g>
   <g id="line2d_36">
    <path clip-path="url(#p26954cea68)" d="M 202.504628 145.01756 
L 202.16605 146.569636 
L 203.56564 147.558433 
L 203.703145 149.172462 
L 204.232963 149.960059 
L 204.061895 155.144128 
L 204.67215 156.888991 
L 203.212738 157.405905 
L 202.100701 156.500336 
L 201.578894 155.504113 
L 201.848473 154.243241 
L 201.51572 153.758471 
L 201.980131 151.851565 
L 201.201064 150.703892 
L 201.579135 149.084924 
L 200.857485 148.92071 
L 201.221559 146.813271 
L 200.058593 145.731825 
L 200.111876 144.707304 
L 202.504628 145.01756 
" style="fill:none;stroke:#000000;stroke-linecap:square;stroke-width:0.5;"/>
   </g>
   <g id="line2d_37"/>
   <g id="line2d_38">
    <path clip-path="url(#p26954cea68)" d="M 291.863187 200.419815 
L 288.475926 199.063431 
L 286.459149 197.571438 
L 285.170456 197.305437 
L 282.652719 192.70869 
L 280.446439 190.490214 
L 280.662547 188.804516 
L 279.738899 186.405947 
L 279.998233 185.134441 
L 281.777553 184.796036 
L 284.644337 181.710004 
L 284.540103 181.085293 
L 283.352885 180.592088 
L 283.717429 179.458705 
L 284.702201 179.227143 
L 284.862498 178.668375 
L 284.648259 176.994425 
L 283.671613 175.545417 
L 288.155492 175.454749 
L 287.524555 178.106037 
L 288.052609 180.635977 
L 288.684659 180.531759 
L 288.625328 179.917778 
L 289.190047 179.86777 
L 289.499792 179.167446 
L 291.481123 179.89271 
L 291.30442 181.271027 
L 292.013126 180.889173 
L 291.950805 179.625285 
L 293.687009 179.96621 
L 294.957706 178.810972 
L 292.96268 178.617158 
L 293.994418 178.414717 
L 293.193046 178.178984 
L 294.238495 177.721408 
L 294.569296 176.916241 
L 295.410817 177.00487 
L 295.033481 176.677862 
L 295.895539 175.60622 
L 309.389785 182.004444 
L 309.249495 183.41208 
L 315.739709 187.487511 
L 314.03405 191.803161 
L 314.316205 192.659863 
L 317.080041 195.102213 
L 316.014348 196.619817 
L 316.644409 198.280051 
L 316.078357 199.637735 
L 317.475923 202.227626 
L 317.825609 204.931665 
L 320.940854 206.839787 
L 316.150856 208.449326 
L 312.767569 208.984997 
L 310.482112 208.313639 
L 309.708919 209.147996 
L 308.326552 209.395685 
L 306.794553 208.741632 
L 304.212727 208.871293 
L 302.721127 207.88981 
L 301.42093 208.202714 
L 299.180942 207.861178 
L 297.894206 206.158067 
L 297.755821 203.53684 
L 296.851785 201.873935 
L 295.678911 201.037651 
L 295.296014 201.536302 
L 291.863187 200.419815 
" style="fill:none;stroke:#000000;stroke-linecap:square;stroke-width:0.5;"/>
   </g>
   <g id="line2d_39"/>
   <g id="line2d_40"/>
   <g id="line2d_41">
    <path clip-path="url(#p26954cea68)" d="M 302.650943 46.024943 
L 303.63581 45.990381 
L 304.478039 44.050015 
L 305.476654 43.319194 
L 305.096714 42.426853 
L 305.560552 40.573291 
L 308.574906 39.98515 
L 311.563162 37.357987 
L 316.295559 36.227765 
L 321.977152 31.386866 
L 326.706984 31.616711 
L 324.536089 33.772886 
L 324.790458 37.383697 
L 324.09384 41.995862 
L 323.191005 44.048725 
L 306.174756 60.719528 
L 304.465394 61.065014 
L 302.255076 60.399651 
L 302.936296 55.793512 
L 304.438621 54.726883 
L 304.106958 54.476722 
L 305.278335 52.682605 
L 304.304826 51.824199 
L 304.510399 51.024318 
L 302.965744 51.784137 
L 302.687684 48.299255 
L 302.169364 47.822491 
L 302.650943 46.024943 
" style="fill:none;stroke:#000000;stroke-linecap:square;stroke-width:0.5;"/>
   </g>
   <g id="line2d_42"/>
   <g id="line2d_43"/>
   <g id="line2d_44"/>
   <g id="line2d_45">
    <path clip-path="url(#p26954cea68)" d="M 295.608775 159.91295 
L 293.871311 161.367802 
L 292.134415 161.060404 
L 289.140276 162.225036 
L 287.981165 161.437599 
L 287.126015 161.831262 
L 285.78947 161.563039 
L 284.735228 162.450274 
L 280.483075 159.313724 
L 279.41918 160.051035 
L 277.81311 159.790484 
L 276.104284 160.290688 
L 273.890523 158.639785 
L 272.805031 156.56897 
L 270.852691 155.691651 
L 270.383281 154.134784 
L 267.08361 152.106098 
L 266.846687 151.062694 
L 265.80303 150.208738 
L 264.125655 149.88304 
L 263.736878 148.786274 
L 264.841815 148.186897 
L 266.444852 144.137478 
L 268.657924 143.605799 
L 271.298594 146.057667 
L 275.117986 145.427896 
L 275.649884 146.170628 
L 278.190713 145.979157 
L 278.62587 145.16691 
L 280.225842 144.525846 
L 280.657444 143.621581 
L 281.96102 142.881832 
L 284.45683 144.270978 
L 285.796712 144.034734 
L 290.12417 139.656023 
L 289.839193 137.797539 
L 288.9212 136.996594 
L 291.222618 136.725301 
L 291.170833 136.07607 
L 292.845216 135.896673 
L 292.601272 140.442538 
L 295.361105 141.889848 
L 295.233748 143.971077 
L 295.975588 144.038397 
L 296.060661 146.431142 
L 295.527108 147.185489 
L 293.133697 147.401057 
L 292.140242 149.097236 
L 295.344655 150.033443 
L 298.269087 152.40612 
L 300.320625 155.84086 
L 295.608775 159.91295 
" style="fill:none;stroke:#000000;stroke-linecap:square;stroke-width:0.5;"/>
   </g>
   <g id="line2d_46">
    <path clip-path="url(#p26954cea68)" d="M 295.975588 144.038397 
L 295.233748 143.971077 
L 295.361105 141.889848 
L 292.601272 140.442538 
L 292.845216 135.896673 
L 291.170833 136.07607 
L 291.222618 136.725301 
L 288.9212 136.996594 
L 289.839193 137.797539 
L 290.12417 139.656023 
L 285.796712 144.034734 
L 284.45683 144.270978 
L 281.96102 142.881832 
L 280.657444 143.621581 
L 280.225842 144.525846 
L 278.62587 145.16691 
L 278.190713 145.979157 
L 275.649884 146.170628 
L 275.117986 145.427896 
L 271.298594 146.057667 
L 268.657924 143.605799 
L 266.444852 144.137478 
L 264.841815 148.186897 
L 263.698073 148.873602 
L 261.897722 148.57049 
L 261.695028 147.758436 
L 262.218109 145.763184 
L 259.918538 142.883226 
L 260.100637 141.685661 
L 259.138064 141.106098 
L 258.44771 138.142517 
L 256.932161 137.906954 
L 258.089494 136.293314 
L 257.739214 134.998662 
L 258.985953 133.854553 
L 258.532007 132.79271 
L 260.128776 130.878063 
L 260.133325 129.8081 
L 260.632557 129.263508 
L 263.17527 128.922639 
L 263.203282 116.162741 
L 266.181752 115.693128 
L 266.1841 109.462975 
L 285.981179 105.694711 
L 286.627507 104.859693 
L 286.743376 105.53138 
L 306.379182 101.070308 
L 306.5937 102.487667 
L 307.880571 103.889755 
L 307.42342 104.447159 
L 307.625789 107.444176 
L 308.711872 111.754632 
L 313.242586 113.663598 
L 311.81044 115.410512 
L 309.010734 116.847455 
L 308.475896 117.842667 
L 306.910961 118.142701 
L 306.542776 120.777162 
L 304.673797 124.958342 
L 305.046304 127.772421 
L 303.528233 132.849991 
L 301.816413 133.502887 
L 299.743759 136.322182 
L 299.077957 139.383629 
L 298.490817 139.817483 
L 297.762933 139.479683 
L 296.935227 140.256086 
L 295.975588 144.038397 
" style="fill:none;stroke:#000000;stroke-linecap:square;stroke-width:0.5;"/>
   </g>
   <g id="line2d_47"/>
   <g id="line2d_48">
    <path clip-path="url(#p26954cea68)" d="M 195.85053 38.631597 
L 196.797717 39.437038 
L 196.753086 40.379024 
L 200.179626 42.017661 
L 201.840756 42.007534 
L 202.001834 41.293316 
L 203.613404 41.974356 
L 203.858991 43.121674 
L 208.21818 42.9882 
L 208.30888 45.176751 
L 205.425242 48.20064 
L 202.831655 49.244674 
L 202.045721 50.290247 
L 202.481477 50.717609 
L 201.752985 51.188646 
L 199.473914 55.808137 
L 199.775297 57.694137 
L 200.778885 58.931387 
L 198.995421 60.710659 
L 198.269847 62.883096 
L 198.499658 63.433182 
L 196.228796 64.355173 
L 195.065796 66.695208 
L 189.47912 66.684989 
L 187.478704 67.692178 
L 186.347808 69.130345 
L 185.312063 68.435721 
L 184.45406 66.647053 
L 184.872223 65.61064 
L 184.42391 65.891718 
L 183.253914 64.044202 
L 181.893845 64.306207 
L 181.798954 62.128448 
L 183.018935 60.407878 
L 182.052328 59.223138 
L 182.917746 56.858594 
L 181.568524 54.199213 
L 182.974277 53.771052 
L 183.172948 52.846628 
L 182.830859 52.190766 
L 183.388182 51.499538 
L 183.091848 48.589522 
L 184.882958 46.468898 
L 184.058829 45.763495 
L 183.868512 44.536827 
L 180.01681 44.678617 
L 179.730573 43.173075 
L 178.250319 43.927083 
L 178.16215 43.107381 
L 178.658349 42.407499 
L 178.342669 42.313237 
L 178.353533 40.684681 
L 177.79299 40.819207 
L 178.060994 39.910422 
L 177.281131 38.965583 
L 177.425881 38.063232 
L 181.160279 35.784091 
L 182.759749 36.98185 
L 185.796203 36.875189 
L 189.091148 38.239798 
L 191.370079 37.90531 
L 192.754934 38.675295 
L 195.85053 38.631597 
" style="fill:none;stroke:#000000;stroke-linecap:square;stroke-width:0.5;"/>
   </g>
   <g id="line2d_49"/>
   <g id="line2d_50">
    <path clip-path="url(#p26954cea68)" d="M 279.873436 238.717791 
L 286.247055 240.733237 
L 287.120703 244.611375 
L 288.558314 248.054706 
L 288.495347 253.656386 
L 286.677817 252.437831 
L 285.974917 252.606272 
L 284.61721 254.300554 
L 284.628648 255.640099 
L 286.200181 257.698252 
L 287.791695 258.389477 
L 288.530177 258.575585 
L 288.654823 256.816868 
L 291.744845 257.77237 
L 289.966236 263.433592 
L 286.406925 265.734565 
L 282.904095 270.815659 
L 275.054121 276.6211 
L 271.159487 278.049293 
L 268.681721 277.43693 
L 267.977484 278.417562 
L 266.252189 277.675124 
L 265.031563 278.125104 
L 262.369876 276.671471 
L 259.030048 275.854133 
L 256.828113 276.702493 
L 253.253681 276.170218 
L 251.824734 277.082421 
L 249.813652 275.951783 
L 249.260278 274.807424 
L 248.523264 274.697178 
L 248.305092 273.575804 
L 247.612922 273.527436 
L 247.506512 274.409246 
L 247.154925 273.29648 
L 247.428009 272.006541 
L 245.837017 268.373956 
L 247.132717 267.450083 
L 246.819356 264.624349 
L 244.467483 259.602469 
L 243.393819 255.837854 
L 242.041707 252.973805 
L 242.870263 252.550326 
L 243.192324 251.52202 
L 243.680666 251.276817 
L 244.498975 252.198858 
L 244.740992 253.673914 
L 249.668353 255.216135 
L 250.484267 254.251277 
L 251.712513 254.057805 
L 251.712513 241.974045 
L 252.974551 243.362286 
L 253.996127 246.023898 
L 253.526567 247.67346 
L 253.690961 248.952747 
L 256.558448 249.538432 
L 259.157015 247.669989 
L 260.493533 245.212044 
L 261.463351 245.324134 
L 262.947572 246.630247 
L 265.48792 247.85657 
L 267.581735 247.939233 
L 269.005664 244.992639 
L 270.492028 244.847694 
L 271.844618 243.881191 
L 272.623049 241.840579 
L 274.731152 241.002008 
L 276.161712 239.627437 
L 279.873436 238.717791 
" style="fill:none;stroke:#000000;stroke-linecap:square;stroke-width:0.5;"/>
   </g>
   <g id="line2d_51">
    <path clip-path="url(#p26954cea68)" d="M 325.575231 178.09293 
L 323.155044 175.346348 
L 323.155044 163.196937 
L 327.756903 158.723755 
L 331.232664 158.033059 
L 334.910541 155.913016 
L 341.444143 155.325291 
L 338.480396 167.698056 
L 334.366629 170.385272 
L 327.559125 175.731948 
L 325.575231 178.09293 
" style="fill:none;stroke:#000000;stroke-linecap:square;stroke-width:0.5;"/>
   </g>
   <g id="line2d_52">
    <path clip-path="url(#p26954cea68)" d="M 336.993035 141.391269 
L 334.023289 139.992141 
L 330.614365 136.503615 
L 333.331371 132.991004 
L 336.183061 135.136056 
L 338.740281 136.06302 
L 341.456174 135.688159 
" style="fill:none;stroke:#000000;stroke-linecap:square;stroke-width:0.5;"/>
   </g>
   <g id="line2d_53"/>
   <g id="line2d_54"/>
   <g id="line2d_55">
    <path clip-path="url(#p26954cea68)" d="M 174.617129 151.052179 
L 173.687134 152.887397 
L 171.482317 155.014029 
L 168.958336 153.718303 
L 168.972247 152.774314 
L 168.011054 152.576834 
L 166.913428 150.961195 
L 167.898795 150.476182 
L 167.150294 150.587713 
L 167.084926 149.894519 
L 167.468808 149.809343 
L 166.861502 149.350742 
L 167.550609 149.234497 
L 169.107654 147.224377 
L 172.083192 147.075703 
L 173.577035 148.889712 
L 173.43256 149.45008 
L 174.062512 150.517474 
L 173.521849 151.407296 
L 174.617129 151.052179 
" style="fill:none;stroke:#000000;stroke-linecap:square;stroke-width:0.5;"/>
   </g>
   <g id="line2d_56">
    <path clip-path="url(#p26954cea68)" d="M 258.649065 33.116948 
L 256.180673 34.353536 
L 256.724956 32.108615 
L 255.690649 32.05846 
L 252.731979 32.658659 
" style="fill:none;stroke:#000000;stroke-linecap:square;stroke-width:0.5;"/>
   </g>
   <g id="line2d_57">
    <path clip-path="url(#p26954cea68)" d="M 169.48893 134.225985 
L 170.164275 135.886358 
L 170.073911 137.418193 
L 170.647838 138.293162 
L 171.154489 138.173634 
L 171.78338 139.339955 
L 171.785889 140.762467 
L 169.46153 140.859807 
L 167.464107 140.333653 
L 167.407824 139.948903 
L 161.858793 139.520362 
L 160.853 139.970354 
L 157.81054 140.149317 
L 157.680009 139.678861 
L 158.533374 139.506888 
L 157.659365 139.399714 
L 157.980144 137.994639 
L 160.161748 138.13103 
L 160.214753 137.677553 
L 161.619736 137.575203 
L 161.977986 137.163504 
L 164.364409 138.172624 
L 165.466335 137.77372 
L 162.091309 136.478205 
L 161.026254 137.022203 
L 158.212626 136.83143 
L 157.662127 135.925261 
L 158.062607 135.582747 
L 157.595319 135.648818 
L 156.579606 133.822951 
L 155.583496 133.428476 
L 156.63612 133.049635 
L 157.456125 132.084052 
L 159.07994 128.770009 
L 162.485253 128.631063 
L 164.224247 129.036379 
L 165.357001 130.312118 
L 166.302376 130.412498 
L 167.086198 131.88562 
L 169.48893 134.225985 
" style="fill:none;stroke:#000000;stroke-linecap:square;stroke-width:0.5;"/>
   </g>
   <g id="line2d_58">
    <path clip-path="url(#p26954cea68)" d="M 336.488466 111.243777 
L 334.133835 111.035748 
L 333.075321 111.84856 
L 332.955174 114.354676 
L 331.268039 115.86243 
L 328.969211 112.442709 
L 326.53578 111.311336 
L 324.245509 108.914759 
L 322.207248 105.429528 
L 317.838652 104.133011 
L 315.96324 102.449704 
L 314.78077 99.408245 
L 315.083979 96.694946 
L 312.656234 93.151213 
L 310.480175 91.967802 
L 308.993475 91.978509 
L 307.577925 90.387114 
L 307.453397 88.643804 
L 299.995459 80.342586 
L 297.956503 80.849659 
L 299.148999 75.439175 
L 303.313683 74.69277 
L 305.931923 71.115238 
L 308.703834 69.620295 
L 309.413629 67.969417 
L 310.719799 66.788911 
L 306.715991 64.054397 
L 315.425902 57.974679 
L 320.539474 56.757755 
L 327.982085 57.629143 
L 340.219026 61.283981 
" style="fill:none;stroke:#000000;stroke-linecap:square;stroke-width:0.5;"/>
   </g>
   <g id="line2d_59"/>
   <g id="line2d_60"/>
   <g id="line2d_61"/>
   <g id="line2d_62"/>
   <g id="line2d_63"/>
   <g id="line2d_64"/>
   <g id="line2d_65"/>
   <g id="line2d_66"/>
   <g id="line2d_67"/>
   <g id="line2d_68"/>
   <g id="line2d_69"/>
   <g id="line2d_70">
    <path clip-path="url(#p26954cea68)" d="M 178.440432 43.889327 
L 179.730573 43.173075 
L 180.01681 44.678617 
L 183.868512 44.536827 
L 184.058829 45.763495 
L 184.882958 46.468898 
L 183.091848 48.589522 
L 183.388182 51.499538 
L 182.830859 52.190766 
L 183.172948 52.846628 
L 182.974277 53.771052 
L 181.568524 54.199213 
L 182.917746 56.858594 
L 182.052328 59.223138 
L 183.018935 60.407878 
L 181.798954 62.128448 
L 181.893845 64.306207 
L 180.818301 64.878504 
L 177.882342 64.450464 
L 178.346867 62.934034 
L 178.177587 58.832615 
L 178.715465 58.988784 
L 178.385505 58.566541 
L 177.336686 58.721861 
L 177.242647 57.856522 
L 177.822405 57.560191 
L 178.403897 56.265407 
L 177.53299 57.540404 
L 176.675268 57.478138 
L 176.927348 54.992054 
L 178.28699 51.884573 
L 178.674263 49.188743 
L 178.495352 44.988336 
L 178.161162 44.645591 
L 178.440432 43.889327 
" style="fill:none;stroke:#000000;stroke-linecap:square;stroke-width:0.5;"/>
   </g>
   <g id="line2d_71"/>
   <g id="line2d_72"/>
   <g id="line2d_73"/>
   <g id="line2d_74"/>
   <g id="line2d_75"/>
   <g id="line2d_76"/>
   <g id="line2d_77"/>
   <g id="line2d_78"/>
   <g id="line2d_79"/>
   <g id="line2d_80"/>
   <g id="line2d_81"/>
   <g id="line2d_82"/>
   <g id="line2d_83"/>
   <g id="line2d_84"/>
   <g id="line2d_85"/>
   <g id="line2d_86">
    <path clip-path="url(#p26954cea68)" d="M 234.519708 137.00861 
L 235.71804 138.622534 
L 236.068514 140.462227 
L 237.179855 141.023611 
L 237.062971 142.677257 
L 235.501601 143.604404 
L 234.764311 144.532898 
L 233.641691 146.778556 
L 233.456207 148.019794 
L 232.755697 148.404518 
L 232.24062 150.190297 
L 231.391523 150.606971 
L 229.748968 154.06111 
L 229.991307 154.454237 
L 228.80835 155.972043 
L 228.050388 156.183243 
L 227.799829 155.471453 
L 226.770039 154.668591 
L 226.276977 155.151963 
L 225.589404 154.864641 
L 222.837988 157.421553 
L 221.563039 160.600478 
L 220.750568 160.227839 
L 220.900003 161.104853 
L 219.266718 161.203808 
L 218.981587 160.881371 
L 218.363006 161.157211 
L 217.841798 160.740427 
L 218.037685 161.243721 
L 217.457562 161.558919 
L 217.067953 160.726732 
L 217.300025 161.603728 
L 216.730885 161.691603 
L 216.598211 161.353404 
L 216.534694 161.690384 
L 215.807389 161.776437 
L 215.82569 161.469738 
L 215.581722 161.85827 
L 214.12073 160.946465 
L 213.563533 159.421623 
L 214.025806 158.879708 
L 213.152832 158.739104 
L 213.793904 158.537611 
L 212.936748 158.4707 
L 211.24357 156.714475 
L 208.811122 156.536567 
L 209.470943 156.103593 
L 208.525622 156.613917 
L 206.968106 156.692405 
L 207.137263 149.946237 
L 207.805874 149.851328 
L 208.499979 148.079895 
L 209.186006 147.496492 
L 209.191089 146.612558 
L 209.636565 146.389404 
L 209.469491 144.74134 
L 208.902835 143.936303 
L 209.341417 142.984631 
L 209.296631 140.998456 
L 210.269024 139.93122 
L 210.538987 138.56087 
L 211.218831 138.051428 
L 213.881984 137.403131 
L 215.897677 137.915612 
L 217.492549 139.579915 
L 219.734987 138.638737 
L 222.05493 139.699202 
L 224.247209 139.875911 
L 225.338671 138.788944 
L 226.437023 138.414201 
L 228.834445 138.244131 
L 231.545997 138.804323 
L 232.605477 137.80049 
L 234.519708 137.00861 
" style="fill:none;stroke:#000000;stroke-linecap:square;stroke-width:0.5;"/>
   </g>
   <g id="line2d_87">
    <path clip-path="url(#p26954cea68)" d="M 234.519708 137.00861 
L 232.605477 137.80049 
L 231.545997 138.804323 
L 228.834445 138.244131 
L 226.437023 138.414201 
L 225.338671 138.788944 
L 224.247209 139.875911 
L 222.05493 139.699202 
L 219.734987 138.638737 
L 217.492549 139.579915 
L 215.897677 137.915612 
L 213.881984 137.403131 
L 211.823692 137.81493 
L 210.538987 138.56087 
L 210.269024 139.93122 
L 209.296631 140.998456 
L 209.169546 143.157621 
L 207.212665 141.40339 
L 206.125975 141.83327 
L 206.183214 142.672118 
L 205.401342 141.61309 
L 205.780404 141.204172 
L 205.479562 140.596644 
L 204.145859 140.777171 
L 202.719025 139.728422 
L 202.72192 138.887075 
L 203.247231 138.903797 
L 201.80748 138.005736 
L 200.685819 135.924108 
L 200.845912 134.692724 
L 202.620628 134.639021 
L 203.491824 133.865589 
L 208.943733 133.579609 
L 209.867607 132.499617 
L 210.624789 130.266561 
L 210.73775 123.264117 
L 214.741204 122.204903 
L 218.858453 118.096033 
L 230.265808 109.572819 
L 234.192935 110.213473 
L 236.115976 111.698629 
L 238.128527 110.35456 
L 238.665911 114.694759 
L 240.744826 117.940157 
L 240.136219 119.288175 
L 239.442262 127.882269 
L 236.516759 131.316691 
L 234.106771 135.208573 
L 234.519708 137.00861 
" style="fill:none;stroke:#000000;stroke-linecap:square;stroke-width:0.5;"/>
   </g>
   <g id="line2d_88"/>
   <g id="line2d_89"/>
   <g id="line2d_90"/>
   <g id="line2d_91"/>
   <g id="line2d_92"/>
   <g id="line2d_93">
    <path clip-path="url(#p26954cea68)" d="M 261.438166 221.507016 
L 265.442322 221.658653 
L 267.022876 222.698582 
L 263.984664 222.977768 
L 262.081105 224.030469 
L 260.965992 222.511975 
L 254.507923 222.657109 
L 254.499074 233.706831 
L 251.703778 233.311775 
L 251.712513 254.057805 
L 250.484267 254.251277 
L 249.43558 255.300464 
L 246.523751 254.558674 
L 244.740992 253.673914 
L 244.498975 252.198858 
L 243.680666 251.276817 
L 242.041707 252.973805 
L 240.093543 250.52335 
L 238.946391 248.108305 
L 237.775051 243.009924 
L 237.753634 240.840589 
L 236.868439 238.17098 
L 236.766337 232.858753 
L 234.112889 228.088888 
L 231.5331 222.174777 
L 229.770855 219.454962 
L 229.686334 217.360136 
L 231.766074 217.394738 
L 233.2022 216.813693 
L 235.596098 218.215108 
L 247.327574 219.215464 
L 248.86506 220.530801 
L 253.861547 221.706152 
L 261.438166 221.507016 
" style="fill:none;stroke:#000000;stroke-linecap:square;stroke-width:0.5;"/>
   </g>
   <g id="line2d_94">
    <path clip-path="url(#p26954cea68)" d="M 286.247055 240.733237 
L 290.155302 237.831678 
L 290.372384 235.737373 
L 292.118649 233.834374 
L 291.365459 231.711168 
L 291.61771 230.821673 
L 291.093527 230.186761 
L 292.119677 228.471568 
L 291.961761 223.1123 
L 288.466551 221.651472 
L 286.072503 220.012682 
L 283.304255 219.464631 
L 282.716011 216.339952 
L 292.853825 214.692047 
L 294.394241 216.655694 
L 297.047734 216.583889 
L 297.703204 218.975559 
L 296.589031 221.206954 
L 297.197873 222.469114 
L 299.624186 224.799607 
L 299.568035 225.596643 
L 300.336179 225.864466 
L 299.946384 223.95493 
L 300.654835 222.762246 
L 302.134947 222.674653 
L 302.65131 218.934006 
L 298.817201 213.958713 
L 298.230915 209.700596 
L 299.17982 207.861028 
L 301.42093 208.202714 
L 302.721127 207.88981 
L 304.212727 208.871293 
L 306.794553 208.741632 
L 308.326552 209.395685 
L 309.708919 209.147996 
L 310.482112 208.313639 
L 312.767569 208.984997 
L 316.150856 208.449326 
L 320.940854 206.839787 
L 321.574115 207.579335 
L 320.682012 209.726215 
L 321.441972 214.253588 
L 320.826773 215.349676 
L 321.390152 215.439387 
L 321.721456 220.849355 
L 322.275341 220.534832 
L 322.574996 221.621237 
L 321.348375 224.042412 
L 318.100172 226.314231 
L 318.324945 226.849196 
L 315.175587 228.121249 
L 308.872722 228.96961 
L 306.641623 229.982384 
L 304.585935 232.227809 
L 302.504434 232.57162 
L 299.138233 234.674484 
L 298.045543 234.072606 
L 298.248751 236.74146 
L 299.264961 238.10472 
L 300.318094 241.274818 
L 300.496146 243.941831 
L 301.018495 243.072301 
L 301.293096 243.604917 
L 301.462107 246.191566 
L 300.699066 249.005276 
L 301.337516 249.263481 
L 301.142458 250.088729 
L 299.300881 251.73875 
L 293.368465 252.404146 
L 291.416286 253.282593 
L 290.713008 254.40135 
L 291.614294 255.601507 
L 291.985729 255.027172 
L 291.744845 257.77237 
L 289.060943 257.006254 
L 288.399605 252.971827 
L 288.624323 248.366082 
L 287.120703 244.611375 
L 286.247055 240.733237 
" style="fill:none;stroke:#000000;stroke-linecap:square;stroke-width:0.5;"/>
   </g>
   <g id="line2d_95">
    <path clip-path="url(#p26954cea68)" d="M 194.798515 72.992734 
L 195.846669 74.31313 
L 196.134326 79.474728 
L 196.700613 81.361537 
L 197.65029 82.476815 
L 197.218544 82.924108 
L 197.254123 83.719476 
L 193.205907 83.740835 
L 192.824807 84.554279 
L 190.964679 84.98127 
L 190.802913 86.646381 
L 191.215999 87.451279 
L 187.984386 88.977176 
L 186.788181 90.601844 
L 184.215022 90.899191 
L 183.82575 91.702315 
L 182.555549 91.448765 
L 179.732789 93.330075 
L 178.68993 94.192402 
L 178.395627 99.186656 
L 176.830249 99.161572 
L 175.802073 99.825353 
L 173.405083 99.071368 
L 171.777735 99.345293 
L 171.918207 100.148881 
L 170.940172 101.713429 
L 170.05639 101.97852 
L 169.099437 105.474763 
L 167.646483 106.432146 
L 166.813769 107.83851 
L 165.29765 108.56154 
L 164.431642 112.620227 
L 163.036349 114.878105 
L 157.02543 114.46831 
L 157.220321 113.058575 
L 158.759077 111.149643 
L 160.281809 107.685883 
L 159.770851 107.999799 
L 159.988202 107.49238 
L 162.631292 105.111053 
L 162.920309 103.015385 
L 163.924962 100.462581 
L 166.122668 99.198255 
L 167.756291 95.602517 
L 171.366167 94.725836 
L 174.82776 91.57827 
L 176.185307 89.288479 
L 176.22128 88.156022 
L 175.655537 87.185451 
L 175.825414 84.789168 
L 176.996567 82.618027 
L 177.254155 80.941192 
L 179.108058 78.715347 
L 183.160717 76.50224 
L 184.531563 73.665962 
L 185.601272 69.984237 
L 187.213949 69.656444 
L 187.27656 70.744888 
L 188.829576 72.363406 
L 191.890266 72.494414 
L 192.936622 71.809791 
L 193.264035 72.857816 
L 194.798515 72.992734 
" style="fill:none;stroke:#000000;stroke-linecap:square;stroke-width:0.5;"/>
   </g>
   <g id="line2d_96">
    <path clip-path="url(#p26954cea68)" d="M 157.02543 114.46831 
L 163.036349 114.878105 
L 164.431642 112.620227 
L 165.29765 108.56154 
L 166.813769 107.83851 
L 167.646483 106.432146 
L 169.099437 105.474763 
L 170.05639 101.97852 
L 170.940172 101.713429 
L 171.918207 100.148881 
L 171.777735 99.345293 
L 173.405083 99.071368 
L 175.802073 99.825353 
L 176.830249 99.161572 
L 178.395627 99.186656 
L 178.337608 97.484295 
L 178.67747 97.51139 
L 178.680308 102.721295 
L 170.17171 101.975907 
L 170.153312 109.710788 
L 168.60912 110.156912 
L 167.224676 111.37403 
L 167.581343 115.795016 
L 157.129417 114.752452 
L 156.903991 116.277992 
L 157.02543 114.46831 
" style="fill:none;stroke:#000000;stroke-linecap:square;stroke-width:0.5;"/>
   </g>
   <g id="line2d_97"/>
   <g id="line2d_98"/>
   <g id="line2d_99"/>
   <g id="line2d_100">
    <path clip-path="url(#p26954cea68)" d="M 169.48893 134.225985 
L 167.086198 131.88562 
L 166.556393 130.638629 
L 165.357001 130.312118 
L 163.609291 128.780567 
L 159.07994 128.770009 
L 158.285308 130.63836 
L 158.477672 128.522925 
L 159.508412 125.953698 
L 159.594441 124.04006 
L 159.149373 121.765837 
L 158.341183 120.652094 
L 158.902415 120.271933 
L 158.528001 120.348953 
L 159.156434 118.217822 
L 157.228224 115.400589 
L 156.903991 116.277992 
L 157.129417 114.752452 
L 167.581343 115.795016 
L 167.224676 111.37403 
L 168.60912 110.156912 
L 170.153312 109.710788 
L 170.17171 101.975907 
L 178.680308 102.721295 
L 178.67747 98.686887 
L 188.346626 106.316771 
L 183.928985 106.114847 
L 186.339896 130.210417 
L 187.009547 130.999768 
L 186.629415 133.098354 
L 177.429097 132.772621 
L 176.988643 132.26403 
L 176.744279 132.844003 
L 173.561554 132.786199 
L 172.917529 133.48666 
L 171.494746 132.095191 
L 170.832147 132.631757 
L 170.366219 134.064303 
L 169.943553 134.42333 
L 169.48893 134.225985 
" style="fill:none;stroke:#000000;stroke-linecap:square;stroke-width:0.5;"/>
   </g>
   <g id="line2d_101">
    <path clip-path="url(#p26954cea68)" d="M 171.785889 140.762467 
L 171.78338 139.339955 
L 171.154489 138.173634 
L 170.647838 138.293162 
L 170.073911 137.418193 
L 170.164275 135.886358 
L 169.48893 134.225985 
L 169.943553 134.42333 
L 170.366219 134.064303 
L 170.832147 132.631757 
L 171.494746 132.095191 
L 172.917529 133.48666 
L 173.561554 132.786199 
L 176.744279 132.844003 
L 176.988643 132.26403 
L 177.429097 132.772621 
L 186.629415 133.098354 
L 187.009547 130.999768 
L 186.339896 130.210417 
L 183.928985 106.114847 
L 188.346626 106.316771 
L 203.109745 117.899293 
L 203.159673 118.705425 
L 204.611093 120.060509 
L 208.017209 121.356275 
L 208.328231 122.57445 
L 207.957239 123.305554 
L 208.328473 123.677216 
L 210.73775 123.264117 
L 210.624789 130.266561 
L 209.867607 132.499617 
L 208.943733 133.579609 
L 203.491824 133.865589 
L 202.620628 134.639021 
L 200.818185 134.830794 
L 198.63578 134.40964 
L 195.408113 136.009736 
L 195.061571 136.764613 
L 193.890616 136.597002 
L 192.989565 138.105916 
L 192.252168 138.070277 
L 192.12058 139.055791 
L 191.560926 139.303857 
L 190.520367 138.714488 
L 189.573814 139.438224 
L 189.826084 140.290664 
L 189.196555 140.596022 
L 189.325479 141.467642 
L 187.188296 142.749655 
L 187.282639 143.919728 
L 186.684287 144.767851 
L 186.601916 146.350076 
L 185.327301 146.919444 
L 184.818306 146.738363 
L 184.761455 145.549249 
L 184.354573 145.964997 
L 183.778708 145.702402 
L 183.680825 146.489594 
L 183.037042 146.493951 
L 182.869776 147.001603 
L 181.663332 146.21157 
L 180.424473 146.894969 
L 179.729096 146.043526 
L 179.550699 144.734263 
L 178.719535 144.66155 
L 179.396504 143.755083 
L 178.326991 142.924818 
L 177.57182 140.869622 
L 176.875086 140.806301 
L 176.969574 141.358371 
L 176.064219 141.883878 
L 174.638421 141.384405 
L 173.529216 142.165425 
L 172.956046 141.337061 
L 172.002213 141.796997 
L 171.496001 141.292879 
L 171.785889 140.762467 
" style="fill:none;stroke:#000000;stroke-linecap:square;stroke-width:0.5;"/>
   </g>
   <g id="line2d_102"/>
   <g id="line2d_103"/>
   <g id="line2d_104">
    <path clip-path="url(#p26954cea68)" d="M 292.853825 214.692047 
L 292.11625 214.619012 
L 290.99142 213.123994 
L 292.030251 212.123641 
L 292.219786 210.305032 
L 293.952793 209.639832 
L 293.032305 208.802095 
L 292.963025 206.653802 
L 293.482871 205.912832 
L 293.064026 205.056688 
L 294.483658 204.161918 
L 292.05286 200.399406 
L 295.52851 201.521921 
L 295.63928 202.654751 
L 296.589737 203.908684 
L 296.858148 207.824043 
L 295.811554 209.431812 
L 296.884661 211.87201 
L 296.851785 213.2388 
L 297.884597 214.296581 
L 297.746576 215.666933 
L 298.337963 216.270152 
L 298.983288 215.573438 
L 300.339434 216.957543 
L 298.817201 213.958713 
L 302.479846 218.18763 
L 302.269733 222.3692 
L 300.40637 223.004749 
L 299.946384 223.95493 
L 300.336179 225.864466 
L 299.568035 225.596643 
L 299.624186 224.799607 
L 297.197873 222.469114 
L 296.589031 221.206954 
L 297.649894 219.47067 
L 297.520608 217.206785 
L 296.893854 216.509884 
L 294.394241 216.655694 
L 292.853825 214.692047 
" style="fill:none;stroke:#000000;stroke-linecap:square;stroke-width:0.5;"/>
   </g>
   <g id="line2d_105">
    <path clip-path="url(#p26954cea68)" d="M 337.052734 264.234878 
L 335.318237 260.801251 
L 335.564989 257.727921 
L 333.419097 252.501653 
L 334.526925 248.755505 
L 335.933842 248.437088 
L 338.828117 244.262287 
L 339.041797 242.392091 
L 337.075128 237.534917 
L 336.785683 234.072503 
L 338.908918 231.930584 
L 339.174328 230.160415 
" style="fill:none;stroke:#000000;stroke-linecap:square;stroke-width:0.5;"/>
   </g>
   <g id="line2d_106">
    <path clip-path="url(#p26954cea68)" d="M 256.180673 34.353536 
L 258.122979 33.155975 
L 259.732634 34.215928 
L 260.336394 35.387342 
L 260.121102 37.298926 
L 259.17427 38.642926 
L 257.414215 39.269656 
L 256.218587 40.87843 
L 253.848314 41.450929 
L 253.138524 39.963087 
L 253.31912 37.129509 
L 253.803659 36.923245 
L 253.953648 35.932043 
L 256.180673 34.353536 
" style="fill:none;stroke:#000000;stroke-linecap:square;stroke-width:0.5;"/>
   </g>
   <g id="line2d_107"/>
   <g id="line2d_108">
    <path clip-path="url(#p26954cea68)" d="M 224.000498 88.922581 
L 224.956647 88.297666 
L 225.775065 86.873731 
L 225.516507 84.571859 
L 225.923456 83.763155 
L 229.073655 80.84009 
L 229.07265 78.100713 
L 231.071676 78.993564 
L 233.67707 78.419422 
L 238.651934 79.516826 
L 240.058678 82.712866 
L 245.780875 83.471304 
L 249.330491 85.130181 
L 250.966917 84.029497 
L 252.079149 82.115165 
L 251.561338 79.144413 
L 251.853685 78.022448 
L 254.757779 74.902663 
L 257.972198 73.60075 
L 260.590099 74.085288 
L 260.635692 75.157424 
L 261.161925 75.468477 
L 266.095211 75.184844 
L 266.696264 76.154213 
L 265.801273 77.585552 
L 266.127476 79.934834 
L 265.353495 81.873205 
L 266.1841 85.348739 
L 266.181752 115.693128 
L 263.203282 116.162741 
L 263.203282 117.685813 
L 240.80065 108.6867 
L 236.115976 111.698629 
L 234.192935 110.213473 
L 230.265808 109.572819 
L 229.080434 107.276267 
L 226.053966 106.881812 
L 225.225544 104.503857 
L 223.755909 102.107426 
L 224.865977 100.752654 
L 224.955157 99.81555 
L 224.581674 98.32158 
L 225.010065 96.833347 
L 224.767629 92.547007 
L 223.471595 89.355136 
L 224.000498 88.922581 
" style="fill:none;stroke:#000000;stroke-linecap:square;stroke-width:0.5;"/>
   </g>
   <g id="line2d_109">
    <path clip-path="url(#p26954cea68)" d="M 171.482317 155.014029 
L 173.687134 152.887397 
L 174.617129 151.052179 
L 176.194239 151.122679 
L 176.941589 153.106074 
L 176.701412 153.83415 
L 177.579116 154.360807 
L 178.155975 154.25346 
L 178.941393 153.2163 
L 179.65351 154.760157 
L 178.879002 156.179909 
L 180.681202 156.898195 
L 180.912874 157.556368 
L 181.772715 157.905002 
L 181.545218 161.642424 
L 177.542141 159.827617 
L 174.634561 157.192984 
L 171.482317 155.014029 
" style="fill:none;stroke:#000000;stroke-linecap:square;stroke-width:0.5;"/>
   </g>
   <g id="line2d_110">
    <path clip-path="url(#p26954cea68)" d="M 277.84478 266.024567 
L 276.741122 265.889722 
L 275.674959 267.414756 
L 274.714835 267.031709 
L 273.569115 265.655026 
L 272.533953 262.827843 
L 274.659429 260.87038 
L 277.488293 260.297707 
L 279.957576 263.494958 
L 279.008473 265.661555 
L 277.84478 266.024567 
" style="fill:none;stroke:#000000;stroke-linecap:square;stroke-width:0.5;"/>
   </g>
   <g id="line2d_111"/>
   <g id="line2d_112"/>
   <g id="line2d_113"/>
   <g id="line2d_114">
    <path clip-path="url(#p26954cea68)" d="M 295.601528 171.864553 
L 297.435069 169.378351 
L 298.590899 168.757651 
L 299.249878 167.154087 
L 298.983646 165.030287 
L 297.311993 163.019295 
L 297.275125 161.5571 
L 296.288692 161.105927 
L 295.608775 159.91295 
L 300.320625 155.84086 
L 300.531637 156.218111 
L 302.096511 156.196828 
L 302.164237 157.83679 
L 303.138138 158.833135 
L 306.511098 158.852422 
L 311.141843 161.039084 
L 316.865704 161.429363 
L 318.31472 160.097039 
L 322.233305 158.545219 
L 323.857287 159.487421 
L 327.131329 159.287952 
L 323.093297 163.290007 
L 323.155044 175.346348 
L 325.575231 178.09293 
L 324.411421 178.891183 
L 322.770193 179.111286 
L 322.806902 179.91803 
L 321.71308 180.768262 
L 319.916135 181.199122 
L 319.463594 183.005317 
L 316.379464 187.305695 
L 315.609609 187.43222 
L 309.995153 183.996223 
L 309.249495 183.41208 
L 309.389785 182.004444 
L 295.895539 175.60622 
L 296.323912 173.902936 
L 297.342841 173.982509 
L 297.420877 173.558192 
L 298.644542 173.329014 
L 298.294421 172.775429 
L 296.720704 173.546708 
L 295.601528 171.864553 
" style="fill:none;stroke:#000000;stroke-linecap:square;stroke-width:0.5;"/>
   </g>
   <g id="line2d_115"/>
   <g id="line2d_116">
    <path clip-path="url(#p26954cea68)" d="M 302.255076 60.399651 
L 304.465394 61.065014 
L 306.174756 60.719528 
L 313.907459 52.98799 
L 314.999624 57.339007 
L 316.032058 57.202551 
L 314.676252 58.844124 
L 306.715991 64.054397 
L 310.719799 66.788911 
L 309.413629 67.969417 
L 308.703834 69.620295 
L 305.931923 71.115238 
L 303.113445 74.798904 
L 299.148999 75.439175 
L 300.954918 67.62967 
L 301.452632 61.103519 
L 302.255076 60.399651 
" style="fill:none;stroke:#000000;stroke-linecap:square;stroke-width:0.5;"/>
   </g>
   <g id="line2d_117"/>
   <g id="line2d_118"/>
   <g id="line2d_119"/>
   <g id="line2d_120">
    <path clip-path="url(#p26954cea68)" d="M 231.372819 31.53872 
L 234.40947 34.066945 
L 235.577657 38.014971 
L 236.971607 39.784992 
L 238.631227 40.839687 
L 241.283461 40.371939 
L 240.577426 42.316016 
L 246.120321 44.801815 
L 247.503832 46.381213 
L 247.319541 47.840458 
L 246.455977 47.919187 
L 245.875074 46.547278 
L 243.335066 46.400051 
L 242.241252 49.795977 
L 243.838202 51.006726 
L 244.00059 52.612924 
L 242.496086 53.809038 
L 242.305003 55.502158 
L 240.995079 57.736105 
L 240.108114 57.936723 
L 239.891183 57.005353 
L 241.404759 53.459054 
L 240.023558 49.251414 
L 238.054387 48.600681 
L 237.565084 46.813397 
L 236.443032 47.36351 
L 236.760422 46.720328 
L 235.666541 46.581502 
L 234.851936 44.859765 
L 233.16967 45.165001 
L 229.414042 41.140692 
L 228.042126 40.792183 
L 228.207668 40.214538 
L 226.536524 38.489359 
L 225.850001 34.399008 
L 225.345137 33.672774 
L 222.093435 32.229406 
L 220.174169 35.145703 
L 218.887149 35.836943 
L 219.249047 33.878939 
L 217.399826 33.27785 
" style="fill:none;stroke:#000000;stroke-linecap:square;stroke-width:0.5;"/>
   </g>
   <g id="line2d_121">
    <path clip-path="url(#p26954cea68)" d="M 239.714177 56.856379 
L 238.447782 60.243455 
L 238.967899 61.768936 
L 238.482444 63.332941 
L 236.869211 63.19993 
L 236.230431 62.331121 
L 232.004781 60.881026 
L 231.474439 60.059074 
L 232.248983 58.44721 
L 232.686161 58.977197 
L 233.696925 58.156316 
L 234.997095 58.779637 
L 239.714177 56.856379 
" style="fill:none;stroke:#000000;stroke-linecap:square;stroke-width:0.5;"/>
   </g>
   <g id="line2d_122">
    <path clip-path="url(#p26954cea68)" d="M 224.288135 48.293398 
L 224.728395 49.895852 
L 224.315917 50.953031 
L 224.111563 55.647069 
L 222.828346 55.511642 
L 222.601202 56.683868 
L 221.79708 56.93685 
L 221.215517 55.850828 
L 221.542575 53.153339 
L 221.189401 52.866117 
L 221.349567 51.24454 
L 220.640059 49.784587 
L 220.726445 48.635294 
L 221.603476 48.800047 
L 223.26417 46.788164 
L 224.288135 48.293398 
" style="fill:none;stroke:#000000;stroke-linecap:square;stroke-width:0.5;"/>
   </g>
   <g id="line2d_123">
    <path clip-path="url(#p26954cea68)" d="M 302.562433 57.259878 
L 302.729213 59.293962 
L 301.452632 61.103519 
L 301.372843 62.180412 
L 300.042745 62.079422 
L 299.16802 63.976429 
L 299.187045 65.383465 
L 300.081379 65.371162 
L 298.890827 67.376887 
L 300.997058 66.174805 
L 298.978269 75.002868 
L 296.578445 68.830447 
L 297.594472 67.178472 
L 299.730068 59.847609 
L 300.85071 59.460691 
L 302.562433 57.259878 
" style="fill:none;stroke:#000000;stroke-linecap:square;stroke-width:0.5;"/>
   </g>
   <g id="line2d_124"/>
   <g id="line2d_125">
    <path clip-path="url(#p26954cea68)" d="M 340.344547 61.27448 
L 327.982085 57.629143 
L 320.539474 56.757755 
L 315.425902 57.974679 
L 316.032058 57.202551 
L 314.999624 57.339007 
L 313.907459 52.98799 
L 323.191005 44.048725 
L 324.09384 41.995862 
L 324.790458 37.383697 
L 324.536089 33.772886 
L 326.706984 31.616711 
" style="fill:none;stroke:#000000;stroke-linecap:square;stroke-width:0.5;"/>
   </g>
   <g id="line2d_126"/>
   <g id="line2d_127"/>
   <g id="line2d_128"/>
   <g id="line2d_129"/>
   <g id="line2d_130"/>
   <g id="line2d_131"/>
   <g id="line2d_132"/>
   <g id="line2d_133"/>
   <g id="line2d_134"/>
   <g id="line2d_135"/>
   <g id="line2d_136"/>
   <g id="line2d_137"/>
   <g id="line2d_138">
    <path clip-path="url(#p26954cea68)" d="M 157.81054 140.149317 
L 160.853 139.970354 
L 161.858793 139.520362 
L 165.721423 139.753463 
L 165.777243 140.719492 
L 165.146279 141.044904 
L 165.698555 141.521357 
L 165.712225 142.248234 
L 163.215862 142.72624 
L 162.264309 144.186779 
L 162.233673 143.649654 
L 161.789791 143.921831 
L 161.10648 142.87638 
L 162.185838 142.434507 
L 161.046897 142.036369 
L 162.170969 141.443305 
L 159.87492 141.802124 
L 159.932414 141.400183 
L 158.841293 141.030086 
L 159.065031 140.544375 
L 157.81054 140.149317 
" style="fill:none;stroke:#000000;stroke-linecap:square;stroke-width:0.5;"/>
   </g>
   <g id="line2d_139">
    <path clip-path="url(#p26954cea68)" d="M 174.617129 151.052179 
L 173.521849 151.407296 
L 174.062512 150.517474 
L 173.43256 149.45008 
L 173.577035 148.889712 
L 172.257626 147.130477 
L 169.107654 147.224377 
L 167.550609 149.234497 
L 166.861502 149.350742 
L 166.486951 148.370082 
L 165.820538 148.042531 
L 165.824624 147.017313 
L 163.890647 146.092034 
L 162.97047 144.244403 
L 162.242593 144.465564 
L 163.215862 142.72624 
L 165.712225 142.248234 
L 165.698555 141.521357 
L 165.146279 141.044904 
L 165.777243 140.719492 
L 165.721423 139.753463 
L 167.407824 139.948903 
L 167.464107 140.333653 
L 169.182478 140.814824 
L 171.785889 140.762467 
L 171.496001 141.292879 
L 172.002213 141.796997 
L 172.956046 141.337061 
L 173.529216 142.165425 
L 174.638421 141.384405 
L 175.964444 141.913144 
L 176.969574 141.358371 
L 176.875086 140.806301 
L 177.767775 141.001246 
L 178.326991 142.924818 
L 179.396504 143.755083 
L 178.719535 144.66155 
L 179.550699 144.734263 
L 179.729096 146.043526 
L 180.436888 146.596894 
L 180.010044 147.37157 
L 180.05593 148.598622 
L 180.662157 148.81727 
L 180.95954 149.680908 
L 180.524279 150.422507 
L 181.106388 150.801461 
L 181.202873 151.39608 
L 179.871989 151.183024 
L 179.755684 151.765576 
L 180.376038 152.224098 
L 179.88208 153.455254 
L 178.737051 153.183367 
L 178.155975 154.25346 
L 177.579116 154.360807 
L 176.701412 153.83415 
L 176.941589 153.106074 
L 176.563241 151.457841 
L 175.893321 150.950773 
L 174.617129 151.052179 
" style="fill:none;stroke:#000000;stroke-linecap:square;stroke-width:0.5;"/>
   </g>
   <g id="line2d_140"/>
   <g id="line2d_141">
    <path clip-path="url(#p26954cea68)" d="M 270.257493 31.807415 
L 271.059675 32.059044 
L 271.194178 32.9879 
L 270.287506 34.140309 
L 270.359557 35.285647 
L 269.608057 36.764077 
L 266.557724 36.731517 
L 262.561193 39.333278 
L 262.867985 40.767665 
L 263.892177 40.835704 
L 264.280113 41.537692 
L 262.458462 41.321099 
L 263.105114 42.782927 
L 261.571852 41.926382 
L 262.300014 43.086024 
L 261.481955 43.21792 
L 261.237095 42.25804 
L 260.024481 41.814941 
L 260.0995 40.904906 
L 259.249251 41.628416 
L 259.141175 43.770347 
L 261.283126 46.973012 
L 260.7771 47.463504 
L 260.797635 46.758452 
L 260.096942 46.765222 
L 260.520305 47.828227 
L 259.074435 49.036497 
L 263.164009 50.353229 
L 263.425504 52.730499 
L 261.793338 51.834088 
L 260.431744 52.930193 
L 261.756645 54.405299 
L 260.797064 55.148569 
L 259.52735 54.641725 
L 260.793071 58.86838 
L 259.503546 57.802551 
L 258.66543 59.362857 
L 257.664514 57.347282 
L 257.124454 58.712748 
L 256.682478 58.313317 
L 256.23894 57.530417 
L 256.513213 56.170418 
L 254.934767 54.48156 
L 255.727917 52.953306 
L 257.29927 51.959033 
L 260.093816 52.688536 
L 260.861251 51.694563 
L 258.647936 51.046545 
L 255.924102 52.360289 
L 255.521081 51.760423 
L 255.099147 52.493418 
L 253.92662 50.538444 
L 254.89764 50.163132 
L 254.916757 49.572328 
L 253.958061 49.943968 
L 252.609699 48.932112 
L 251.770664 47.480931 
L 252.462285 47.421326 
L 252.838963 46.759302 
L 252.638755 46.02665 
L 253.613017 45.119677 
L 254.668649 42.501557 
L 254.479995 41.512185 
L 256.218587 40.87843 
L 257.414215 39.269656 
L 258.855705 38.851753 
L 259.697176 37.558472 
L 263.427528 35.315214 
L 264.801035 34.692409 
L 266.999886 35.371199 
L 269.039938 34.266428 
L 269.68821 33.656129 
L 269.53571 32.152715 
L 270.257493 31.807415 
" style="fill:none;stroke:#000000;stroke-linecap:square;stroke-width:0.5;"/>
   </g>
   <g id="line2d_142">
    <path clip-path="url(#p26954cea68)" d="M 200.111876 144.707304 
L 200.068116 145.840447 
L 201.221559 146.813271 
L 200.857485 148.92071 
L 201.579135 149.084924 
L 201.201064 150.703892 
L 201.975791 151.723872 
L 201.578894 155.504113 
L 202.100701 156.500336 
L 203.212738 157.405905 
L 202.626175 158.103843 
L 200.922343 158.237692 
L 195.336902 160.707742 
L 192.585553 159.884929 
L 193.324095 159.727975 
L 193.474294 159.031873 
L 192.872073 158.333149 
L 192.283975 155.587304 
L 193.388261 152.767573 
L 194.090643 152.074284 
L 193.494231 149.955429 
L 193.445778 146.920857 
L 193.078523 146.012501 
L 193.288809 144.974251 
L 198.732836 145.18804 
L 199.541906 144.575455 
L 200.111876 144.707304 
" style="fill:none;stroke:#000000;stroke-linecap:square;stroke-width:0.5;"/>
   </g>
   <g id="line2d_143"/>
   <g id="line2d_144"/>
   <g id="line2d_145">
    <path clip-path="url(#p26954cea68)" d="M 233.703289 167.013806 
L 233.501996 169.333402 
L 236.024907 169.010116 
L 236.679693 170.201707 
L 236.401681 170.909369 
L 235.418141 171.599934 
L 235.183501 173.017029 
L 236.796166 173.962204 
L 236.558898 177.319032 
L 235.534121 178.841117 
L 234.852958 177.937553 
L 234.15036 178.584674 
L 232.918175 178.364681 
L 231.87566 177.122979 
L 231.465591 177.378424 
L 231.502504 178.394132 
L 229.332119 178.407536 
L 229.158031 179.653795 
L 230.178901 180.883481 
L 230.038889 181.76144 
L 229.071897 181.380586 
L 228.111239 182.369608 
L 224.516894 178.684739 
L 225.381693 178.897961 
L 224.269284 178.430863 
L 223.442876 177.262657 
L 223.910279 177.244146 
L 223.358464 177.067056 
L 222.777668 175.77266 
L 223.493382 176.584277 
L 223.955634 176.393896 
L 223.434954 176.291593 
L 223.563952 175.815868 
L 222.849361 175.746536 
L 221.934994 173.976194 
L 222.550054 174.221513 
L 223.437182 173.378795 
L 223.584754 171.640241 
L 224.706793 172.389165 
L 225.227532 172.011211 
L 224.070902 171.759075 
L 223.508486 171.118638 
L 224.252418 171.056318 
L 224.183473 169.915766 
L 228.637773 169.982488 
L 228.67138 166.705974 
L 233.703289 167.013806 
" style="fill:none;stroke:#000000;stroke-linecap:square;stroke-width:0.5;"/>
   </g>
   <g id="line2d_146">
    <path clip-path="url(#p26954cea68)" d="M 217.399826 33.27785 
L 219.249047 33.878939 
L 218.887149 35.836943 
L 215.438312 39.498513 
L 212.805765 37.998944 
L 211.94117 38.403088 
L 209.951657 37.652704 
L 207.822799 40.794304 
L 208.21818 42.9882 
L 205.30188 43.461793 
L 204.503946 42.34611 
L 202.168703 41.323858 
L 201.840756 42.007534 
L 200.179626 42.017661 
L 196.673834 40.307844 
L 196.797717 39.437038 
L 195.85053 38.631597 
L 196.614484 37.918304 
L 197.20576 33.167592 
L 197.622072 32.542272 
L 197.206483 32.646981 
" style="fill:none;stroke:#000000;stroke-linecap:square;stroke-width:0.5;"/>
   </g>
   <g id="line2d_147"/>
   <g id="line2d_148"/>
   <g id="line2d_149">
    <path clip-path="url(#p26954cea68)" d="M 300.320625 155.84086 
L 298.269087 152.40612 
L 295.344655 150.033443 
L 292.188238 148.937536 
L 293.133697 147.401057 
L 295.527108 147.185489 
L 296.034642 146.720496 
L 295.979806 143.878817 
L 296.688217 140.685882 
L 297.762933 139.479683 
L 298.490817 139.817483 
L 299.077957 139.383629 
L 299.743759 136.322182 
L 301.816413 133.502887 
L 303.461361 132.957098 
L 305.046304 127.772421 
L 306.971091 127.42979 
L 307.875243 126.690065 
L 309.103965 127.508397 
L 310.339221 124.970909 
L 312.524552 126.039302 
L 315.133976 124.941612 
L 315.642123 125.363994 
L 319.569995 124.796876 
L 322.469708 125.507925 
L 329.351321 130.165159 
L 326.7252 133.256774 
L 326.749926 135.683901 
L 331.835234 134.953106 
L 330.614365 136.503615 
L 331.462084 137.777448 
L 334.436221 140.297108 
L 336.806638 141.331543 
L 341.444143 155.325291 
L 334.910541 155.913016 
L 331.531162 157.908679 
L 327.756903 158.723755 
L 327.131329 159.287952 
L 323.857287 159.487421 
L 322.233305 158.545219 
L 318.31472 160.097039 
L 316.865704 161.429363 
L 311.141843 161.039084 
L 306.511098 158.852422 
L 303.138138 158.833135 
L 302.164237 157.83679 
L 302.096511 156.196828 
L 300.531637 156.218111 
L 300.320625 155.84086 
" style="fill:none;stroke:#000000;stroke-linecap:square;stroke-width:0.5;"/>
   </g>
   <g id="line2d_150"/>
   <g id="line2d_151">
    <path clip-path="url(#p26954cea68)" d="M 305.046304 127.772421 
L 304.673797 124.958342 
L 306.542776 120.777162 
L 306.910961 118.142701 
L 308.475896 117.842667 
L 309.010734 116.847455 
L 311.81044 115.410512 
L 313.242586 113.663598 
L 314.97125 116.526256 
L 316.05742 120.356725 
L 318.077714 122.745415 
L 318.405131 121.494439 
L 319.838408 122.823483 
L 324.014236 123.475335 
L 326.129185 125.35306 
L 328.749061 126.315047 
L 329.445461 127.526777 
L 332.73102 128.798013 
L 330.830285 130.247331 
L 329.351321 130.165159 
L 322.469708 125.507925 
L 319.569995 124.796876 
L 315.642123 125.363994 
L 314.927701 124.97553 
L 312.524552 126.039302 
L 310.339221 124.970909 
L 309.103965 127.508397 
L 307.875243 126.690065 
L 306.971091 127.42979 
L 305.046304 127.772421 
" style="fill:none;stroke:#000000;stroke-linecap:square;stroke-width:0.5;"/>
   </g>
   <g id="line2d_152">
    <path clip-path="url(#p26954cea68)" d="M 306.379182 101.070308 
L 286.743376 105.53138 
L 286.627507 104.859693 
L 285.981179 105.694711 
L 266.1841 109.462975 
L 266.1841 85.348739 
L 265.353495 81.873205 
L 266.127476 79.934834 
L 265.801273 77.585552 
L 266.696264 76.154213 
L 267.39585 76.50554 
L 268.948157 75.68506 
L 278.924496 75.903553 
L 282.685654 73.126624 
L 283.256935 72.169639 
L 285.020007 71.187092 
L 283.814953 72.156487 
L 285.282647 71.516455 
L 285.555579 70.872699 
L 287.048683 70.973701 
L 288.292216 70.241262 
L 289.140612 70.767669 
L 288.303252 70.473473 
L 287.88907 71.363966 
L 289.022636 71.795087 
L 289.643425 71.164827 
L 289.416909 70.867247 
L 290.757847 71.33128 
L 294.501408 69.848849 
L 296.408122 68.421482 
L 298.978269 75.002868 
L 296.487441 82.440315 
L 293.016103 80.403375 
L 290.627103 75.695756 
L 289.912838 77.249471 
L 291.787246 80.778 
L 294.076312 82.641014 
L 295.547784 86.914854 
L 300.045994 93.705415 
L 302.242253 95.090911 
L 301.333146 95.388441 
L 301.197383 95.935923 
L 301.919834 98.756007 
L 306.379182 101.070308 
" style="fill:none;stroke:#000000;stroke-linecap:square;stroke-width:0.5;"/>
   </g>
   <g id="line2d_153"/>
   <g id="line2d_154"/>
   <g id="line2d_155"/>
   <g id="line2d_156"/>
   <g id="line2d_157"/>
   <g id="line2d_158"/>
   <g id="line2d_159">
    <path clip-path="url(#p26954cea68)" d="M 244.269092 32.188824 
L 245.113484 34.421507 
L 243.267372 32.728414 
L 240.804563 32.766899 
" style="fill:none;stroke:#000000;stroke-linecap:square;stroke-width:0.5;"/>
   </g>
   <g id="line2d_160">
    <path clip-path="url(#p26954cea68)" d="M 180.424473 146.894969 
L 181.663332 146.21157 
L 182.869776 147.001603 
L 183.037042 146.493951 
L 183.680825 146.489594 
L 183.778708 145.702402 
L 184.354573 145.964997 
L 184.761455 145.549249 
L 184.818306 146.738363 
L 185.121018 146.897369 
L 186.519535 146.312923 
L 187.656981 146.840376 
L 187.980256 147.641946 
L 188.835764 148.206815 
L 189.565084 148.389499 
L 190.908984 147.713979 
L 192.314329 147.784379 
L 193.321437 148.988139 
L 193.620612 148.849505 
L 193.494231 149.955429 
L 194.090643 152.074284 
L 193.388261 152.767573 
L 192.263899 155.984681 
L 192.872073 158.333149 
L 193.378594 158.613346 
L 193.324095 159.727975 
L 192.45013 159.599213 
L 192.372739 159.221092 
L 192.007122 159.777345 
L 190.091495 159.319239 
L 188.877868 159.495077 
L 190.297352 159.519262 
L 187.202642 159.545932 
L 186.990576 159.692827 
L 187.751632 159.749327 
L 185.628809 160.03061 
L 181.545218 161.642424 
L 181.772715 157.905002 
L 180.912874 157.556368 
L 180.681202 156.898195 
L 178.879002 156.179909 
L 179.639105 154.99563 
L 179.174732 153.522198 
L 179.816732 153.539045 
L 180.376038 152.224098 
L 179.755684 151.765576 
L 179.803932 151.251919 
L 181.202873 151.39608 
L 181.106388 150.801461 
L 180.524279 150.422507 
L 180.95954 149.680908 
L 180.662157 148.81727 
L 180.05593 148.598622 
L 180.010044 147.37157 
L 180.424473 146.894969 
" style="fill:none;stroke:#000000;stroke-linecap:square;stroke-width:0.5;"/>
   </g>
   <g id="line2d_161"/>
   <g id="line2d_162">
    <path clip-path="url(#p26954cea68)" d="M 284.442792 196.200554 
L 278.363318 196.605689 
L 278.271177 197.465461 
L 276.76854 198.617148 
L 277.502062 200.4279 
L 277.53023 202.864657 
L 276.629938 205.154321 
L 277.029857 206.156667 
L 278.899564 207.930334 
L 280.266247 208.283651 
L 280.340083 207.726231 
L 281.278 207.610149 
L 281.212703 211.43983 
L 280.490084 210.787307 
L 279.052372 211.057757 
L 276.807494 208.208256 
L 274.023546 206.976574 
L 272.852535 205.074937 
L 271.810404 206.09241 
L 269.35348 205.645153 
L 267.296631 204.69615 
L 267.113394 203.513004 
L 264.382961 203.862708 
L 264.346638 203.050336 
L 263.162565 202.231263 
L 262.770853 202.59808 
L 259.050968 202.429957 
L 258.235576 202.7524 
L 258.223187 200.167182 
L 256.897473 197.91183 
L 257.161702 195.812179 
L 256.807142 192.053769 
L 253.473173 191.800075 
L 253.423094 190.839509 
L 251.418444 190.932294 
L 250.450336 191.312828 
L 249.931692 193.48032 
L 245.098361 193.615894 
L 243.487642 191.335695 
L 242.7128 188.450314 
L 241.998462 187.74103 
L 232.947633 187.339258 
L 231.679037 187.740225 
L 230.900508 187.095944 
L 231.650958 186.951501 
L 231.515653 185.356062 
L 232.496409 184.52096 
L 233.294474 184.198106 
L 234.019867 184.807208 
L 234.658837 184.52329 
L 234.80927 183.843336 
L 236.491325 183.477591 
L 236.629313 184.844515 
L 237.412477 184.990957 
L 240.816564 182.186503 
L 241.424632 180.298674 
L 241.419141 178.102254 
L 243.204699 175.663295 
L 245.569461 173.923289 
L 246.440237 167.269363 
L 247.947474 163.882474 
L 247.797175 161.390963 
L 249.177941 159.691469 
L 250.891026 159.035159 
L 253.333146 160.708922 
L 258.649347 161.437161 
L 259.9316 159.814043 
L 261.545222 159.926167 
L 264.210127 158.935013 
L 266.439563 158.926975 
L 267.828496 157.924753 
L 271.804349 158.458195 
L 272.714625 158.042898 
L 273.615606 158.253955 
L 276.104284 160.290688 
L 277.81311 159.790484 
L 279.41918 160.051035 
L 280.214391 159.393585 
L 280.890756 159.437879 
L 284.925352 162.52244 
L 284.367401 165.443528 
L 286.162386 166.259368 
L 281.763103 170.165688 
L 280.911958 172.841658 
L 280.30157 173.011076 
L 279.750318 174.000014 
L 279.878515 174.312966 
L 280.78118 173.938679 
L 280.564339 176.440701 
L 279.407708 177.270522 
L 278.797664 177.153214 
L 278.209254 179.404029 
L 279.417597 181.146475 
L 279.376766 183.360533 
L 279.998233 185.134441 
L 279.738899 186.405947 
L 280.662547 188.804516 
L 280.446439 190.490214 
L 282.652719 192.70869 
L 284.442792 196.200554 
" style="fill:none;stroke:#000000;stroke-linecap:square;stroke-width:0.5;"/>
   </g>
   <g id="line2d_163">
    <path clip-path="url(#p26954cea68)" d="M 228.111239 182.369608 
L 229.071897 181.380586 
L 230.038889 181.76144 
L 230.178901 180.883481 
L 229.158031 179.653795 
L 229.332119 178.407536 
L 231.502504 178.394132 
L 231.465591 177.378424 
L 231.87566 177.122979 
L 232.918175 178.364681 
L 234.15036 178.584674 
L 234.852958 177.937553 
L 235.534121 178.841117 
L 236.558898 177.319032 
L 236.796166 173.962204 
L 235.183501 173.017029 
L 235.418141 171.599934 
L 236.401681 170.909369 
L 236.679693 170.201707 
L 236.024907 169.010116 
L 233.501996 169.333402 
L 233.703289 167.013806 
L 237.072237 166.887252 
L 237.926302 167.356833 
L 240.153656 167.586066 
L 241.001867 168.192331 
L 241.057222 167.084372 
L 242.098067 165.203763 
L 242.480069 163.457502 
L 244.713972 162.951746 
L 246.682857 163.395086 
L 247.611313 163.104654 
L 247.947474 163.882474 
L 246.440237 167.269363 
L 245.569461 173.923289 
L 243.204699 175.663295 
L 241.419141 178.102254 
L 241.235637 181.414686 
L 240.502625 182.614167 
L 237.412477 184.990957 
L 236.629313 184.844515 
L 236.491325 183.477591 
L 234.80927 183.843336 
L 234.658837 184.52329 
L 234.019867 184.807208 
L 232.414758 183.739615 
L 230.396082 185.164093 
L 228.111239 182.369608 
" style="fill:none;stroke:#000000;stroke-linecap:square;stroke-width:0.5;"/>
   </g>
   <g id="line2d_164"/>
   <g id="line2d_165"/>
   <g id="line2d_166"/>
   <g id="line2d_167"/>
   <g id="line2d_168"/>
   <g id="line2d_169">
    <path clip-path="url(#p26954cea68)" d="M 263.203282 117.685813 
L 263.17527 128.922639 
L 260.632557 129.263508 
L 260.133325 129.8081 
L 260.128776 130.878063 
L 258.532007 132.79271 
L 258.985953 133.854553 
L 257.739214 134.998662 
L 258.089494 136.293314 
L 256.932161 137.906954 
L 258.44771 138.142517 
L 259.138064 141.106098 
L 260.100637 141.685661 
L 259.918538 142.883226 
L 258.856553 142.749959 
L 256.778065 143.876007 
L 256.524102 144.863498 
L 252.725672 148.262129 
L 248.867755 148.974352 
L 248.674034 149.259119 
L 249.288901 149.709135 
L 247.788053 151.40651 
L 245.288126 151.680962 
L 242.948373 152.914464 
L 242.304216 152.114105 
L 240.729959 153.110764 
L 239.457578 153.11394 
L 239.642991 152.418327 
L 238.492015 150.451614 
L 235.490591 147.604801 
L 236.188852 146.819608 
L 239.922646 146.575891 
L 238.534444 144.947921 
L 238.399418 141.772657 
L 237.779954 140.051101 
L 236.763508 138.715132 
L 235.71804 138.622534 
L 234.519708 137.00861 
L 234.106771 135.208573 
L 236.516759 131.316691 
L 239.442262 127.882269 
L 240.136219 119.288175 
L 240.744826 117.940157 
L 238.665911 114.694759 
L 238.128785 110.354826 
L 240.80065 108.6867 
L 263.203282 117.685813 
" style="fill:none;stroke:#000000;stroke-linecap:square;stroke-width:0.5;"/>
   </g>
   <g id="line2d_170">
    <path clip-path="url(#p26954cea68)" d="M 263.698073 148.873602 
L 264.125655 149.88304 
L 265.80303 150.208738 
L 266.846687 151.062694 
L 267.08361 152.106098 
L 270.383281 154.134784 
L 270.852691 155.691651 
L 272.805031 156.56897 
L 273.615606 158.253955 
L 272.580472 158.043133 
L 271.804349 158.458195 
L 267.828496 157.924753 
L 266.439563 158.926975 
L 264.210127 158.935013 
L 261.545222 159.926167 
L 259.9316 159.814043 
L 258.649347 161.437161 
L 253.333146 160.708922 
L 252.400938 159.762418 
L 250.376249 159.034516 
L 249.177941 159.691469 
L 247.870434 161.156941 
L 247.914991 163.427239 
L 247.541619 163.056662 
L 246.682857 163.395086 
L 244.859439 162.941954 
L 242.480069 163.457502 
L 241.333647 166.661179 
L 241.012832 165.020846 
L 238.52513 162.698051 
L 238.352614 161.524285 
L 237.474077 160.725725 
L 237.030282 158.993533 
L 237.172387 157.482873 
L 236.708229 156.923737 
L 237.495215 156.403936 
L 239.457578 153.11394 
L 240.729959 153.110764 
L 242.304216 152.114105 
L 242.948373 152.914464 
L 245.288126 151.680962 
L 247.788053 151.40651 
L 249.288901 149.709135 
L 248.680228 149.115246 
L 252.725672 148.262129 
L 253.53978 147.744524 
L 257.557285 143.325027 
L 258.856553 142.749959 
L 259.918538 142.883226 
L 262.218109 145.763184 
L 261.695028 147.758436 
L 261.897722 148.57049 
L 263.698073 148.873602 
" style="fill:none;stroke:#000000;stroke-linecap:square;stroke-width:0.5;"/>
   </g>
   <g id="line2d_171"/>
   <g id="line2d_172"/>
   <g id="line2d_173"/>
   <g id="line2d_174"/>
   <g id="line2d_175"/>
   <g id="line2d_176"/>
   <g id="line2d_177"/>
   <g id="line2d_178"/>
   <g id="line2d_179"/>
   <g id="line2d_180"/>
   <g id="line2d_181"/>
   <g id="line2d_182"/>
   <g id="line2d_183"/>
   <g id="line2d_184"/>
   <g id="line2d_185"/>
   <g id="line2d_186"/>
   <g id="line2d_187"/>
   <g id="line2d_188"/>
   <g id="line2d_189"/>
   <g id="line2d_190"/>
   <g id="line2d_191"/>
   <g id="line2d_192"/>
   <g id="line2d_193">
    <path clip-path="url(#p26954cea68)" d="M 221.563039 160.600478 
L 222.678552 157.655039 
L 224.663841 155.484852 
L 225.589404 154.864641 
L 226.45348 155.113648 
L 226.770039 154.668591 
L 228.386066 156.19418 
L 229.991307 154.454237 
L 229.748968 154.06111 
L 230.951496 151.429882 
L 231.391523 150.606971 
L 232.373179 149.998606 
L 232.755697 148.404518 
L 233.456207 148.019794 
L 233.641691 146.778556 
L 234.764311 144.532898 
L 235.501601 143.604404 
L 237.021789 142.785998 
L 237.179855 141.023611 
L 236.068514 140.462227 
L 235.71804 138.622534 
L 236.763508 138.715132 
L 238.399418 141.772657 
L 238.534444 144.947921 
L 239.922646 146.575891 
L 236.188852 146.819608 
L 235.490591 147.604801 
L 238.492015 150.451614 
L 239.664292 152.547684 
L 237.5607 156.307589 
L 236.683035 157.04815 
L 237.172387 157.482873 
L 237.415311 160.56459 
L 238.352614 161.524285 
L 238.348736 162.392099 
L 241.012832 165.020846 
L 241.207156 168.067196 
L 237.072237 166.887252 
L 229.212534 166.695373 
L 228.67138 166.705974 
L 228.620719 167.039941 
L 225.172596 167.063212 
L 224.716973 166.723234 
L 225.00758 164.371769 
L 224.095447 162.977185 
L 224.561569 162.833904 
L 224.432522 162.323331 
L 223.911518 162.305039 
L 223.763342 162.668404 
L 222.685966 162.254995 
L 222.478901 161.095721 
L 221.826929 160.80897 
L 221.609887 161.175439 
L 221.563039 160.600478 
" style="fill:none;stroke:#000000;stroke-linecap:square;stroke-width:0.5;"/>
   </g>
   <g id="line2d_194"/>
   <g id="line2d_195"/>
   <g id="line2d_196">
    <path clip-path="url(#p26954cea68)" d="M 283.783739 179.384966 
L 283.38434 180.7378 
L 284.540103 181.085293 
L 284.573424 181.921395 
L 281.777553 184.796036 
L 279.998233 185.134441 
L 278.895777 179.856007 
L 279.955988 180.464711 
L 280.96008 180.449493 
L 281.517647 180.239515 
L 281.721366 179.168646 
L 283.783739 179.384966 
" style="fill:none;stroke:#000000;stroke-linecap:square;stroke-width:0.5;"/>
   </g>
   <g id="line2d_197">
    <path clip-path="url(#p26954cea68)" d="M 202.504628 145.01756 
L 199.541906 144.575455 
L 198.732836 145.18804 
L 193.288809 144.974251 
L 193.078523 146.012501 
L 193.395995 146.502318 
L 193.445537 148.991995 
L 192.314329 147.784379 
L 190.908984 147.713979 
L 189.565084 148.389499 
L 188.835764 148.206815 
L 187.980256 147.641946 
L 187.656981 146.840376 
L 186.601916 146.350076 
L 186.684287 144.767851 
L 187.282639 143.919728 
L 187.188296 142.749655 
L 189.325479 141.467642 
L 189.196555 140.596022 
L 189.826084 140.290664 
L 189.573814 139.438224 
L 190.014909 138.957001 
L 190.520367 138.714488 
L 191.560926 139.303857 
L 192.12058 139.055791 
L 192.252168 138.070277 
L 192.989565 138.105916 
L 193.890616 136.597002 
L 195.061571 136.764613 
L 195.408113 136.009736 
L 198.63578 134.40964 
L 200.818185 134.830794 
L 200.685819 135.924108 
L 201.34091 137.303113 
L 203.247231 138.903797 
L 202.72192 138.887075 
L 202.719025 139.728422 
L 204.145859 140.777171 
L 205.403514 140.56431 
L 205.743943 141.016904 
L 205.365371 141.487609 
L 206.183214 142.672118 
L 205.931085 143.204984 
L 205.172491 143.913044 
L 203.804468 143.847453 
L 202.504628 145.01756 
" style="fill:none;stroke:#000000;stroke-linecap:square;stroke-width:0.5;"/>
   </g>
   <g id="line2d_198">
    <path clip-path="url(#p26954cea68)" d="M 269.602675 32.020217 
L 269.68821 33.656129 
L 269.039938 34.266428 
L 266.999886 35.371199 
L 264.710475 34.71269 
L 260.081311 37.40685 
L 260.336394 35.387342 
L 258.423753 33.267814 
L 258.942434 32.46559 
" style="fill:none;stroke:#000000;stroke-linecap:square;stroke-width:0.5;"/>
   </g>
   <g id="line2d_199">
    <path clip-path="url(#p26954cea68)" d="M 59.91443 178.758562 
L 60.536549 178.56061 
L 61.08905 179.613081 
L 60.023008 180.380816 
L 60.482229 180.742541 
L 61.585503 179.999928 
L 61.844878 180.676246 
L 60.839931 181.427448 
L 60.185959 183.647501 
L 62.583543 181.019979 
L 63.173956 181.078587 
L 62.756236 182.182081 
L 66.605862 180.5758 
L 75.219633 182.119372 
L 81.733811 181.725284 
L 87.859461 184.239994 
L 93.008692 187.758491 
L 95.262101 188.215953 
L 99.197306 188.10664 
L 100.363714 189.379415 
L 101.94657 194.533758 
L 101.355172 198.013144 
L 99.019462 201.738574 
L 97.918537 202.305576 
L 95.997034 205.021259 
L 93.926915 206.325649 
L 92.301787 208.395472 
L 92.289194 207.907981 
L 90.995911 210.821635 
L 88.807177 213.564184 
L 87.766198 214.084704 
L 86.990035 213.089454 
L 86.336963 213.734765 
L 86.694901 214.073871 
L 85.366504 216.551268 
L 85.535296 218.062062 
L 85.967775 217.949195 
L 85.488518 220.13874 
L 86.219442 224.140053 
L 84.900504 228.930678 
L 85.101319 230.730679 
L 83.047133 233.090705 
L 82.494177 237.944067 
L 77.512114 245.292291 
L 77.313938 248.223809 
L 74.223891 250.246229 
L 73.000976 251.634588 
L 72.723873 253.14429 
L 68.563507 254.413998 
L 67.657169 253.712284 
L 67.332651 254.866781 
L 64.160431 256.240473 
L 65.21615 255.557942 
L 64.315674 255.422916 
L 60.604897 257.110592 
L 60.934025 257.908314 
" style="fill:none;stroke:#000000;stroke-linecap:square;stroke-width:0.5;"/>
   </g>
   <g id="line2d_200"/>
   <g id="line2d_201">
    <path clip-path="url(#p26954cea68)" d="M 267.022876 222.698582 
L 269.788452 228.431402 
L 272.911935 230.693514 
L 273.232125 231.93985 
L 274.546211 232.331514 
L 274.451203 234.017067 
L 275.539412 235.79144 
L 278.774328 237.195005 
L 278.828575 237.932151 
L 279.873436 238.717791 
L 276.161712 239.627437 
L 274.731152 241.002008 
L 272.623049 241.840579 
L 271.844618 243.881191 
L 270.492028 244.847694 
L 269.005664 244.992639 
L 267.581735 247.939233 
L 264.242067 247.357252 
L 260.759703 245.183806 
L 259.973065 245.594019 
L 259.157015 247.669989 
L 256.558448 249.538432 
L 253.690961 248.952747 
L 253.526567 247.67346 
L 253.996127 246.023898 
L 252.974551 243.362286 
L 251.712513 241.974045 
L 251.703778 233.311775 
L 254.499074 233.706831 
L 254.507923 222.657109 
L 260.965992 222.511975 
L 262.081105 224.030469 
L 263.984664 222.977768 
L 267.022876 222.698582 
" style="fill:none;stroke:#000000;stroke-linecap:square;stroke-width:0.5;"/>
   </g>
   <g id="line2d_202">
    <path clip-path="url(#p26954cea68)" d="M 249.062179 31.532149 
L 248.577638 31.414621 
L 247.457746 33.600759 
L 247.737887 35.099293 
L 247.437117 35.580438 
L 245.113484 34.421507 
L 244.269092 32.188824 
" style="fill:none;stroke:#000000;stroke-linecap:square;stroke-width:0.5;"/>
   </g>
   <g id="line2d_203"/>
   <g id="line2d_204"/>
   <g id="line2d_205">
    <path clip-path="url(#p26954cea68)" d="M 204.288461 157.084792 
L 204.67215 156.888991 
L 204.061895 155.144128 
L 204.232963 149.960059 
L 203.703145 149.172462 
L 203.56564 147.558433 
L 202.207045 146.638688 
L 202.225613 145.742816 
L 202.504628 145.01756 
L 203.804468 143.847453 
L 205.172491 143.913044 
L 206.119213 142.819699 
L 206.125975 141.83327 
L 207.212665 141.40339 
L 209.169546 143.157621 
L 208.902835 143.936303 
L 209.762251 145.948779 
L 207.805874 149.851328 
L 207.137263 149.946237 
L 206.968106 156.692405 
L 204.288461 157.084792 
" style="fill:none;stroke:#000000;stroke-linecap:square;stroke-width:0.5;"/>
   </g>
   <g id="line2d_206"/>
   <g id="line2d_207"/>
   <g id="line2d_208"/>
   <g id="line2d_209"/>
   <g id="line2d_210"/>
   <g id="line2d_211"/>
   <g id="line2d_212"/>
   <g id="line2d_213"/>
   <g id="line2d_214"/>
   <g id="line2d_215"/>
   <g id="line2d_216">
    <path clip-path="url(#p26954cea68)" d="M 263.162565 202.231263 
L 263.152171 208.205294 
L 257.372715 207.720019 
L 257.548866 217.018385 
L 257.866493 218.022061 
L 261.438166 221.507016 
L 253.861547 221.706152 
L 248.86506 220.530801 
L 247.327574 219.215464 
L 235.596098 218.215108 
L 233.2022 216.813693 
L 231.766074 217.394738 
L 229.686334 217.360136 
L 229.706456 213.471926 
L 230.390286 212.645262 
L 231.772147 207.125632 
L 232.895322 205.416421 
L 234.497759 204.195018 
L 235.150507 200.96294 
L 232.935189 195.618475 
L 233.873891 194.714619 
L 233.924835 193.892614 
L 232.480178 190.196722 
L 231.130267 187.953655 
L 233.418818 187.401715 
L 241.998462 187.74103 
L 242.7128 188.450314 
L 243.487642 191.335695 
L 245.098361 193.615894 
L 249.931692 193.48032 
L 250.450336 191.312828 
L 251.418444 190.932294 
L 253.423094 190.839509 
L 253.473173 191.800075 
L 256.807142 192.053769 
L 257.161702 195.812179 
L 256.897473 197.91183 
L 258.223187 200.167182 
L 258.083867 202.541068 
L 262.770853 202.59808 
L 263.162565 202.231263 
" style="fill:none;stroke:#000000;stroke-linecap:square;stroke-width:0.5;"/>
   </g>
   <g id="line2d_217">
    <path clip-path="url(#p26954cea68)" d="M 221.615312 64.945194 
L 220.684604 66.671506 
L 221.04037 67.215741 
L 220.784045 69.405627 
L 221.155157 71.618588 
L 220.780353 73.402073 
L 218.93915 75.968155 
L 218.904809 76.868978 
L 219.4857 78.840488 
L 220.444943 79.512393 
L 221.001704 81.267735 
L 222.797197 82.743847 
L 224.000498 88.922581 
L 223.471595 89.355136 
L 224.728395 92.346567 
L 225.010065 96.833347 
L 224.581674 98.32158 
L 224.926587 100.500321 
L 223.755909 102.107426 
L 225.225544 104.503857 
L 225.875646 106.711973 
L 229.080434 107.276267 
L 230.265808 109.572819 
L 218.858453 118.096033 
L 214.741204 122.204903 
L 208.328473 123.677216 
L 207.957239 123.305554 
L 208.328231 122.57445 
L 208.017209 121.356275 
L 204.611093 120.060509 
L 203.159673 118.705425 
L 203.109745 117.899293 
L 189.106189 106.92089 
L 178.67747 98.686887 
L 178.68993 94.192402 
L 179.732789 93.330075 
L 182.555549 91.448765 
L 183.82575 91.702315 
L 184.215022 90.899191 
L 186.788181 90.601844 
L 187.984386 88.977176 
L 191.215999 87.451279 
L 190.802913 86.646381 
L 190.964679 84.98127 
L 192.824807 84.554279 
L 193.205907 83.740835 
L 197.254123 83.719476 
L 197.218544 82.924108 
L 197.65029 82.476815 
L 196.700613 81.361537 
L 196.134326 79.474728 
L 195.846669 74.31313 
L 194.798515 72.992734 
L 196.14808 72.733486 
L 199.229185 70.244625 
L 200.162146 70.355299 
L 201.052058 69.110803 
L 203.385686 67.727831 
L 206.688312 67.334991 
L 209.6247 66.074945 
L 212.055508 65.938546 
L 213.39232 66.809328 
L 216.364451 64.883894 
L 217.468327 65.434968 
L 218.247848 65.171553 
L 218.162108 64.695957 
L 219.936222 65.441345 
L 221.615312 64.945194 
" style="fill:none;stroke:#000000;stroke-linecap:square;stroke-width:0.5;"/>
   </g>
   <g id="line2d_218">
    <path clip-path="url(#p26954cea68)" d="M 249.936025 38.132001 
L 249.764938 36.744509 
L 250.939441 34.102552 
L 251.175954 34.85976 
L 251.946029 34.275578 
L 253.233889 35.679894 
L 253.138524 39.963087 
L 253.759289 41.371469 
L 254.392917 41.293031 
L 254.668649 42.501557 
L 253.613017 45.119677 
L 252.638755 46.02665 
L 252.838963 46.759302 
L 252.346179 47.564971 
L 249.880245 44.893381 
L 250.260146 44.793727 
L 249.922485 43.718479 
L 250.583919 39.015198 
L 250.589079 38.32206 
L 249.936025 38.132001 
" style="fill:none;stroke:#000000;stroke-linecap:square;stroke-width:0.5;"/>
   </g>
   <g id="line2d_219"/>
   <g id="line2d_220"/>
   <g id="line2d_221"/>
   <g id="line2d_222"/>
   <g id="line2d_223"/>
   <g id="line2d_224"/>
   <g id="line2d_225"/>
   <g id="line2d_226"/>
   <g id="patch_3">
    <path d="M 58.825 313.95625 
L 58.825 31.04375 
" style="fill:none;stroke:#000000;stroke-linecap:square;stroke-linejoin:miter;stroke-width:0.8;"/>
   </g>
   <g id="patch_4">
    <path d="M 341.7375 313.95625 
L 341.7375 31.04375 
" style="fill:none;stroke:#000000;stroke-linecap:square;stroke-linejoin:miter;stroke-width:0.8;"/>
   </g>
   <g id="patch_5">
    <path d="M 58.825 313.95625 
L 341.7375 313.95625 
" style="fill:none;stroke:#000000;stroke-linecap:square;stroke-linejoin:miter;stroke-width:0.8;"/>
   </g>
   <g id="patch_6">
    <path d="M 58.825 31.04375 
L 341.7375 31.04375 
" style="fill:none;stroke:#000000;stroke-linecap:square;stroke-linejoin:miter;stroke-width:0.8;"/>
   </g>
   <g id="text_21">
    <!-- UV face 0 -->
    <defs>
     <path id="DejaVuSans-32"/>
     <path d="M 37.109375 75.984375 
L 37.109375 68.5 
L 28.515625 68.5 
Q 23.6875 68.5 21.796875 66.546875 
Q 19.921875 64.59375 19.921875 59.515625 
L 19.921875 54.6875 
L 34.71875 54.6875 
L 34.71875 47.703125 
L 19.921875 47.703125 
L 19.921875 0 
L 10.890625 0 
L 10.890625 47.703125 
L 2.296875 47.703125 
L 2.296875 54.6875 
L 10.890625 54.6875 
L 10.890625 58.5 
Q 10.890625 67.625 15.140625 71.796875 
Q 19.390625 75.984375 28.609375 75.984375 
z
" id="DejaVuSans-102"/>
     <path d="M 34.28125 27.484375 
Q 23.390625 27.484375 19.1875 25 
Q 14.984375 22.515625 14.984375 16.5 
Q 14.984375 11.71875 18.140625 8.90625 
Q 21.296875 6.109375 26.703125 6.109375 
Q 34.1875 6.109375 38.703125 11.40625 
Q 43.21875 16.703125 43.21875 25.484375 
L 43.21875 27.484375 
z
M 52.203125 31.203125 
L 52.203125 0 
L 43.21875 0 
L 43.21875 8.296875 
Q 40.140625 3.328125 35.546875 0.953125 
Q 30.953125 -1.421875 24.3125 -1.421875 
Q 15.921875 -1.421875 10.953125 3.296875 
Q 6 8.015625 6 15.921875 
Q 6 25.140625 12.171875 29.828125 
Q 18.359375 34.515625 30.609375 34.515625 
L 43.21875 34.515625 
L 43.21875 35.40625 
Q 43.21875 41.609375 39.140625 45 
Q 35.0625 48.390625 27.6875 48.390625 
Q 23 48.390625 18.546875 47.265625 
Q 14.109375 46.140625 10.015625 43.890625 
L 10.015625 52.203125 
Q 14.9375 54.109375 19.578125 55.046875 
Q 24.21875 56 28.609375 56 
Q 40.484375 56 46.34375 49.84375 
Q 52.203125 43.703125 52.203125 31.203125 
z
" id="DejaVuSans-97"/>
     <path d="M 48.78125 52.59375 
L 48.78125 44.1875 
Q 44.96875 46.296875 41.140625 47.34375 
Q 37.3125 48.390625 33.40625 48.390625 
Q 24.65625 48.390625 19.8125 42.84375 
Q 14.984375 37.3125 14.984375 27.296875 
Q 14.984375 17.28125 19.8125 11.734375 
Q 24.65625 6.203125 33.40625 6.203125 
Q 37.3125 6.203125 41.140625 7.25 
Q 44.96875 8.296875 48.78125 10.40625 
L 48.78125 2.09375 
Q 45.015625 0.34375 40.984375 -0.53125 
Q 36.96875 -1.421875 32.421875 -1.421875 
Q 20.0625 -1.421875 12.78125 6.34375 
Q 5.515625 14.109375 5.515625 27.296875 
Q 5.515625 40.671875 12.859375 48.328125 
Q 20.21875 56 33.015625 56 
Q 37.15625 56 41.109375 55.140625 
Q 45.0625 54.296875 48.78125 52.59375 
z
" id="DejaVuSans-99"/>
     <path d="M 56.203125 29.59375 
L 56.203125 25.203125 
L 14.890625 25.203125 
Q 15.484375 15.921875 20.484375 11.0625 
Q 25.484375 6.203125 34.421875 6.203125 
Q 39.59375 6.203125 44.453125 7.46875 
Q 49.3125 8.734375 54.109375 11.28125 
L 54.109375 2.78125 
Q 49.265625 0.734375 44.1875 -0.34375 
Q 39.109375 -1.421875 33.890625 -1.421875 
Q 20.796875 -1.421875 13.15625 6.1875 
Q 5.515625 13.8125 5.515625 26.8125 
Q 5.515625 40.234375 12.765625 48.109375 
Q 20.015625 56 32.328125 56 
Q 43.359375 56 49.78125 48.890625 
Q 56.203125 41.796875 56.203125 29.59375 
z
M 47.21875 32.234375 
Q 47.125 39.59375 43.09375 43.984375 
Q 39.0625 48.390625 32.421875 48.390625 
Q 24.90625 48.390625 20.390625 44.140625 
Q 15.875 39.890625 15.1875 32.171875 
z
" id="DejaVuSans-101"/>
    </defs>
    <g transform="translate(171.374375 25.04375)scale(0.12 -0.12)">
     <use xlink:href="#DejaVuSans-85"/>
     <use x="73.193359" xlink:href="#DejaVuSans-86"/>
     <use x="141.601562" xlink:href="#DejaVuSans-32"/>
     <use x="173.388672" xlink:href="#DejaVuSans-102"/>
     <use x="208.59375" xlink:href="#DejaVuSans-97"/>
     <use x="269.873047" xlink:href="#DejaVuSans-99"/>
     <use x="324.853516" xlink:href="#DejaVuSans-101"/>
     <use x="386.376953" xlink:href="#DejaVuSans-32"/>
     <use x="418.164062" xlink:href="#DejaVuSans-48"/>
    </g>
   </g>
  </g>
 </g>
 <defs>
  <clipPath id="p26954cea68">
   <rect height="282.9125" width="282.9125" x="58.825" y="31.04375"/>
  </clipPath>
 </defs>
</svg>
