<?xml version="1.0" encoding="utf-8" standalone="no"?>
<!DOCTYPE svg PUBLIC "-//W3C//DTD SVG 1.1//EN"
  "http://www.w3.org/Graphics/SVG/1.1/DTD/svg11.dtd">
<!-- Created with matplotlib (https://matplotlib.org/) -->
<svg height="360pt" version="1.1" viewBox="0 0 360 360" width="360pt" xmlns="http://www.w3.org/2000/svg" xmlns:xlink="http://www.w3.org/1999/xlink">
 <defs>
  <style type="text/css">
*{stroke-linecap:butt;stroke-linejoin:round;}
  </style>
 </defs>
 <g id="figure_1">
  <g id="patch_1">
   <path d="M 0 360 
L 360 360 
L 360 0 
L 0 0 
z
" style="fill:#ffffff;"/>
  </g>
  <g id="axes_1">
   <g id="patch_2">
    <path d="M 48.76875 318.2 
L 340.16875 318.2 
L 340.16875 26.8 
L 48.76875 26.8 
z
" style="fill:#ffffff;"/>
   </g>
   <g id="matplotlib.axis_1">
    <g id="xtick_1">
     <g id="line2d_1">
      <defs>
       <path d="M 0 0 
L 0 3.5 
" id="m82ade81365" style="stroke:#000000;stroke-width:0.8;"/>
      </defs>
      <g>
       <use style="stroke:#000000;stroke-width:0.8;" x="48.76875" xlink:href="#m82ade81365" y="318.2"/>
      </g>
     </g>
     <g id="text_1">
      <!-- 0.0 -->
      <defs>
       <path d="M 31.78125 66.40625 
Q 24.171875 66.40625 20.328125 58.90625 
Q 16.5 51.421875 16.5 36.375 
Q 16.5 21.390625 20.328125 13.890625 
Q 24.171875 6.390625 31.78125 6.390625 
Q 39.453125 6.390625 43.28125 13.890625 
Q 47.125 21.390625 47.125 36.375 
Q 47.125 51.421875 43.28125 58.90625 
Q 39.453125 66.40625 31.78125 66.40625 
z
M 31.78125 74.21875 
Q 44.046875 74.21875 50.515625 64.515625 
Q 56.984375 54.828125 56.984375 36.375 
Q 56.984375 17.96875 50.515625 8.265625 
Q 44.046875 -1.421875 31.78125 -1.421875 
Q 19.53125 -1.421875 13.0625 8.265625 
Q 6.59375 17.96875 6.59375 36.375 
Q 6.59375 54.828125 13.0625 64.515625 
Q 19.53125 74.21875 31.78125 74.21875 
z
" id="DejaVuSans-48"/>
       <path d="M 10.6875 12.40625 
L 21 12.40625 
L 21 0 
L 10.6875 0 
z
" id="DejaVuSans-46"/>
      </defs>
      <g transform="translate(40.817187 332.798438)scale(0.1 -0.1)">
       <use xlink:href="#DejaVuSans-48"/>
       <use x="63.623047" xlink:href="#DejaVuSans-46"/>
       <use x="95.410156" xlink:href="#DejaVuSans-48"/>
      </g>
     </g>
    </g>
    <g id="xtick_2">
     <g id="line2d_2">
      <g>
       <use style="stroke:#000000;stroke-width:0.8;" x="107.04875" xlink:href="#m82ade81365" y="318.2"/>
      </g>
     </g>
     <g id="text_2">
      <!-- 0.2 -->
      <defs>
       <path d="M 19.1875 8.296875 
L 53.609375 8.296875 
L 53.609375 0 
L 7.328125 0 
L 7.328125 8.296875 
Q 12.9375 14.109375 22.625 23.890625 
Q 32.328125 33.6875 34.8125 36.53125 
Q 39.546875 41.84375 41.421875 45.53125 
Q 43.3125 49.21875 43.3125 52.78125 
Q 43.3125 58.59375 39.234375 62.25 
Q 35.15625 65.921875 28.609375 65.921875 
Q 23.96875 65.921875 18.8125 64.3125 
Q 13.671875 62.703125 7.8125 59.421875 
L 7.8125 69.390625 
Q 13.765625 71.78125 18.9375 73 
Q 24.125 74.21875 28.421875 74.21875 
Q 39.75 74.21875 46.484375 68.546875 
Q 53.21875 62.890625 53.21875 53.421875 
Q 53.21875 48.921875 51.53125 44.890625 
Q 49.859375 40.875 45.40625 35.40625 
Q 44.1875 33.984375 37.640625 27.21875 
Q 31.109375 20.453125 19.1875 8.296875 
z
" id="DejaVuSans-50"/>
      </defs>
      <g transform="translate(99.097187 332.798438)scale(0.1 -0.1)">
       <use xlink:href="#DejaVuSans-48"/>
       <use x="63.623047" xlink:href="#DejaVuSans-46"/>
       <use x="95.410156" xlink:href="#DejaVuSans-50"/>
      </g>
     </g>
    </g>
    <g id="xtick_3">
     <g id="line2d_3">
      <g>
       <use style="stroke:#000000;stroke-width:0.8;" x="165.32875" xlink:href="#m82ade81365" y="318.2"/>
      </g>
     </g>
     <g id="text_3">
      <!-- 0.4 -->
      <defs>
       <path d="M 37.796875 64.3125 
L 12.890625 25.390625 
L 37.796875 25.390625 
z
M 35.203125 72.90625 
L 47.609375 72.90625 
L 47.609375 25.390625 
L 58.015625 25.390625 
L 58.015625 17.1875 
L 47.609375 17.1875 
L 47.609375 0 
L 37.796875 0 
L 37.796875 17.1875 
L 4.890625 17.1875 
L 4.890625 26.703125 
z
" id="DejaVuSans-52"/>
      </defs>
      <g transform="translate(157.377187 332.798438)scale(0.1 -0.1)">
       <use xlink:href="#DejaVuSans-48"/>
       <use x="63.623047" xlink:href="#DejaVuSans-46"/>
       <use x="95.410156" xlink:href="#DejaVuSans-52"/>
      </g>
     </g>
    </g>
    <g id="xtick_4">
     <g id="line2d_4">
      <g>
       <use style="stroke:#000000;stroke-width:0.8;" x="223.60875" xlink:href="#m82ade81365" y="318.2"/>
      </g>
     </g>
     <g id="text_4">
      <!-- 0.6 -->
      <defs>
       <path d="M 33.015625 40.375 
Q 26.375 40.375 22.484375 35.828125 
Q 18.609375 31.296875 18.609375 23.390625 
Q 18.609375 15.53125 22.484375 10.953125 
Q 26.375 6.390625 33.015625 6.390625 
Q 39.65625 6.390625 43.53125 10.953125 
Q 47.40625 15.53125 47.40625 23.390625 
Q 47.40625 31.296875 43.53125 35.828125 
Q 39.65625 40.375 33.015625 40.375 
z
M 52.59375 71.296875 
L 52.59375 62.3125 
Q 48.875 64.0625 45.09375 64.984375 
Q 41.3125 65.921875 37.59375 65.921875 
Q 27.828125 65.921875 22.671875 59.328125 
Q 17.53125 52.734375 16.796875 39.40625 
Q 19.671875 43.65625 24.015625 45.921875 
Q 28.375 48.1875 33.59375 48.1875 
Q 44.578125 48.1875 50.953125 41.515625 
Q 57.328125 34.859375 57.328125 23.390625 
Q 57.328125 12.15625 50.6875 5.359375 
Q 44.046875 -1.421875 33.015625 -1.421875 
Q 20.359375 -1.421875 13.671875 8.265625 
Q 6.984375 17.96875 6.984375 36.375 
Q 6.984375 53.65625 15.1875 63.9375 
Q 23.390625 74.21875 37.203125 74.21875 
Q 40.921875 74.21875 44.703125 73.484375 
Q 48.484375 72.75 52.59375 71.296875 
z
" id="DejaVuSans-54"/>
      </defs>
      <g transform="translate(215.657187 332.798438)scale(0.1 -0.1)">
       <use xlink:href="#DejaVuSans-48"/>
       <use x="63.623047" xlink:href="#DejaVuSans-46"/>
       <use x="95.410156" xlink:href="#DejaVuSans-54"/>
      </g>
     </g>
    </g>
    <g id="xtick_5">
     <g id="line2d_5">
      <g>
       <use style="stroke:#000000;stroke-width:0.8;" x="281.88875" xlink:href="#m82ade81365" y="318.2"/>
      </g>
     </g>
     <g id="text_5">
      <!-- 0.8 -->
      <defs>
       <path d="M 31.78125 34.625 
Q 24.75 34.625 20.71875 30.859375 
Q 16.703125 27.09375 16.703125 20.515625 
Q 16.703125 13.921875 20.71875 10.15625 
Q 24.75 6.390625 31.78125 6.390625 
Q 38.8125 6.390625 42.859375 10.171875 
Q 46.921875 13.96875 46.921875 20.515625 
Q 46.921875 27.09375 42.890625 30.859375 
Q 38.875 34.625 31.78125 34.625 
z
M 21.921875 38.8125 
Q 15.578125 40.375 12.03125 44.71875 
Q 8.5 49.078125 8.5 55.328125 
Q 8.5 64.0625 14.71875 69.140625 
Q 20.953125 74.21875 31.78125 74.21875 
Q 42.671875 74.21875 48.875 69.140625 
Q 55.078125 64.0625 55.078125 55.328125 
Q 55.078125 49.078125 51.53125 44.71875 
Q 48 40.375 41.703125 38.8125 
Q 48.828125 37.15625 52.796875 32.3125 
Q 56.78125 27.484375 56.78125 20.515625 
Q 56.78125 9.90625 50.3125 4.234375 
Q 43.84375 -1.421875 31.78125 -1.421875 
Q 19.734375 -1.421875 13.25 4.234375 
Q 6.78125 9.90625 6.78125 20.515625 
Q 6.78125 27.484375 10.78125 32.3125 
Q 14.796875 37.15625 21.921875 38.8125 
z
M 18.3125 54.390625 
Q 18.3125 48.734375 21.84375 45.5625 
Q 25.390625 42.390625 31.78125 42.390625 
Q 38.140625 42.390625 41.71875 45.5625 
Q 45.3125 48.734375 45.3125 54.390625 
Q 45.3125 60.0625 41.71875 63.234375 
Q 38.140625 66.40625 31.78125 66.40625 
Q 25.390625 66.40625 21.84375 63.234375 
Q 18.3125 60.0625 18.3125 54.390625 
z
" id="DejaVuSans-56"/>
      </defs>
      <g transform="translate(273.937187 332.798438)scale(0.1 -0.1)">
       <use xlink:href="#DejaVuSans-48"/>
       <use x="63.623047" xlink:href="#DejaVuSans-46"/>
       <use x="95.410156" xlink:href="#DejaVuSans-56"/>
      </g>
     </g>
    </g>
    <g id="xtick_6">
     <g id="line2d_6">
      <g>
       <use style="stroke:#000000;stroke-width:0.8;" x="340.16875" xlink:href="#m82ade81365" y="318.2"/>
      </g>
     </g>
     <g id="text_6">
      <!-- 1.0 -->
      <defs>
       <path d="M 12.40625 8.296875 
L 28.515625 8.296875 
L 28.515625 63.921875 
L 10.984375 60.40625 
L 10.984375 69.390625 
L 28.421875 72.90625 
L 38.28125 72.90625 
L 38.28125 8.296875 
L 54.390625 8.296875 
L 54.390625 0 
L 12.40625 0 
z
" id="DejaVuSans-49"/>
      </defs>
      <g transform="translate(332.217187 332.798438)scale(0.1 -0.1)">
       <use xlink:href="#DejaVuSans-49"/>
       <use x="63.623047" xlink:href="#DejaVuSans-46"/>
       <use x="95.410156" xlink:href="#DejaVuSans-48"/>
      </g>
     </g>
    </g>
    <g id="text_7">
     <!-- S -->
     <defs>
      <path d="M 53.515625 70.515625 
L 53.515625 60.890625 
Q 47.90625 63.578125 42.921875 64.890625 
Q 37.9375 66.21875 33.296875 66.21875 
Q 25.25 66.21875 20.875 63.09375 
Q 16.5 59.96875 16.5 54.203125 
Q 16.5 49.359375 19.40625 46.890625 
Q 22.3125 44.4375 30.421875 42.921875 
L 36.375 41.703125 
Q 47.40625 39.59375 52.65625 34.296875 
Q 57.90625 29 57.90625 20.125 
Q 57.90625 9.515625 50.796875 4.046875 
Q 43.703125 -1.421875 29.984375 -1.421875 
Q 24.8125 -1.421875 18.96875 -0.25 
Q 13.140625 0.921875 6.890625 3.21875 
L 6.890625 13.375 
Q 12.890625 10.015625 18.65625 8.296875 
Q 24.421875 6.59375 29.984375 6.59375 
Q 38.421875 6.59375 43.015625 9.90625 
Q 47.609375 13.234375 47.609375 19.390625 
Q 47.609375 24.75 44.3125 27.78125 
Q 41.015625 30.8125 33.5 32.328125 
L 27.484375 33.5 
Q 16.453125 35.6875 11.515625 40.375 
Q 6.59375 45.0625 6.59375 53.421875 
Q 6.59375 63.09375 13.40625 68.65625 
Q 20.21875 74.21875 32.171875 74.21875 
Q 37.3125 74.21875 42.625 73.28125 
Q 47.953125 72.359375 53.515625 70.515625 
z
" id="DejaVuSans-83"/>
     </defs>
     <g transform="translate(191.294531 346.476562)scale(0.1 -0.1)">
      <use xlink:href="#DejaVuSans-83"/>
     </g>
    </g>
   </g>
   <g id="matplotlib.axis_2">
    <g id="ytick_1">
     <g id="line2d_7">
      <defs>
       <path d="M 0 0 
L -3.5 0 
" id="mf4d5248e99" style="stroke:#000000;stroke-width:0.8;"/>
      </defs>
      <g>
       <use style="stroke:#000000;stroke-width:0.8;" x="48.76875" xlink:href="#mf4d5248e99" y="318.2"/>
      </g>
     </g>
     <g id="text_8">
      <!-- 0.0 -->
      <g transform="translate(25.865625 321.999219)scale(0.1 -0.1)">
       <use xlink:href="#DejaVuSans-48"/>
       <use x="63.623047" xlink:href="#DejaVuSans-46"/>
       <use x="95.410156" xlink:href="#DejaVuSans-48"/>
      </g>
     </g>
    </g>
    <g id="ytick_2">
     <g id="line2d_8">
      <g>
       <use style="stroke:#000000;stroke-width:0.8;" x="48.76875" xlink:href="#mf4d5248e99" y="259.92"/>
      </g>
     </g>
     <g id="text_9">
      <!-- 0.2 -->
      <g transform="translate(25.865625 263.719219)scale(0.1 -0.1)">
       <use xlink:href="#DejaVuSans-48"/>
       <use x="63.623047" xlink:href="#DejaVuSans-46"/>
       <use x="95.410156" xlink:href="#DejaVuSans-50"/>
      </g>
     </g>
    </g>
    <g id="ytick_3">
     <g id="line2d_9">
      <g>
       <use style="stroke:#000000;stroke-width:0.8;" x="48.76875" xlink:href="#mf4d5248e99" y="201.64"/>
      </g>
     </g>
     <g id="text_10">
      <!-- 0.4 -->
      <g transform="translate(25.865625 205.439219)scale(0.1 -0.1)">
       <use xlink:href="#DejaVuSans-48"/>
       <use x="63.623047" xlink:href="#DejaVuSans-46"/>
       <use x="95.410156" xlink:href="#DejaVuSans-52"/>
      </g>
     </g>
    </g>
    <g id="ytick_4">
     <g id="line2d_10">
      <g>
       <use style="stroke:#000000;stroke-width:0.8;" x="48.76875" xlink:href="#mf4d5248e99" y="143.36"/>
      </g>
     </g>
     <g id="text_11">
      <!-- 0.6 -->
      <g transform="translate(25.865625 147.159219)scale(0.1 -0.1)">
       <use xlink:href="#DejaVuSans-48"/>
       <use x="63.623047" xlink:href="#DejaVuSans-46"/>
       <use x="95.410156" xlink:href="#DejaVuSans-54"/>
      </g>
     </g>
    </g>
    <g id="ytick_5">
     <g id="line2d_11">
      <g>
       <use style="stroke:#000000;stroke-width:0.8;" x="48.76875" xlink:href="#mf4d5248e99" y="85.08"/>
      </g>
     </g>
     <g id="text_12">
      <!-- 0.8 -->
      <g transform="translate(25.865625 88.879219)scale(0.1 -0.1)">
       <use xlink:href="#DejaVuSans-48"/>
       <use x="63.623047" xlink:href="#DejaVuSans-46"/>
       <use x="95.410156" xlink:href="#DejaVuSans-56"/>
      </g>
     </g>
    </g>
    <g id="ytick_6">
     <g id="line2d_12">
      <g>
       <use style="stroke:#000000;stroke-width:0.8;" x="48.76875" xlink:href="#mf4d5248e99" y="26.8"/>
      </g>
     </g>
     <g id="text_13">
      <!-- 1.0 -->
      <g transform="translate(25.865625 30.599219)scale(0.1 -0.1)">
       <use xlink:href="#DejaVuSans-49"/>
       <use x="63.623047" xlink:href="#DejaVuSans-46"/>
       <use x="95.410156" xlink:href="#DejaVuSans-48"/>
      </g>
     </g>
    </g>
    <g id="text_14">
     <!-- T -->
     <defs>
      <path d="M -0.296875 72.90625 
L 61.375 72.90625 
L 61.375 64.59375 
L 35.5 64.59375 
L 35.5 0 
L 25.59375 0 
L 25.59375 64.59375 
L -0.296875 64.59375 
z
" id="DejaVuSans-84"/>
     </defs>
     <g transform="translate(19.785937 175.553906)rotate(-90)scale(0.1 -0.1)">
      <use xlink:href="#DejaVuSans-84"/>
     </g>
    </g>
   </g>
   <g id="line2d_13">
    <path clip-path="url(#pdd01e9910f)" d="M 293.577715 254.721024 
L 287.645166 252.721697 
L 286.658497 251.937531 
L 286.60716 251.199275 
L 283.525449 249.786842 
L 282.479643 247.988348 
L 282.571135 246.266232 
L 281.302482 245.864133 
L 280.992311 244.579654 
L 277.944554 242.228747 
L 275.211791 236.152703 
L 279.788824 237.665721 
L 280.686724 237.532077 
L 283.836999 234.436429 
L 286.319535 234.27025 
L 285.797838 233.662138 
L 286.263462 231.918442 
L 288.763841 231.168771 
L 290.81564 231.502658 
L 290.944353 232.718883 
L 293.417159 233.244487 
L 295.610149 235.023752 
L 298.777281 236.597081 
L 298.919428 242.270714 
L 297.994301 244.05522 
L 298.467307 244.712084 
L 298.239795 245.629018 
L 298.918503 247.80234 
L 297.342093 249.732253 
L 297.145427 251.837049 
L 293.577715 254.721024 
" style="fill:none;stroke:#000000;stroke-linecap:square;stroke-width:0.5;"/>
   </g>
   <g id="line2d_14">
    <path clip-path="url(#pdd01e9910f)" d="M 290.81564 231.502658 
L 288.020437 231.223898 
L 286.263462 231.918442 
L 286.018074 233.33776 
L 285.797838 233.662138 
L 284.364383 233.465916 
L 283.610291 234.255892 
L 282.856072 234.140071 
L 280.516428 237.511495 
L 279.788824 237.665721 
L 277.027532 236.940173 
L 273.635075 235.031516 
L 269.590263 234.867526 
L 265.918758 231.062386 
L 265.589244 229.953278 
L 265.406283 219.37468 
L 271.330669 219.9411 
L 271.341182 212.848103 
L 272.535533 213.836506 
L 272.57207 214.811688 
L 275.301757 214.392521 
L 275.483766 215.806936 
L 277.516906 216.933835 
L 279.922073 217.462624 
L 280.934725 216.257532 
L 282.189865 218.627205 
L 284.73827 219.944552 
L 286.57254 223.105975 
L 288.225563 222.927359 
L 288.903915 223.674872 
L 288.965119 219.246207 
L 288.08451 219.381941 
L 288.015048 220.032403 
L 286.725662 219.620367 
L 284.648489 216.651666 
L 285.446977 213.197052 
L 285.32105 210.103569 
L 284.701107 208.422616 
L 286.130466 206.989539 
L 286.217834 205.912226 
L 291.913001 205.40233 
L 292.787447 206.982613 
L 294.079568 207.32792 
L 294.778836 208.344855 
L 299.560043 211.560733 
L 301.037767 215.169591 
L 299.767794 216.235848 
L 300.143151 217.250486 
L 299.677195 218.124285 
L 299.739343 220.635425 
L 300.563616 221.605884 
L 299.009498 222.37304 
L 298.838942 224.455195 
L 297.902058 225.591217 
L 298.916344 227.276993 
L 299.579205 227.358985 
L 290.30903 229.200135 
L 290.81564 231.502658 
" style="fill:none;stroke:#000000;stroke-linecap:square;stroke-width:0.5;"/>
   </g>
   <g id="line2d_15">
    <path clip-path="url(#pdd01e9910f)" d="M 336.416836 115.635434 
L 334.491605 115.694742 
L 333.549293 113.656045 
L 333.734998 111.942308 
L 333.024796 110.862109 
L 332.466081 107.398721 
L 331.450528 106.516392 
L 331.964558 106.030644 
L 331.965626 102.034621 
L 333.30353 100.470163 
L 333.398567 97.894374 
L 333.969462 97.254462 
L 336.085257 97.277277 
" style="fill:none;stroke:#000000;stroke-linecap:square;stroke-width:0.5;"/>
   </g>
   <g id="line2d_16"/>
   <g id="line2d_17"/>
   <g id="line2d_18"/>
   <g id="line2d_19"/>
   <g id="line2d_20"/>
   <g id="line2d_21"/>
   <g id="line2d_22"/>
   <g id="line2d_23"/>
   <g id="line2d_24"/>
   <g id="line2d_25">
    <path clip-path="url(#pdd01e9910f)" d="M 295.114196 176.929527 
L 290.865673 177.129034 
L 289.565917 178.740316 
L 288.295358 178.466231 
L 288.499058 174.706059 
L 289.189005 173.82561 
L 289.247847 173.256781 
L 288.621827 173.026909 
L 289.419317 168.93705 
L 291.06798 167.115657 
L 291.426113 167.95625 
L 293.925779 164.259178 
L 294.159224 162.125886 
L 293.499848 163.157732 
L 291.843192 161.977701 
L 292.183592 157.722559 
L 293.156595 156.482795 
L 294.384606 156.856588 
L 295.167104 156.308281 
L 296.223788 157.406921 
L 298.93269 155.784647 
L 300.49076 156.211258 
L 302.03975 154.201993 
L 302.643339 155.847754 
L 303.516492 156.47453 
L 303.549068 158.522736 
L 305.021771 161.383377 
L 305.249864 164.701097 
L 304.676528 166.828453 
L 303.657787 167.754337 
L 302.033309 171.52152 
L 300.471231 171.505863 
L 299.80367 170.404723 
L 298.808726 172.010704 
L 297.903595 171.969726 
L 297.82859 171.359096 
L 297.469483 172.184872 
L 295.642515 173.091898 
L 295.114196 176.929527 
" style="fill:none;stroke:#000000;stroke-linecap:square;stroke-width:0.5;"/>
   </g>
   <g id="line2d_26"/>
   <g id="line2d_27">
    <path clip-path="url(#pdd01e9910f)" d="M 324.481627 27.065178 
L 319.80318 30.832555 
L 315.843786 31.719272 
L 313.313118 33.791098 
L 310.735581 34.256986 
L 310.336705 35.73029 
L 310.663478 36.442315 
L 309.803727 37.026801 
L 308.990395 38.627808 
L 308.223324 38.612394 
L 307.95668 37.243432 
L 309.190603 35.432756 
L 308.73381 34.664624 
L 306.598079 36.783675 
L 304.370671 36.746759 
L 301.143374 40.326499 
L 298.293965 41.895337 
L 293.778738 40.675794 
L 291.581597 41.185572 
L 290.969979 43.549222 
L 288.639403 44.70861 
L 287.212826 44.556396 
L 286.436175 43.395485 
L 281.826589 44.802366 
L 284.219418 42.95185 
L 281.248708 44.027936 
L 281.361284 43.457329 
L 282.072397 43.114478 
L 280.658978 41.7567 
L 281.132016 41.373288 
L 281.156239 40.450578 
L 278.313909 40.20484 
L 278.767624 38.751718 
L 279.469958 39.655925 
L 280.889546 38.810941 
L 280.172137 38.917308 
L 279.739894 38.215147 
L 280.494886 37.340227 
L 279.894655 37.249279 
L 279.49294 36.15297 
L 280.149132 35.003936 
L 277.779051 36.01786 
L 277.984539 34.024836 
L 279.662674 31.984997 
L 282.657312 31.308718 
L 283.102917 30.469748 
L 283.369148 30.92345 
L 286.550755 29.789262 
L 285.881271 29.468003 
L 289.118165 27.567327 
L 286.877043 27.585374 
" style="fill:none;stroke:#000000;stroke-linecap:square;stroke-width:0.5;"/>
   </g>
   <g id="line2d_28">
    <path clip-path="url(#pdd01e9910f)" d="M 286.395303 27.481622 
L 281.964418 29.094453 
L 278.048931 33.688652 
L 278.20273 32.75077 
L 279.825671 31.084053 
L 277.756124 31.775619 
L 277.555987 31.402837 
L 278.435401 30.277686 
L 278.434224 29.201992 
L 279.321186 28.305747 
L 278.423928 27.169196 
" style="fill:none;stroke:#000000;stroke-linecap:square;stroke-width:0.5;"/>
   </g>
   <g id="line2d_29">
    <path clip-path="url(#pdd01e9910f)" d="M 233.676182 65.755364 
L 233.677404 68.210019 
L 229.801757 70.856134 
L 229.295024 71.59323 
L 229.617145 73.703444 
L 228.595554 75.017987 
L 227.39464 75.597142 
L 225.871732 69.930199 
L 223.574676 68.595394 
L 222.856229 67.017323 
L 221.611414 66.41589 
L 220.853212 64.659396 
L 220.898127 63.860856 
L 223.289398 61.599758 
L 223.772173 60.039909 
L 223.29416 58.117442 
L 223.624462 56.228909 
L 223.165852 55.761675 
L 224.363073 54.285085 
L 227.935449 52.648287 
L 228.415429 52.711803 
L 228.389287 53.296517 
L 228.533659 52.885459 
L 229.553618 52.955741 
L 230.238029 54.478643 
L 232.262305 53.143413 
L 232.490984 53.785544 
L 230.441395 56.310171 
L 230.802652 57.228611 
L 232.106275 57.940821 
L 232.470425 59.198784 
L 229.085554 63.353617 
L 229.89897 64.341847 
L 231.18904 64.355759 
L 231.219239 64.914536 
L 231.960615 64.487958 
L 232.729611 65.628677 
L 233.676182 65.755364 
" style="fill:none;stroke:#000000;stroke-linecap:square;stroke-width:0.5;"/>
   </g>
   <g id="line2d_30">
    <path clip-path="url(#pdd01e9910f)" d="M 197.864304 134.893026 
L 197.352235 136.809035 
L 199.45772 138.040314 
L 199.662992 140.068433 
L 200.451325 141.066523 
L 200.197235 147.781889 
L 201.101711 150.102492 
L 198.929612 150.796145 
L 197.253196 149.58283 
L 196.460003 148.258061 
L 196.870317 146.596026 
L 196.363684 145.961288 
L 197.070297 143.486841 
L 195.883 142.014344 
L 196.460371 139.957844 
L 195.35633 139.750574 
L 195.914356 137.11164 
L 194.12515 135.772273 
L 194.207302 134.512416 
L 197.864304 134.893026 
" style="fill:none;stroke:#000000;stroke-linecap:square;stroke-width:0.5;"/>
   </g>
   <g id="line2d_31"/>
   <g id="line2d_32">
    <path clip-path="url(#pdd01e9910f)" d="M 298.68851 210.6433 
L 295.618698 208.974908 
L 293.772663 207.121884 
L 292.585752 206.789513 
L 290.250037 200.945654 
L 288.18453 198.053969 
L 288.387636 195.823662 
L 287.518351 192.598464 
L 287.762741 190.863043 
L 289.432833 190.398068 
L 292.099522 186.095183 
L 292.003076 185.209918 
L 290.901846 184.507497 
L 291.240519 182.881359 
L 292.153046 182.547034 
L 292.30126 181.737322 
L 292.10315 179.285867 
L 291.19798 177.131557 
L 295.326315 176.995729 
L 294.749596 180.918143 
L 295.232366 184.570131 
L 295.808972 184.421362 
L 295.754902 183.542054 
L 296.26906 183.470219 
L 296.550619 182.460728 
L 298.344141 183.506048 
L 298.184712 185.473635 
L 298.823525 184.930978 
L 298.767416 183.121423 
L 300.32589 183.611595 
L 301.460419 181.944361 
L 299.676886 181.662891 
L 300.600826 181.368346 
L 299.883477 181.024653 
L 300.818907 180.355321 
L 301.114173 179.170404 
L 301.863744 179.301286 
L 301.527913 178.817823 
L 302.294497 177.222576 
L 314.00561 186.510727 
L 313.886519 188.482567 
L 319.341128 194.060471 
L 317.918339 199.771176 
L 318.154219 200.882527 
L 320.453948 204.012597 
L 319.569521 205.929981 
L 320.092762 208.00433 
L 319.622725 209.683177 
L 320.78176 212.843703 
L 321.070992 216.087225 
L 323.634237 218.342985 
L 319.682971 220.225311 
L 316.857009 220.847718 
L 314.931054 220.067335 
L 314.276321 221.036715 
L 313.101704 221.323556 
L 311.793814 220.565195 
L 309.574831 220.715771 
L 308.28421 219.573052 
L 307.153943 219.938093 
L 305.195028 219.539614 
L 304.062954 217.540126 
L 303.940903 214.42112 
L 303.142135 212.415255 
L 302.102079 211.398259 
L 301.761616 212.005336 
L 298.68851 210.6433 
" style="fill:none;stroke:#000000;stroke-linecap:square;stroke-width:0.5;"/>
   </g>
   <g id="line2d_33"/>
   <g id="line2d_34"/>
   <g id="line2d_35">
    <path clip-path="url(#pdd01e9910f)" d="M 308.223324 38.612394 
L 309.076407 38.584568 
L 309.803727 37.026801 
L 310.663478 36.442315 
L 310.336705 35.73029 
L 310.735581 34.256986 
L 313.313118 33.791098 
L 315.843786 31.719272 
L 319.80318 30.832555 
L 324.481627 27.065178 
L 328.316641 27.242949 
L 326.563022 28.91594 
L 326.769071 31.739475 
L 326.204421 35.387032 
L 325.470907 37.025768 
L 311.262833 50.705078 
L 309.792822 50.995975 
L 307.879637 50.436025 
L 308.470783 46.591291 
L 309.769732 45.708714 
L 309.483524 45.502132 
L 310.492962 44.025125 
L 309.654312 43.321249 
L 309.831632 42.666981 
L 308.496308 43.288443 
L 308.2552 40.449565 
L 307.805163 40.063434 
L 308.223324 38.612394 
" style="fill:none;stroke:#000000;stroke-linecap:square;stroke-width:0.5;"/>
   </g>
   <g id="line2d_36"/>
   <g id="line2d_37"/>
   <g id="line2d_38"/>
   <g id="line2d_39">
    <path clip-path="url(#pdd01e9910f)" d="M 302.03975 154.201993 
L 300.49076 156.211258 
L 298.93269 155.784647 
L 296.223788 157.406921 
L 295.167104 156.308281 
L 294.384606 156.856588 
L 293.156595 156.482795 
L 292.183592 157.722559 
L 288.218974 153.381539 
L 287.216711 154.391642 
L 285.695651 154.033981 
L 284.066477 154.721306 
L 281.938979 152.463639 
L 280.888661 149.674483 
L 278.987524 148.506658 
L 278.528079 146.453814 
L 275.272158 143.815099 
L 275.036573 142.473372 
L 273.995879 141.382834 
L 272.313116 140.968672 
L 271.921278 139.581069 
L 273.033122 138.827289 
L 274.636447 133.815424 
L 276.831397 133.167461 
L 279.423113 136.174789 
L 283.120998 135.397625 
L 283.631355 136.314539 
L 286.054144 136.077724 
L 286.466607 135.076523 
L 287.977028 134.290177 
L 288.382842 133.186663 
L 289.604379 132.288785 
L 291.925997 133.97848 
L 293.163266 133.690032 
L 297.11721 128.423073 
L 296.858769 126.231264 
L 296.024417 125.294345 
L 298.110872 124.978026 
L 298.064115 124.223136 
L 299.571478 124.015061 
L 299.352433 129.358314 
L 301.819526 131.091517 
L 301.706207 133.612385 
L 302.365563 133.694501 
L 302.441067 136.637245 
L 301.967154 137.574927 
L 299.83027 137.843782 
L 298.937933 139.973394 
L 301.804892 141.159806 
L 304.393293 144.202817 
L 306.193567 148.704706 
L 302.03975 154.201993 
" style="fill:none;stroke:#000000;stroke-linecap:square;stroke-width:0.5;"/>
   </g>
   <g id="line2d_40">
    <path clip-path="url(#pdd01e9910f)" d="M 302.365563 133.694501 
L 301.706207 133.612385 
L 301.819526 131.091517 
L 299.352433 129.358314 
L 299.571478 124.015061 
L 298.064115 124.223136 
L 298.110872 124.978026 
L 296.024417 125.294345 
L 296.858769 126.231264 
L 297.11721 128.423073 
L 293.163266 133.690032 
L 291.925997 133.97848 
L 289.604379 132.288785 
L 288.382842 133.186663 
L 287.977028 134.290177 
L 286.466607 135.076523 
L 286.054144 136.077724 
L 283.631355 136.314539 
L 283.120998 135.397625 
L 279.423113 136.174789 
L 276.831397 133.167461 
L 274.636447 133.815424 
L 273.033122 138.827289 
L 271.88213 139.69116 
L 270.058241 139.309332 
L 269.851954 138.290388 
L 270.383915 135.810972 
L 268.035673 132.290473 
L 268.222543 130.846025 
L 267.232944 130.150967 
L 266.520439 126.636219 
L 264.948022 126.359609 
L 266.149807 124.475408 
L 265.786776 122.976827 
L 267.076152 121.662014 
L 266.607565 120.449561 
L 268.251405 118.281929 
L 268.25607 117.080765 
L 268.767488 116.47214 
L 271.354032 116.092126 
L 271.38236 102.34758 
L 274.374081 101.858388 
L 274.376424 95.47014 
L 293.333115 91.693681 
L 293.927298 90.865338 
L 294.033668 91.531418 
L 311.438083 87.143557 
L 311.621861 88.52857 
L 312.721632 89.906926 
L 312.331472 90.457214 
L 312.504257 93.43906 
L 313.42964 97.798421 
L 317.255573 99.75684 
L 316.052126 101.564521 
L 313.683714 103.062835 
L 313.228855 104.106697 
L 311.893421 104.422398 
L 311.578245 107.214707 
L 309.972487 111.72392 
L 310.293317 114.815054 
L 308.983362 120.514777 
L 307.498261 121.259642 
L 305.688628 124.508955 
L 305.104606 128.100245 
L 304.588477 128.614688 
L 303.947177 128.21402 
L 303.215966 129.136186 
L 302.365563 133.694501 
" style="fill:none;stroke:#000000;stroke-linecap:square;stroke-width:0.5;"/>
   </g>
   <g id="line2d_41"/>
   <g id="line2d_42">
    <path clip-path="url(#pdd01e9910f)" d="M 187.776957 32.721785 
L 189.182584 33.357603 
L 189.116057 34.103016 
L 194.311825 35.404384 
L 196.858589 35.396323 
L 197.103235 34.828389 
L 199.529055 35.369915 
L 199.895308 36.284553 
L 206.254624 36.177996 
L 206.384216 37.930315 
L 202.21054 40.369653 
L 198.357238 41.216853 
L 197.169822 42.067906 
L 197.829345 42.416518 
L 196.725111 42.801267 
L 193.226709 46.603413 
L 193.689138 48.171105 
L 195.235579 49.204502 
L 192.495506 50.697615 
L 191.393584 52.532038 
L 191.74171 52.998547 
L 188.336744 53.782304 
L 186.622158 55.782007 
L 178.639336 55.77324 
L 175.875217 56.638623 
L 174.33296 57.879289 
L 172.932943 57.279319 
L 171.781994 55.740701 
L 172.341943 54.853289 
L 171.741693 55.093662 
L 170.185159 53.517698 
L 168.393483 53.740621 
L 168.269176 51.893374 
L 169.874264 50.442942 
L 168.601296 49.448762 
L 169.740558 47.47546 
L 167.967687 45.273151 
L 169.815242 44.920237 
L 170.077971 44.159827 
L 169.625834 43.621606 
L 170.363061 43.055502 
L 169.970673 40.684916 
L 172.356342 38.970068 
L 171.254459 38.401972 
L 171.001019 37.416812 
L 165.951047 37.53051 
L 165.581592 36.325599 
L 163.683324 36.928399 
L 163.5709 36.27314 
L 164.204534 35.714867 
L 163.801155 35.639762 
L 163.815021 34.345309 
L 163.100962 34.452013 
L 163.442005 33.731957 
L 162.451426 32.985263 
L 162.634869 32.273966 
L 167.434841 30.485218 
L 169.531998 31.42387 
L 173.58589 31.340157 
L 178.099562 32.413009 
L 181.296422 32.149663 
L 183.270895 32.756244 
L 187.776957 32.721785 
" style="fill:none;stroke:#000000;stroke-linecap:square;stroke-width:0.5;"/>
   </g>
   <g id="line2d_43"/>
   <g id="line2d_44">
    <path clip-path="url(#pdd01e9910f)" d="M 287.645166 252.721697 
L 293.577715 254.721024 
L 294.379738 258.519621 
L 295.693817 261.84088 
L 295.636408 267.145929 
L 293.973489 266.001915 
L 293.327351 266.160378 
L 292.074426 267.748498 
L 292.085008 268.996737 
L 293.53461 270.902165 
L 294.993946 271.53877 
L 295.668165 271.70989 
L 295.781783 270.088011 
L 298.581894 270.970506 
L 296.974016 276.135102 
L 293.724675 278.203901 
L 290.484254 282.713065 
L 283.059644 287.769697 
L 279.287312 288.99873 
L 276.854884 288.472468 
L 276.158784 289.314711 
L 274.444351 288.677296 
L 273.223501 289.063808 
L 270.538019 287.813142 
L 267.121615 287.107288 
L 264.83965 287.839896 
L 261.083086 287.380487 
L 259.562598 288.16732 
L 257.403912 287.191719 
L 256.805994 286.200544 
L 256.006974 286.104855 
L 255.769854 285.129538 
L 255.015769 285.087388 
L 254.899597 285.854776 
L 254.515285 284.886023 
L 254.813849 283.758455 
L 253.068279 280.556201 
L 254.490987 279.735308 
L 254.147812 277.207842 
L 251.553648 272.651928 
L 250.358277 269.180468 
L 248.842733 266.505775 
L 249.772794 266.107758 
L 250.13315 265.138511 
L 250.678333 264.906809 
L 251.588604 265.776918 
L 251.857038 267.162345 
L 257.247083 268.602368 
L 258.126221 267.702456 
L 259.442724 267.521603 
L 259.442724 255.943234 
L 260.786932 257.302985 
L 261.868812 259.887793 
L 261.372217 261.475464 
L 261.546208 262.699396 
L 264.558525 263.257625 
L 267.25247 261.472134 
L 268.62519 259.102414 
L 269.615934 259.211006 
L 271.123635 260.472645 
L 273.680718 261.651042 
L 275.766671 261.730262 
L 277.174371 258.889708 
L 278.634599 258.749081 
L 279.95539 257.809186 
L 280.71211 255.812082 
L 282.74913 254.986322 
L 284.121412 253.62625 
L 287.645166 252.721697 
" style="fill:none;stroke:#000000;stroke-linecap:square;stroke-width:0.5;"/>
   </g>
   <g id="line2d_45">
    <path clip-path="url(#pdd01e9910f)" d="M 327.403804 180.898998 
L 325.441649 176.833175 
L 325.441649 158.773366 
L 329.160816 152.577727 
L 331.937506 151.641609 
L 334.846315 148.800564 
L 339.942043 148.021357 
L 337.641678 165.260833 
L 334.418005 169.268578 
L 329.001989 177.410609 
L 327.403804 180.898998 
" style="fill:none;stroke:#000000;stroke-linecap:square;stroke-width:0.5;"/>
   </g>
   <g id="line2d_46">
    <path clip-path="url(#pdd01e9910f)" d="M 336.480306 130.492645 
L 334.147307 128.822185 
L 331.445558 124.719931 
L 333.600999 120.675416 
L 335.84588 123.135317 
L 337.844125 124.207993 
L 339.951344 123.773494 
" style="fill:none;stroke:#000000;stroke-linecap:square;stroke-width:0.5;"/>
   </g>
   <g id="line2d_47"/>
   <g id="line2d_48"/>
   <g id="line2d_49">
    <path clip-path="url(#pdd01e9910f)" d="M 159.108495 142.459902 
L 157.95593 144.82658 
L 155.252148 147.610126 
L 152.204713 145.908799 
L 152.221373 144.679817 
L 151.073647 144.423816 
L 149.771471 142.343399 
L 150.940057 141.723646 
L 150.051725 141.865969 
L 149.974341 140.983252 
L 150.429233 140.875092 
L 149.710089 140.293869 
L 150.526306 140.146845 
L 152.383622 137.623398 
L 155.985071 137.438157 
L 157.819964 139.711476 
L 157.641699 140.419607 
L 158.420265 141.776325 
L 157.75185 142.915364 
L 159.108495 142.459902 
" style="fill:none;stroke:#000000;stroke-linecap:square;stroke-width:0.5;"/>
   </g>
   <g id="line2d_50">
    <path clip-path="url(#pdd01e9910f)" d="M 266.728495 28.405972 
L 264.164079 29.368128 
L 264.732152 27.623773 
L 263.651352 27.584921 
L 260.529229 28.0502 
" style="fill:none;stroke:#000000;stroke-linecap:square;stroke-width:0.5;"/>
   </g>
   <g id="line2d_51">
    <path clip-path="url(#pdd01e9910f)" d="M 152.841232 122.087898 
L 153.654543 124.003104 
L 153.545513 125.786949 
L 154.239078 126.813324 
L 154.8535 126.672788 
L 155.619009 128.048535 
L 155.622069 129.740068 
L 152.808309 129.856372 
L 150.423656 129.228563 
L 150.356896 128.770796 
L 143.886334 128.262225 
L 142.736209 128.796289 
L 139.297239 129.009106 
L 139.151013 128.450165 
L 140.108923 128.246258 
L 139.127897 128.119293 
L 139.487396 126.462526 
L 141.949631 126.622721 
L 142.009835 126.090617 
L 143.612362 125.970724 
L 144.023078 125.489215 
L 146.781248 126.671601 
L 148.068193 126.203335 
L 144.153176 124.690369 
L 142.933847 125.324231 
L 139.748343 125.101707 
L 139.130989 124.048203 
L 139.579916 123.651486 
L 139.056197 123.72795 
L 137.922497 121.625822 
L 136.816817 121.174607 
L 137.985409 120.742245 
L 138.900456 119.644509 
L 140.724864 115.922199 
L 144.60611 115.767631 
L 146.618167 116.218848 
L 147.940116 117.645691 
L 149.050391 117.758391 
L 149.975846 119.419669 
L 152.841232 122.087898 
" style="fill:none;stroke:#000000;stroke-linecap:square;stroke-width:0.5;"/>
   </g>
   <g id="line2d_52">
    <path clip-path="url(#pdd01e9910f)" d="M 336.085257 97.277277 
L 334.234492 97.065409 
L 333.398567 97.894374 
L 333.30353 100.470163 
L 331.965626 102.034621 
L 330.132408 98.502311 
L 328.178745 97.346126 
L 326.327455 94.916762 
L 324.669426 91.43029 
L 321.081774 90.146913 
L 319.527034 88.491364 
L 318.542145 85.529928 
L 318.795033 82.919475 
L 316.763508 79.553062 
L 314.929415 78.439395 
L 313.669048 78.449448 
L 312.4634 76.959882 
L 312.357074 75.338608 
L 305.909067 67.762435 
L 304.117879 68.218635 
L 305.166985 63.393104 
L 308.797692 62.734551 
L 311.054504 59.601378 
L 313.422803 58.303308 
L 314.025845 56.877331 
L 315.132002 55.862399 
L 311.726569 53.526369 
L 319.079925 48.405077 
L 323.305321 47.391625 
L 329.34154 48.116929 
L 338.993358 51.180508 
" style="fill:none;stroke:#000000;stroke-linecap:square;stroke-width:0.5;"/>
   </g>
   <g id="line2d_53"/>
   <g id="line2d_54"/>
   <g id="line2d_55"/>
   <g id="line2d_56"/>
   <g id="line2d_57"/>
   <g id="line2d_58"/>
   <g id="line2d_59"/>
   <g id="line2d_60"/>
   <g id="line2d_61"/>
   <g id="line2d_62"/>
   <g id="line2d_63"/>
   <g id="line2d_64">
    <path clip-path="url(#pdd01e9910f)" d="M 163.925978 36.898184 
L 165.581592 36.325599 
L 165.951047 37.53051 
L 171.001019 37.416812 
L 171.254459 38.401972 
L 172.356342 38.970068 
L 169.970673 40.684916 
L 170.363061 43.055502 
L 169.625834 43.621606 
L 170.077971 44.159827 
L 169.815242 44.920237 
L 167.967687 45.273151 
L 169.740558 47.47546 
L 168.601296 49.448762 
L 169.874264 50.442942 
L 168.269176 51.893374 
L 168.393483 53.740621 
L 166.989749 54.228207 
L 163.214592 53.863441 
L 163.806513 52.575202 
L 163.590578 49.121859 
L 164.277616 49.252538 
L 163.855837 48.899357 
L 162.521809 49.029219 
L 162.402687 48.30651 
L 163.138362 48.059465 
L 163.87932 46.982675 
L 162.770732 48.042978 
L 161.685657 47.9911 
L 162.003869 45.927861 
L 163.730103 43.370696 
L 164.224894 41.171401 
L 163.99614 37.779025 
L 163.569641 37.504023 
L 163.925978 36.898184 
" style="fill:none;stroke:#000000;stroke-linecap:square;stroke-width:0.5;"/>
   </g>
   <g id="line2d_65"/>
   <g id="line2d_66"/>
   <g id="line2d_67"/>
   <g id="line2d_68"/>
   <g id="line2d_69"/>
   <g id="line2d_70"/>
   <g id="line2d_71"/>
   <g id="line2d_72"/>
   <g id="line2d_73"/>
   <g id="line2d_74"/>
   <g id="line2d_75"/>
   <g id="line2d_76"/>
   <g id="line2d_77"/>
   <g id="line2d_78"/>
   <g id="line2d_79"/>
   <g id="line2d_80">
    <path clip-path="url(#pdd01e9910f)" d="M 240.192613 125.308367 
L 241.596653 127.20112 
L 242.005363 129.381785 
L 243.295686 130.052251 
L 243.16038 132.041244 
L 241.343818 133.165764 
L 240.480041 134.298808 
L 239.157302 137.068491 
L 238.937868 138.617702 
L 238.106846 139.100603 
L 237.49347 141.359358 
L 236.477954 141.890555 
L 234.497707 146.357277 
L 234.791194 146.873031 
L 233.354141 148.879019 
L 232.427462 149.160036 
L 232.120099 148.214805 
L 230.851402 147.154902 
L 230.240811 147.792238 
L 229.3859 147.413112 
L 225.923573 150.817188 
L 224.296048 155.148438 
L 223.250975 154.634788 
L 223.443661 155.846265 
L 221.325982 155.983526 
L 220.953617 155.536697 
L 220.143004 155.918875 
L 219.457005 155.341764 
L 219.715149 156.038922 
L 218.949514 156.477061 
L 218.433375 155.322836 
L 218.741004 156.539444 
L 217.985572 156.661853 
L 217.808985 156.191251 
L 217.72438 156.660154 
L 216.752566 156.780114 
L 216.777088 156.352976 
L 216.449889 156.894274 
L 214.476947 155.626805 
L 213.718285 153.528971 
L 214.347947 152.789827 
L 213.156846 152.59859 
L 214.032373 152.324922 
L 212.860683 152.234142 
L 210.52125 149.868952 
L 207.099893 149.631206 
L 208.035228 149.054002 
L 206.693463 149.734531 
L 204.457544 149.839441 
L 204.701933 141.048959 
L 205.664177 140.928398 
L 206.656907 138.693054 
L 207.631989 137.962936 
L 207.639192 136.86231 
L 208.269146 136.585504 
L 208.033175 134.554131 
L 207.230232 133.569983 
L 207.852052 132.413298 
L 207.788666 130.022157 
L 209.159267 128.749784 
L 209.53771 127.128458 
L 210.486817 126.529211 
L 214.152304 125.769328 
L 216.873514 126.369768 
L 218.995787 128.332818 
L 221.935776 127.220217 
L 224.925748 128.474298 
L 227.705278 128.684077 
L 229.073136 127.397348 
L 230.439233 126.955742 
L 233.385962 126.755663 
L 236.663112 127.415492 
L 237.928163 126.234724 
L 240.192613 125.308367 
" style="fill:none;stroke:#000000;stroke-linecap:square;stroke-width:0.5;"/>
   </g>
   <g id="line2d_81">
    <path clip-path="url(#pdd01e9910f)" d="M 240.192613 125.308367 
L 237.928163 126.234724 
L 236.663112 127.415492 
L 233.385962 126.755663 
L 230.439233 126.955742 
L 229.073136 127.397348 
L 227.705278 128.684077 
L 224.925748 128.474298 
L 221.935776 127.220217 
L 218.995787 128.332818 
L 216.873514 126.369768 
L 214.152304 125.769328 
L 211.326585 126.251658 
L 209.53771 127.128458 
L 209.159267 128.749784 
L 207.788666 130.022157 
L 207.608664 132.623018 
L 204.810747 130.507181 
L 203.235129 131.023462 
L 203.318523 132.035031 
L 202.175473 130.758851 
L 202.730699 130.268404 
L 202.29021 129.542103 
L 200.322002 129.757632 
L 198.187653 128.508971 
L 198.192013 127.513156 
L 198.981311 127.532898 
L 196.807998 126.475555 
L 195.092474 124.046866 
L 195.338557 122.624376 
L 198.039339 122.562575 
L 199.347409 121.674655 
L 207.28832 121.347356 
L 208.594888 120.116205 
L 209.657804 117.594563 
L 209.815775 109.885012 
L 215.317698 108.743546 
L 220.792562 104.373263 
L 235.123073 95.581184 
L 239.807956 96.229943 
L 242.060645 97.74123 
L 244.390408 96.373069 
L 245.007816 100.822052 
L 247.378231 104.209226 
L 246.687225 105.631997 
L 245.896359 114.936671 
L 242.526832 118.776433 
L 239.706399 123.21902 
L 240.192613 125.308367 
" style="fill:none;stroke:#000000;stroke-linecap:square;stroke-width:0.5;"/>
   </g>
   <g id="line2d_82"/>
   <g id="line2d_83"/>
   <g id="line2d_84"/>
   <g id="line2d_85"/>
   <g id="line2d_86"/>
   <g id="line2d_87">
    <path clip-path="url(#pdd01e9910f)" d="M 269.590263 234.867526 
L 273.635075 235.031516 
L 275.211791 236.152703 
L 272.171094 236.452682 
L 270.244708 237.579949 
L 269.1084 235.951957 
L 262.40876 236.108104 
L 262.399436 247.67239 
L 259.43339 247.269393 
L 259.442724 267.521603 
L 258.126221 267.702456 
L 256.995592 268.680862 
L 253.823558 267.989526 
L 251.857038 267.162345 
L 251.588604 265.776918 
L 250.678333 264.906809 
L 248.842733 266.505775 
L 246.638681 264.193411 
L 245.329292 261.892208 
L 243.983232 256.958615 
L 243.958534 254.827026 
L 242.934981 252.1762 
L 242.816572 246.806356 
L 239.713611 241.870549 
L 236.647661 235.588721 
L 234.524232 232.635453 
L 234.421778 230.331607 
L 236.926591 230.369873 
L 238.636957 229.72634 
L 241.454246 231.275022 
L 254.704093 232.373365 
L 256.377907 233.808672 
L 261.726601 235.082858 
L 269.590263 234.867526 
" style="fill:none;stroke:#000000;stroke-linecap:square;stroke-width:0.5;"/>
   </g>
   <g id="line2d_88">
    <path clip-path="url(#pdd01e9910f)" d="M 293.577715 254.721024 
L 297.145427 251.837049 
L 297.342093 249.732253 
L 298.918503 247.80234 
L 298.239795 245.629018 
L 298.467307 244.712084 
L 297.994301 244.05522 
L 298.919428 242.270714 
L 298.777281 236.597081 
L 295.610149 235.023752 
L 293.417159 233.244487 
L 290.856631 232.646026 
L 290.30903 229.200135 
L 299.579205 227.358985 
L 300.957965 229.550995 
L 303.31548 229.471258 
L 303.894482 232.110496 
L 302.909505 234.542637 
L 303.448219 235.905821 
L 305.58384 238.39977 
L 305.534617 239.245991 
L 306.207168 239.529585 
L 305.866102 237.49926 
L 306.485653 236.221146 
L 307.775252 236.126971 
L 308.223643 232.064932 
L 304.875515 226.534197 
L 304.359676 221.676087 
L 305.194043 219.539439 
L 307.153943 219.938093 
L 308.28421 219.573052 
L 309.574831 220.715771 
L 311.793814 220.565195 
L 313.101704 221.323556 
L 314.276321 221.036715 
L 314.931054 220.067335 
L 316.857009 220.847718 
L 319.682971 220.225311 
L 323.634237 218.342985 
L 324.15237 219.21016 
L 323.422171 221.705677 
L 324.044331 226.866254 
L 323.540791 228.095751 
L 324.001952 228.196049 
L 324.272784 234.154787 
L 324.724977 233.813056 
L 324.969307 234.991064 
L 323.967781 237.592703 
L 321.297873 240.004987 
L 321.48347 240.569069 
L 318.87139 241.904417 
L 313.566415 242.790401 
L 311.662899 243.843355 
L 309.896755 246.159836 
L 308.09618 246.51237 
L 305.157533 248.656401 
L 304.196361 248.044863 
L 304.375384 250.743838 
L 305.268775 252.110009 
L 306.191353 255.255292 
L 306.347007 257.868269 
L 306.803102 257.019614 
L 307.04255 257.539814 
L 307.189815 260.049663 
L 306.524284 262.749517 
L 307.081262 262.995728 
L 306.911223 263.780926 
L 305.300296 265.343121 
L 300.040679 265.970213 
L 298.285654 266.795582 
L 297.650369 267.842649 
L 298.464228 268.960866 
L 298.798861 268.426389 
L 298.581894 270.970506 
L 296.15161 270.263181 
L 295.54909 266.503918 
L 295.753986 262.138907 
L 294.379738 258.519621 
L 293.577715 254.721024 
" style="fill:none;stroke:#000000;stroke-linecap:square;stroke-width:0.5;"/>
   </g>
   <g id="line2d_89">
    <path clip-path="url(#pdd01e9910f)" d="M 186.23081 61.24091 
L 187.771253 62.400246 
L 188.196746 66.98357 
L 189.03788 68.680004 
L 190.459089 69.688198 
L 189.811307 70.093696 
L 189.864583 70.816385 
L 183.919261 70.835821 
L 183.371177 71.577183 
L 180.723044 71.967231 
L 180.494824 73.494214 
L 181.078255 74.235768 
L 176.569543 75.647805 
L 174.931807 77.160334 
L 171.46274 77.438186 
L 170.944127 78.190263 
L 169.262827 77.952575 
L 165.584449 79.721836 
L 164.244939 80.537206 
L 163.86876 85.315641 
L 161.88123 85.291396 
L 160.587741 85.933827 
L 157.607815 85.20423 
L 155.612123 85.469031 
L 155.783538 86.247594 
L 154.593346 87.770969 
L 153.52438 88.030083 
L 152.373773 91.475198 
L 150.640144 92.427749 
L 149.653681 93.834347 
L 147.870627 94.560942 
L 146.859525 98.684274 
L 145.241493 101.012 
L 138.419324 100.587679 
L 138.636895 99.134248 
L 140.363044 97.181381 
L 142.086025 93.681269 
L 141.506207 93.996228 
L 141.752642 93.487343 
L 144.774283 91.114371 
L 145.107532 89.046383 
L 146.2704 86.552236 
L 148.83884 85.326853 
L 150.77061 81.876596 
L 155.110808 81.042995 
L 159.370556 78.073949 
L 161.068774 75.93689 
L 161.113993 74.886906 
L 160.404152 73.990611 
L 160.617003 71.791673 
L 162.091347 69.816143 
L 162.417261 68.301073 
L 164.780779 66.304033 
L 170.061784 64.333996 
L 171.885635 61.831363 
L 173.322684 58.618723 
L 175.512863 58.33462 
L 175.598483 59.279194 
L 177.736657 60.690183 
L 182.035193 60.804732 
L 183.531786 60.206685 
L 184.003029 61.122744 
L 186.23081 61.24091 
" style="fill:none;stroke:#000000;stroke-linecap:square;stroke-width:0.5;"/>
   </g>
   <g id="line2d_90">
    <path clip-path="url(#pdd01e9910f)" d="M 138.419324 100.587679 
L 145.241493 101.012 
L 146.859525 98.684274 
L 147.870627 94.560942 
L 149.653681 93.834347 
L 150.640144 92.427749 
L 152.373773 91.475198 
L 153.52438 88.030083 
L 154.593346 87.770969 
L 155.783538 86.247594 
L 155.612123 85.469031 
L 157.607815 85.20423 
L 160.587741 85.933827 
L 161.88123 85.291396 
L 163.86876 85.315641 
L 163.794695 83.675907 
L 164.228997 83.701916 
L 164.232628 88.757668 
L 153.663517 88.027527 
L 153.641312 95.720738 
L 151.786955 96.17259 
L 150.139817 97.410036 
L 150.562791 101.964429 
L 138.535383 100.881805 
L 138.283872 102.467805 
L 138.419324 100.587679 
" style="fill:none;stroke:#000000;stroke-linecap:square;stroke-width:0.5;"/>
   </g>
   <g id="line2d_91"/>
   <g id="line2d_92"/>
   <g id="line2d_93"/>
   <g id="line2d_94">
    <path clip-path="url(#pdd01e9910f)" d="M 152.841232 122.087898 
L 149.975846 119.419669 
L 149.349816 118.012509 
L 147.940116 117.645691 
L 145.904266 115.933949 
L 140.724864 115.922199 
L 139.829994 118.012207 
L 140.046257 115.647416 
L 141.209057 112.811954 
L 141.306415 110.725196 
L 140.803248 108.272204 
L 139.892787 107.08131 
L 140.524598 106.676349 
L 140.102877 106.758332 
L 140.81122 104.501515 
L 138.645723 101.554211 
L 138.283872 102.467805 
L 138.535383 100.881805 
L 150.562791 101.964429 
L 150.139817 97.410036 
L 151.786955 96.17259 
L 153.641312 95.720738 
L 153.663517 88.027527 
L 164.232628 88.757668 
L 164.228997 84.833063 
L 177.068735 92.312743 
L 171.081508 92.111607 
L 174.322221 117.531572 
L 175.233655 118.419015 
L 174.715656 120.797794 
L 162.638947 120.426695 
L 162.08133 119.848659 
L 161.772717 120.50796 
L 157.800853 120.44215 
L 157.007624 121.241095 
L 155.267279 119.657138 
L 154.462357 120.266428 
L 153.898431 121.9024 
L 153.38834 122.314551 
L 152.841232 122.087898 
" style="fill:none;stroke:#000000;stroke-linecap:square;stroke-width:0.5;"/>
   </g>
   <g id="line2d_95">
    <path clip-path="url(#pdd01e9910f)" d="M 155.622069 129.740068 
L 155.619009 128.048535 
L 154.8535 126.672788 
L 154.239078 126.813324 
L 153.545513 125.786949 
L 153.654543 124.003104 
L 152.841232 122.087898 
L 153.38834 122.314551 
L 153.898431 121.9024 
L 154.462357 120.266428 
L 155.267279 119.657138 
L 157.007624 121.241095 
L 157.800853 120.44215 
L 161.772717 120.50796 
L 162.08133 119.848659 
L 162.638947 120.426695 
L 174.715656 120.797794 
L 175.233655 118.419015 
L 174.322221 117.531572 
L 171.081508 92.111607 
L 177.068735 92.312743 
L 198.775136 104.166244 
L 198.850042 105.015767 
L 201.011459 106.451468 
L 205.967099 107.833487 
L 206.41185 109.141082 
L 205.881198 109.929795 
L 206.412195 110.331889 
L 209.815775 109.885012 
L 209.657804 117.594563 
L 208.594888 120.116205 
L 207.28832 121.347356 
L 199.347409 121.674655 
L 198.039339 122.562575 
L 195.295967 122.783359 
L 191.948298 122.298819 
L 187.124833 124.146172 
L 186.615964 125.02383 
L 184.908847 124.828613 
L 183.60789 126.593215 
L 182.551211 126.551348 
L 182.363391 127.71243 
L 181.567064 128.005805 
L 180.09699 127.309526 
L 178.771355 128.164904 
L 179.123589 129.177361 
L 178.246035 129.541362 
L 178.425364 130.584257 
L 175.477795 132.128809 
L 175.606797 133.549775 
L 174.790329 134.586631 
L 174.678247 136.536765 
L 172.953454 137.243669 
L 172.269639 137.018547 
L 172.193435 135.547123 
L 171.649048 136.060223 
L 170.881562 135.73597 
L 170.751454 136.709731 
L 169.8982 136.715134 
L 169.67721 137.345902 
L 168.091668 136.365218 
L 166.478586 137.213224 
L 165.579687 136.157303 
L 165.349822 134.545458 
L 164.282825 134.456353 
L 165.151384 133.349165 
L 163.781145 132.340841 
L 162.820012 129.868103 
L 161.937849 129.792433 
L 162.057229 130.453197 
L 160.916645 131.084335 
L 159.134969 130.484413 
L 157.760941 131.423353 
L 157.054968 130.427647 
L 155.886126 130.979843 
L 155.268808 130.374688 
L 155.622069 129.740068 
" style="fill:none;stroke:#000000;stroke-linecap:square;stroke-width:0.5;"/>
   </g>
   <g id="line2d_96"/>
   <g id="line2d_97"/>
   <g id="line2d_98">
    <path clip-path="url(#pdd01e9910f)" d="M 299.579205 227.358985 
L 298.916344 227.276993 
L 297.902058 225.591217 
L 298.838942 224.455195 
L 299.009498 222.37304 
L 300.563616 221.605884 
L 299.739343 220.635425 
L 299.677195 218.124285 
L 300.143151 217.250486 
L 299.767794 216.235848 
L 301.037767 215.169591 
L 298.859293 210.618309 
L 301.968401 211.987855 
L 302.066861 213.359794 
L 302.91013 214.866728 
L 303.147765 219.496239 
L 302.219916 221.365359 
L 303.171227 224.168407 
L 303.142135 225.721178 
L 304.054481 226.914622 
L 303.932748 228.450223 
L 304.453939 229.122489 
L 305.021456 228.345826 
L 306.210014 229.88585 
L 304.875515 226.534197 
L 308.074836 231.244769 
L 307.89237 235.798234 
L 306.268536 236.48165 
L 305.866102 237.49926 
L 306.207168 239.529585 
L 305.534617 239.245991 
L 305.58384 238.39977 
L 303.448219 235.905821 
L 302.909505 234.542637 
L 303.84744 232.65263 
L 303.733319 230.16193 
L 303.179361 229.389044 
L 300.957965 229.550995 
L 299.579205 227.358985 
" style="fill:none;stroke:#000000;stroke-linecap:square;stroke-width:0.5;"/>
   </g>
   <g id="line2d_99">
    <path clip-path="url(#pdd01e9910f)" d="M 336.527011 276.857478 
L 335.16694 273.747116 
L 335.360819 270.929524 
L 333.670321 266.061969 
L 334.544299 262.511104 
L 335.650392 262.206816 
L 337.912516 258.180246 
L 338.078824 256.353548 
L 336.544528 251.54 
L 336.318027 248.044759 
L 337.975415 245.854612 
L 338.181925 244.02792 
" style="fill:none;stroke:#000000;stroke-linecap:square;stroke-width:0.5;"/>
   </g>
   <g id="line2d_100">
    <path clip-path="url(#pdd01e9910f)" d="M 264.164079 29.368128 
L 266.18448 28.436289 
L 267.844736 29.2609 
L 268.46424 30.174971 
L 268.243534 31.672868 
L 267.270248 32.730719 
L 265.449401 33.225355 
L 264.203698 34.499 
L 261.712613 34.953622 
L 260.960956 33.773636 
L 261.152457 31.539799 
L 261.665403 31.377871 
L 261.823935 30.600998 
L 264.164079 29.368128 
" style="fill:none;stroke:#000000;stroke-linecap:square;stroke-width:0.5;"/>
   </g>
   <g id="line2d_101"/>
   <g id="line2d_102">
    <path clip-path="url(#pdd01e9910f)" d="M 227.39464 75.597142 
L 228.595554 75.017987 
L 229.617145 73.703444 
L 229.295024 71.59323 
L 229.801757 70.856134 
L 233.677404 68.210019 
L 233.676182 65.755364 
L 236.093992 66.552784 
L 239.199128 66.039719 
L 244.991781 67.021295 
L 246.599013 69.90211 
L 253.00641 70.590664 
L 256.881953 72.103403 
L 258.644537 71.098649 
L 259.834113 69.360825 
L 259.28113 66.68776 
L 259.593513 65.685584 
L 262.671864 62.919569 
L 266.028309 61.77411 
L 268.72404 62.199821 
L 268.770696 63.144316 
L 269.308482 63.418992 
L 274.287715 63.168517 
L 274.886873 64.025583 
L 273.994123 65.296409 
L 274.319918 67.396195 
L 273.546136 69.142038 
L 274.376424 72.303401 
L 274.374081 101.858388 
L 271.38236 102.34758 
L 271.38236 103.941838 
L 247.441492 94.686959 
L 242.060645 97.74123 
L 239.807956 96.229943 
L 235.123073 95.581184 
L 233.685657 93.270955 
L 229.963967 92.876535 
L 228.931843 90.513262 
L 227.086139 88.156188 
L 228.482018 86.834291 
L 228.593688 85.924327 
L 228.125549 84.480952 
L 228.662409 83.051929 
L 228.358785 78.983817 
L 226.72686 75.998834 
L 227.39464 75.597142 
" style="fill:none;stroke:#000000;stroke-linecap:square;stroke-width:0.5;"/>
   </g>
   <g id="line2d_103">
    <path clip-path="url(#pdd01e9910f)" d="M 155.252148 147.610126 
L 157.95593 144.82658 
L 159.108495 142.459902 
L 161.08 142.550229 
L 162.021863 145.110742 
L 161.718633 146.060226 
L 162.829272 146.750317 
L 163.563029 146.609432 
L 164.566998 145.254153 
L 165.482257 147.275451 
L 164.487037 149.155596 
L 166.811632 150.114818 
L 167.112723 150.998594 
L 168.234819 151.468627 
L 167.937224 156.593335 
L 162.782345 154.084906 
L 159.13017 150.510076 
L 155.252148 147.610126 
" style="fill:none;stroke:#000000;stroke-linecap:square;stroke-width:0.5;"/>
   </g>
   <g id="line2d_104">
    <path clip-path="url(#pdd01e9910f)" d="M 285.725739 278.463434 
L 284.674946 278.342789 
L 283.655388 279.703866 
L 282.733431 279.36269 
L 281.62848 278.132672 
L 280.625625 275.587614 
L 282.680117 273.810123 
L 285.386838 273.287679 
L 287.724443 276.190498 
L 286.828668 278.138519 
L 285.725739 278.463434 
" style="fill:none;stroke:#000000;stroke-linecap:square;stroke-width:0.5;"/>
   </g>
   <g id="line2d_105"/>
   <g id="line2d_106"/>
   <g id="line2d_107"/>
   <g id="line2d_108">
    <path clip-path="url(#pdd01e9910f)" d="M 302.033309 171.52152 
L 303.657787 167.754337 
L 304.676528 166.828453 
L 305.255537 164.462266 
L 305.021771 161.383377 
L 303.549068 158.522736 
L 303.516492 156.47453 
L 302.643339 155.847754 
L 302.03975 154.201993 
L 306.193567 148.704706 
L 306.378022 149.206475 
L 307.741845 149.178128 
L 307.800708 151.376558 
L 308.645678 152.726458 
L 311.551111 152.752698 
L 315.488437 155.7551 
L 320.2763 156.296829 
L 321.475031 154.454873 
L 324.690685 152.335246 
L 326.012419 153.618942 
L 328.658137 153.346342 
L 325.391406 158.904833 
L 325.441649 176.833175 
L 327.403804 180.898998 
L 326.461981 182.0607 
L 325.128349 182.379492 
L 325.158248 183.542416 
L 324.265941 184.758762 
L 322.793737 185.37159 
L 322.421731 187.915245 
L 319.872859 193.815596 
L 319.232867 193.986042 
L 314.518889 189.293819 
L 313.886519 188.482567 
L 314.00561 186.510727 
L 302.294497 177.222576 
L 302.674566 174.65165 
L 303.576322 174.772751 
L 303.645252 174.125836 
L 304.72371 173.775246 
L 304.415601 172.924919 
L 303.026109 174.108287 
L 302.033309 171.52152 
" style="fill:none;stroke:#000000;stroke-linecap:square;stroke-width:0.5;"/>
   </g>
   <g id="line2d_109"/>
   <g id="line2d_110">
    <path clip-path="url(#pdd01e9910f)" d="M 307.879637 50.436025 
L 309.792822 50.995975 
L 311.262833 50.705078 
L 317.812442 44.275971 
L 318.724701 47.875217 
L 319.584242 47.76161 
L 318.454918 49.131486 
L 311.726569 53.526369 
L 315.132002 55.862399 
L 314.025845 56.877331 
L 313.422803 58.303308 
L 311.054504 59.601378 
L 308.624289 62.82809 
L 305.166985 63.393104 
L 306.747632 56.584832 
L 307.181561 51.028416 
L 307.879637 50.436025 
" style="fill:none;stroke:#000000;stroke-linecap:square;stroke-width:0.5;"/>
   </g>
   <g id="line2d_111"/>
   <g id="line2d_112"/>
   <g id="line2d_113"/>
   <g id="line2d_114">
    <path clip-path="url(#pdd01e9910f)" d="M 236.455523 27.182616 
L 240.062934 29.144853 
L 241.432701 32.235973 
L 243.054552 33.632719 
L 244.968025 34.46826 
L 247.987791 34.097402 
L 247.188407 35.641976 
L 253.380198 37.629336 
L 254.89667 38.899388 
L 254.695312 40.077976 
L 253.749142 40.141704 
L 253.110207 39.033263 
L 250.29266 38.914571 
L 249.067119 41.665264 
L 250.853891 42.652609 
L 251.034698 43.967921 
L 249.353311 44.951529 
L 249.138752 46.349927 
L 247.661668 48.206094 
L 246.655257 48.37341 
L 246.408332 47.597517 
L 248.124804 44.663358 
L 246.559047 41.222331 
L 244.305075 40.693968 
L 243.740963 39.247931 
L 242.441157 39.692211 
L 242.809711 39.172837 
L 241.536525 39.06086 
L 240.582902 37.675834 
L 238.598385 37.920877 
L 234.091327 34.707172 
L 232.417334 34.430574 
L 232.620135 33.972714 
L 230.562482 32.609649 
L 229.710395 29.403569 
L 229.081208 28.838049 
L 224.974945 27.717364 
L 222.505748 29.986179 
L 220.830109 30.526572 
L 221.302927 28.998478 
L 218.873127 28.530984 
" style="fill:none;stroke:#000000;stroke-linecap:square;stroke-width:0.5;"/>
   </g>
   <g id="line2d_115">
    <path clip-path="url(#pdd01e9910f)" d="M 246.206623 47.473618 
L 244.757439 50.304745 
L 245.353922 51.589655 
L 244.797247 52.913475 
L 242.935876 52.800634 
L 242.193891 52.064747 
L 237.211957 50.841019 
L 236.577364 50.149858 
L 237.503445 48.799627 
L 238.024156 49.24284 
L 239.222597 48.556671 
L 240.75318 49.077541 
L 246.206623 47.473618 
" style="fill:none;stroke:#000000;stroke-linecap:square;stroke-width:0.5;"/>
   </g>
   <g id="line2d_116">
    <path clip-path="url(#pdd01e9910f)" d="M 227.756756 40.444818 
L 228.309601 41.746577 
L 227.791693 42.608746 
L 227.53455 46.469948 
L 225.911321 46.35778 
L 225.622437 47.330215 
L 224.59594 47.540537 
L 223.849797 46.638798 
L 224.269801 44.411886 
L 223.816216 44.175836 
L 224.022064 42.846958 
L 223.108344 41.655992 
L 223.219851 40.722046 
L 224.347899 40.855736 
L 226.464287 39.227569 
L 227.756756 40.444818 
" style="fill:none;stroke:#000000;stroke-linecap:square;stroke-width:0.5;"/>
   </g>
   <g id="line2d_117">
    <path clip-path="url(#pdd01e9910f)" d="M 308.14652 47.809332 
L 308.291224 49.508091 
L 307.181561 51.028416 
L 307.112046 51.937302 
L 305.950459 51.851936 
L 305.183685 53.460065 
L 305.200385 54.659173 
L 305.984272 54.648665 
L 304.940221 56.367415 
L 306.7844 55.335975 
L 305.017048 63.007945 
L 302.900129 57.620088 
L 303.798526 56.196887 
L 305.676632 49.97233 
L 306.656686 49.647811 
L 308.14652 47.809332 
" style="fill:none;stroke:#000000;stroke-linecap:square;stroke-width:0.5;"/>
   </g>
   <g id="line2d_118"/>
   <g id="line2d_119">
    <path clip-path="url(#pdd01e9910f)" d="M 339.090699 51.172498 
L 329.34154 48.116929 
L 323.305321 47.391625 
L 319.079925 48.405077 
L 319.584242 47.76161 
L 318.724701 47.875217 
L 317.812442 44.275971 
L 325.470907 37.025768 
L 326.204421 35.387032 
L 326.769071 31.739475 
L 326.563022 28.91594 
L 328.316641 27.242949 
" style="fill:none;stroke:#000000;stroke-linecap:square;stroke-width:0.5;"/>
   </g>
   <g id="line2d_120"/>
   <g id="line2d_121"/>
   <g id="line2d_122"/>
   <g id="line2d_123"/>
   <g id="line2d_124"/>
   <g id="line2d_125"/>
   <g id="line2d_126"/>
   <g id="line2d_127"/>
   <g id="line2d_128"/>
   <g id="line2d_129"/>
   <g id="line2d_130"/>
   <g id="line2d_131"/>
   <g id="line2d_132">
    <path clip-path="url(#pdd01e9910f)" d="M 139.297239 129.009106 
L 142.736209 128.796289 
L 143.886334 128.262225 
L 148.367342 128.538688 
L 148.432866 129.688743 
L 147.693511 130.077727 
L 148.340506 130.648717 
L 148.356547 131.523182 
L 145.448908 132.100484 
L 144.351952 133.875624 
L 144.316737 133.220822 
L 143.807214 133.552339 
L 143.025431 132.282183 
L 144.261765 131.747938 
L 142.957408 131.267877 
L 144.24468 130.555059 
L 141.624163 130.986008 
L 141.68936 130.503336 
L 140.455693 130.059997 
L 140.708038 129.479747 
L 139.297239 129.009106 
" style="fill:none;stroke:#000000;stroke-linecap:square;stroke-width:0.5;"/>
   </g>
   <g id="line2d_133">
    <path clip-path="url(#pdd01e9910f)" d="M 159.108495 142.459902 
L 157.75185 142.915364 
L 158.420265 141.776325 
L 157.641699 140.419607 
L 157.819964 139.711476 
L 156.198385 137.506381 
L 152.383622 137.623398 
L 150.526306 140.146845 
L 149.710089 140.293869 
L 149.267914 139.057326 
L 148.483703 138.646206 
L 148.488502 137.365458 
L 146.230565 136.217296 
L 145.165428 133.94601 
L 144.326989 134.216405 
L 145.448908 132.100484 
L 148.356547 131.523182 
L 148.340506 130.648717 
L 147.693511 130.077727 
L 148.432866 129.688743 
L 148.367342 128.538688 
L 150.356896 128.770796 
L 150.423656 129.228563 
L 152.473338 129.802616 
L 155.622069 129.740068 
L 155.268808 130.374688 
L 155.886126 130.979843 
L 157.054968 130.427647 
L 157.760941 131.423353 
L 159.134969 130.484413 
L 160.791391 131.119547 
L 162.057229 130.453197 
L 161.937849 129.792433 
L 163.06891 130.025494 
L 163.781145 132.340841 
L 165.151384 133.349165 
L 164.282825 134.456353 
L 165.349822 134.545458 
L 165.579687 136.157303 
L 166.494678 136.842866 
L 165.942304 137.806983 
L 166.001601 139.344735 
L 166.786904 139.620136 
L 167.173435 140.712124 
L 166.607986 141.655194 
L 167.364624 142.139049 
L 167.490358 142.900961 
L 165.764024 142.627582 
L 165.613972 143.376085 
L 166.415824 143.967487 
L 165.777049 145.565455 
L 164.305244 145.211292 
L 163.563029 146.609432 
L 162.829272 146.750317 
L 161.718633 146.060226 
L 162.021863 145.110742 
L 161.544422 142.980288 
L 160.702159 142.330058 
L 159.108495 142.459902 
" style="fill:none;stroke:#000000;stroke-linecap:square;stroke-width:0.5;"/>
   </g>
   <g id="line2d_134"/>
   <g id="line2d_135">
    <path clip-path="url(#pdd01e9910f)" d="M 278.404806 27.39053 
L 279.189822 27.585373 
L 279.321186 28.305747 
L 278.434224 29.201992 
L 278.504835 30.095502 
L 277.767294 31.252978 
L 274.748911 31.227436 
L 270.73213 33.275615 
L 271.043048 34.411126 
L 272.077882 34.465101 
L 272.468599 35.022584 
L 270.62792 34.85046 
L 271.283069 36.014196 
L 269.726501 35.331734 
L 270.467094 36.256088 
L 269.634897 36.361415 
L 269.385194 35.595791 
L 268.144412 35.243064 
L 268.221377 34.520009 
L 267.347482 35.094712 
L 267.23615 36.802988 
L 269.432157 39.376766 
L 268.915337 39.773044 
L 268.936334 39.203596 
L 268.218753 39.209058 
L 268.652599 40.068076 
L 267.16737 41.047717 
L 271.342643 42.119255 
L 271.606956 44.064451 
L 269.952031 43.329348 
L 268.561916 44.228479 
L 269.914684 45.443181 
L 268.93575 46.057294 
L 267.633699 45.638373 
L 268.931668 49.151781 
L 267.609215 48.261498 
L 266.745396 49.565817 
L 265.709277 47.882107 
L 265.148163 49.021598 
L 264.687871 48.687772 
L 264.224965 48.034656 
L 264.511331 46.903847 
L 262.85804 45.506127 
L 263.69039 44.24747 
L 265.329953 43.431691 
L 268.215546 44.029994 
L 269.001367 43.215107 
L 266.727329 42.68514 
L 263.895773 43.76062 
L 263.473642 43.269026 
L 263.03081 43.86984 
L 261.795376 42.270314 
L 262.818999 41.9643 
L 262.839103 41.483268 
L 261.828597 41.785759 
L 260.399201 40.962948 
L 259.504849 39.787133 
L 260.242343 39.738945 
L 260.642924 39.204281 
L 260.430105 38.613769 
L 261.463731 37.884478 
L 262.578045 35.78983 
L 262.379331 35.002309 
L 264.203698 34.499 
L 265.449401 33.225355 
L 266.941806 32.895436 
L 267.808299 31.87685 
L 271.609001 30.118604 
L 272.992184 29.632355 
L 275.188934 30.162354 
L 277.208148 29.300246 
L 277.846071 28.8251 
L 277.696166 27.657939 
L 278.404806 27.39053 
" style="fill:none;stroke:#000000;stroke-linecap:square;stroke-width:0.5;"/>
   </g>
   <g id="line2d_136">
    <path clip-path="url(#pdd01e9910f)" d="M 194.207302 134.512416 
L 194.13983 135.906357 
L 195.914356 137.11164 
L 195.35633 139.750574 
L 196.460371 139.957844 
L 195.883 142.014344 
L 197.063708 143.322395 
L 196.460003 148.258061 
L 197.253196 149.58283 
L 198.929612 150.796145 
L 198.047704 151.737302 
L 195.455895 151.918404 
L 187.020128 155.296593 
L 183.028067 154.163536 
L 184.089626 153.94829 
L 184.306403 152.997038 
L 183.439049 152.047681 
L 182.596643 148.368293 
L 184.182198 144.671072 
L 185.199131 143.774036 
L 184.3352 141.060639 
L 184.265224 137.245427 
L 183.735848 136.118942 
L 184.038743 134.839848 
L 192.095773 135.1025 
L 193.330906 134.350908 
L 194.207302 134.512416 
" style="fill:none;stroke:#000000;stroke-linecap:square;stroke-width:0.5;"/>
   </g>
   <g id="line2d_137"/>
   <g id="line2d_138"/>
   <g id="line2d_139">
    <path clip-path="url(#pdd01e9910f)" d="M 239.230119 164.257001 
L 238.992061 167.687096 
L 241.954556 167.204365 
L 242.716035 168.991381 
L 242.393089 170.062857 
L 241.246234 171.115971 
L 240.971622 173.296632 
L 242.851174 174.741858 
L 242.575782 179.764315 
L 241.381828 181.988094 
L 240.584101 180.671856 
L 239.757782 181.615666 
L 238.29992 181.295459 
L 237.057652 179.475526 
L 236.566757 179.851693 
L 236.610999 181.338364 
L 233.99179 181.357888 
L 233.780095 183.162473 
L 235.018064 184.922875 
L 234.848764 186.167853 
L 233.675265 185.628986 
L 232.50203 187.024585 
L 228.044227 181.761096 
L 229.12684 182.070527 
L 227.733046 181.391858 
L 226.69053 179.68133 
L 227.280909 179.654071 
L 226.5837 179.393049 
L 225.846908 177.471446 
L 226.754418 178.679181 
L 227.338093 178.396746 
L 226.680506 178.24476 
L 226.843649 177.535986 
L 225.938023 177.432411 
L 224.772418 174.763145 
L 225.557322 175.135895 
L 226.683325 173.851471 
L 226.869943 171.177672 
L 228.282515 172.32886 
L 228.934328 171.746768 
L 227.483341 171.359733 
L 226.773519 170.381201 
L 227.711831 170.286326 
L 227.625078 168.560613 
L 233.146001 168.661018 
L 233.187028 163.807522 
L 239.230119 164.257001 
" style="fill:none;stroke:#000000;stroke-linecap:square;stroke-width:0.5;"/>
   </g>
   <g id="line2d_140">
    <path clip-path="url(#pdd01e9910f)" d="M 218.873127 28.530984 
L 221.302927 28.998478 
L 220.830109 30.526572 
L 216.257254 33.40619 
L 212.680897 32.223358 
L 211.489184 32.541657 
L 208.713224 31.950945 
L 205.688458 34.432257 
L 206.254624 36.177996 
L 202.029456 36.556266 
L 200.852949 35.665952 
L 197.356254 34.852652 
L 196.858589 35.396323 
L 194.311825 35.404384 
L 188.997998 34.046621 
L 189.182584 33.357603 
L 187.776957 32.721785 
L 188.909646 32.159889 
L 189.792168 28.445314 
L 190.416664 27.959917 
L 189.793251 28.041139 
" style="fill:none;stroke:#000000;stroke-linecap:square;stroke-width:0.5;"/>
   </g>
   <g id="line2d_141"/>
   <g id="line2d_142"/>
   <g id="line2d_143">
    <path clip-path="url(#pdd01e9910f)" d="M 306.193567 148.704706 
L 304.393293 144.202817 
L 301.804892 141.159806 
L 298.981117 139.771802 
L 299.83027 137.843782 
L 301.967154 137.574927 
L 302.417977 136.996349 
L 302.369307 133.499907 
L 302.997345 129.648612 
L 303.947177 128.21402 
L 304.588477 128.614688 
L 305.104606 128.100245 
L 305.688628 124.508955 
L 307.498261 121.259642 
L 308.925505 120.636779 
L 310.293317 114.815054 
L 311.944858 114.436182 
L 312.717088 113.62061 
L 313.762924 114.523042 
L 314.810176 111.737621 
L 316.652877 112.905798 
L 318.836709 111.705681 
L 319.259927 112.166649 
L 322.509241 111.54796 
L 324.883483 112.323964 
L 330.437951 117.480808 
L 328.331309 120.97853 
L 328.351218 123.768564 
L 332.416118 122.924305 
L 331.445558 124.719931 
L 332.119826 126.207705 
L 334.472842 129.185035 
L 336.334431 130.421033 
L 339.942043 148.021357 
L 334.846315 148.800564 
L 332.174699 151.473592 
L 329.160816 152.577727 
L 328.658137 153.346342 
L 326.012419 153.618942 
L 324.690685 152.335246 
L 321.475031 154.454873 
L 320.2763 156.296829 
L 315.488437 155.7551 
L 311.551111 152.752698 
L 308.645678 152.726458 
L 307.800708 151.376558 
L 307.741845 149.178128 
L 306.378022 149.206475 
L 306.193567 148.704706 
" style="fill:none;stroke:#000000;stroke-linecap:square;stroke-width:0.5;"/>
   </g>
   <g id="line2d_144"/>
   <g id="line2d_145">
    <path clip-path="url(#pdd01e9910f)" d="M 310.293317 114.815054 
L 309.972487 111.72392 
L 311.578245 107.214707 
L 311.893421 104.422398 
L 313.228855 104.106697 
L 313.683714 103.062835 
L 316.052126 101.564521 
L 317.255573 99.75684 
L 318.70104 102.727013 
L 319.605323 106.766605 
L 321.279323 109.325251 
L 321.54965 107.981384 
L 322.729879 109.409403 
L 326.139824 110.113382 
L 327.850979 112.154702 
L 329.95622 113.208378 
L 330.513177 114.543357 
L 333.126138 115.953366 
L 331.617451 117.572985 
L 330.437951 117.480808 
L 324.883483 112.323964 
L 322.509241 111.54796 
L 319.259927 112.166649 
L 318.66472 111.742659 
L 316.652877 112.905798 
L 314.810176 111.737621 
L 313.762924 114.523042 
L 312.717088 113.62061 
L 311.944858 114.436182 
L 310.293317 114.815054 
" style="fill:none;stroke:#000000;stroke-linecap:square;stroke-width:0.5;"/>
   </g>
   <g id="line2d_146">
    <path clip-path="url(#pdd01e9910f)" d="M 311.438083 87.143557 
L 294.033668 91.531418 
L 293.927298 90.865338 
L 293.333115 91.693681 
L 274.376424 95.47014 
L 274.376424 72.303401 
L 273.546136 69.142038 
L 274.319918 67.396195 
L 273.994123 65.296409 
L 274.886873 64.025583 
L 275.58226 64.336922 
L 277.117688 63.610422 
L 286.749247 63.803686 
L 290.280737 61.35823 
L 290.812627 60.520854 
L 292.446808 59.663933 
L 291.331042 60.509365 
L 292.689311 59.950868 
L 292.941062 59.390337 
L 294.313722 59.478201 
L 295.451112 58.841709 
L 296.224094 59.299 
L 295.461183 59.043333 
L 295.082953 59.817983 
L 296.116749 60.193856 
L 296.681073 59.644548 
L 296.47531 59.385595 
L 297.690921 59.789507 
L 301.053605 58.501343 
L 302.749214 57.267036 
L 305.017048 63.007945 
L 302.819506 69.655138 
L 299.72481 67.817082 
L 297.572659 63.619879 
L 296.925583 64.997443 
L 298.620099 68.154116 
L 300.674019 69.836977 
L 301.985535 73.741309 
L 305.953303 80.076394 
L 307.868496 81.389774 
L 307.077454 81.672769 
L 306.959115 82.19439 
L 307.588227 84.899746 
L 311.438083 87.143557 
" style="fill:none;stroke:#000000;stroke-linecap:square;stroke-width:0.5;"/>
   </g>
   <g id="line2d_147"/>
   <g id="line2d_148"/>
   <g id="line2d_149"/>
   <g id="line2d_150"/>
   <g id="line2d_151"/>
   <g id="line2d_152"/>
   <g id="line2d_153">
    <path clip-path="url(#pdd01e9910f)" d="M 251.3333 27.685917 
L 252.269495 29.421107 
L 250.21703 28.104323 
L 247.445925 28.134187 
" style="fill:none;stroke:#000000;stroke-linecap:square;stroke-width:0.5;"/>
   </g>
   <g id="line2d_154">
    <path clip-path="url(#pdd01e9910f)" d="M 166.478586 137.213224 
L 168.091668 136.365218 
L 169.67721 137.345902 
L 169.8982 136.715134 
L 170.751454 136.709731 
L 170.881562 135.73597 
L 171.649048 136.060223 
L 172.193435 135.547123 
L 172.269639 137.018547 
L 172.675985 137.21621 
L 174.566227 136.490733 
L 176.119664 137.145337 
L 176.563861 138.144692 
L 177.745233 138.852286 
L 178.759181 139.081727 
L 180.644432 138.234771 
L 182.640014 138.322851 
L 184.085792 139.835654 
L 184.517868 139.660775 
L 184.3352 141.060639 
L 185.199131 143.774036 
L 184.182198 144.671072 
L 182.567966 148.895823 
L 183.439049 152.047681 
L 184.168248 152.427732 
L 184.089626 153.94829 
L 182.834191 153.771917 
L 182.723502 153.255071 
L 182.201628 154.015965 
L 179.495006 153.389071 
L 177.803596 153.629413 
L 179.783675 153.662498 
L 175.497406 153.69899 
L 175.207764 153.900127 
L 176.249595 153.977556 
L 173.359841 154.363576 
L 167.937224 156.593335 
L 168.234819 151.468627 
L 167.112723 150.998594 
L 166.811632 150.114818 
L 164.487037 149.155596 
L 165.463696 147.58585 
L 164.866375 145.652769 
L 165.692718 145.674749 
L 166.415824 143.967487 
L 165.613972 143.376085 
L 165.676204 142.715937 
L 167.490358 142.900961 
L 167.364624 142.139049 
L 166.607986 141.655194 
L 167.173435 140.712124 
L 166.786904 139.620136 
L 166.001601 139.344735 
L 165.942304 137.806983 
L 166.478586 137.213224 
" style="fill:none;stroke:#000000;stroke-linecap:square;stroke-width:0.5;"/>
   </g>
   <g id="line2d_155"/>
   <g id="line2d_156">
    <path clip-path="url(#pdd01e9910f)" d="M 291.913001 205.40233 
L 286.217834 205.912226 
L 286.130466 206.989539 
L 284.701107 208.422616 
L 285.399937 210.653199 
L 285.426731 213.612899 
L 284.568828 216.35183 
L 284.950301 217.538474 
L 286.725662 219.620367 
L 288.015048 220.032403 
L 288.08451 219.381941 
L 288.965119 219.246207 
L 288.903915 223.674872 
L 288.225563 222.927359 
L 286.870175 223.237525 
L 284.73827 219.944552 
L 282.067367 218.503674 
L 280.934725 216.257532 
L 279.922073 217.462624 
L 277.516906 216.933835 
L 275.483766 215.806936 
L 275.301757 214.392521 
L 272.57207 214.811688 
L 272.535533 213.836506 
L 271.341182 212.848103 
L 270.944657 213.291401 
L 267.143181 213.088355 
L 266.301029 213.477583 
L 266.288208 210.333703 
L 264.911898 207.546317 
L 265.18691 204.912157 
L 264.817801 200.097013 
L 261.315676 199.76716 
L 261.26263 198.51249 
L 259.128274 198.634082 
L 258.089735 199.13187 
L 257.531233 201.94025 
L 252.252766 202.114414 
L 250.463017 199.161737 
L 249.596372 195.351273 
L 248.794071 194.40132 
L 238.334904 193.860827 
L 236.822434 194.40024 
L 235.888187 193.53265 
L 236.788819 193.337523 
L 236.626755 191.166842 
L 237.798323 190.019131 
L 238.746325 189.573252 
L 239.603916 190.413439 
L 240.356154 190.022345 
L 240.532824 189.081883 
L 242.497281 188.573751 
L 242.657552 190.464759 
L 243.56469 190.666054 
L 247.459523 186.767126 
L 248.147243 184.08813 
L 248.141043 180.912617 
L 250.146984 177.307964 
L 252.77326 174.682634 
L 253.731856 164.63115 
L 255.380591 159.744284 
L 255.216773 156.243447 
L 256.716882 153.898266 
L 258.563123 153.001516 
L 261.167322 155.298223 
L 266.728786 156.307672 
L 268.049083 154.066288 
L 269.699369 154.220137 
L 272.398162 152.865109 
L 274.631176 152.854165 
L 276.011245 151.495295 
L 279.916177 152.217182 
L 280.80097 151.654907 
L 281.673418 151.940421 
L 284.066477 154.721306 
L 285.695651 154.033981 
L 287.216711 154.391642 
L 287.966251 153.490647 
L 288.601928 153.551194 
L 292.359352 157.82382 
L 291.843192 161.977701 
L 293.499848 163.157732 
L 289.419317 168.93705 
L 288.621827 173.026909 
L 288.04828 173.287484 
L 287.529117 174.799379 
L 287.649952 175.274615 
L 288.499058 174.706059 
L 288.295358 178.466231 
L 287.20588 179.69291 
L 286.629246 179.520098 
L 286.071732 182.802484 
L 287.215217 185.296836 
L 287.176667 188.410783 
L 287.762741 190.863043 
L 287.518351 192.598464 
L 288.387636 195.823662 
L 288.18453 198.053969 
L 290.250037 200.945654 
L 291.913001 205.40233 
" style="fill:none;stroke:#000000;stroke-linecap:square;stroke-width:0.5;"/>
   </g>
   <g id="line2d_157">
    <path clip-path="url(#pdd01e9910f)" d="M 232.50203 187.024585 
L 233.675265 185.628986 
L 234.848764 186.167853 
L 235.018064 184.922875 
L 233.780095 183.162473 
L 233.99179 181.357888 
L 236.610999 181.338364 
L 236.566757 179.851693 
L 237.057652 179.475526 
L 238.29992 181.295459 
L 239.757782 181.615666 
L 240.584101 180.671856 
L 241.381828 181.988094 
L 242.575782 179.764315 
L 242.851174 174.741858 
L 240.971622 173.296632 
L 241.246234 171.115971 
L 242.393089 170.062857 
L 242.716035 168.991381 
L 241.954556 167.204365 
L 238.992061 167.687096 
L 239.230119 164.257001 
L 243.171111 164.072056 
L 244.157565 164.75942 
L 246.707056 165.096087 
L 247.669351 165.990081 
L 247.731989 164.360222 
L 248.906135 161.632595 
L 249.335335 159.141703 
L 251.827086 158.427537 
L 253.998148 159.053393 
L 255.014014 158.643117 
L 255.380591 159.744284 
L 253.731856 164.63115 
L 252.77326 174.682634 
L 250.146984 177.307964 
L 248.141043 180.912617 
L 247.933745 185.677308 
L 247.103527 187.36781 
L 243.56469 190.666054 
L 242.657552 190.464759 
L 242.497281 188.573751 
L 240.532824 189.081883 
L 240.356154 190.022345 
L 239.603916 190.413439 
L 237.701064 188.937944 
L 235.280371 190.903723 
L 232.50203 187.024585 
" style="fill:none;stroke:#000000;stroke-linecap:square;stroke-width:0.5;"/>
   </g>
   <g id="line2d_158"/>
   <g id="line2d_159"/>
   <g id="line2d_160"/>
   <g id="line2d_161"/>
   <g id="line2d_162"/>
   <g id="line2d_163">
    <path clip-path="url(#pdd01e9910f)" d="M 271.38236 103.941838 
L 271.354032 116.092126 
L 268.767488 116.47214 
L 268.25607 117.080765 
L 268.251405 118.281929 
L 266.607565 120.449561 
L 267.076152 121.662014 
L 265.786776 122.976827 
L 266.149807 124.475408 
L 264.948022 126.359609 
L 266.520439 126.636219 
L 267.232944 130.150967 
L 268.222543 130.846025 
L 268.035673 132.290473 
L 266.942681 132.129177 
L 264.787503 133.496483 
L 264.522693 134.70393 
L 260.522523 138.921727 
L 256.38083 139.818254 
L 256.170678 140.177975 
L 256.836962 140.747927 
L 255.206826 142.914354 
L 252.462587 143.267169 
L 249.860251 144.861728 
L 249.137868 143.825435 
L 247.36138 145.116841 
L 245.913848 145.120972 
L 246.125445 144.21861 
L 244.808238 141.692311 
L 241.330948 138.098259 
L 242.145497 137.119517 
L 246.444164 136.816799 
L 244.856952 134.807527 
L 244.701882 130.95058 
L 243.988885 128.892281 
L 242.813291 127.310285 
L 241.596653 127.20112 
L 240.192613 125.308367 
L 239.706399 123.21902 
L 242.526832 118.776433 
L 245.896359 114.936671 
L 246.687225 105.631997 
L 247.378231 104.209226 
L 245.007816 100.822052 
L 244.390706 96.373339 
L 247.441492 94.686959 
L 271.38236 103.941838 
" style="fill:none;stroke:#000000;stroke-linecap:square;stroke-width:0.5;"/>
   </g>
   <g id="line2d_164">
    <path clip-path="url(#pdd01e9910f)" d="M 271.88213 139.69116 
L 272.313116 140.968672 
L 273.995879 141.382834 
L 275.036573 142.473372 
L 275.272158 143.815099 
L 278.528079 146.453814 
L 278.987524 148.506658 
L 280.888661 149.674483 
L 281.673418 151.940421 
L 280.670785 151.655224 
L 279.916177 152.217182 
L 276.011245 151.495295 
L 274.631176 152.854165 
L 272.398162 152.865109 
L 269.699369 154.220137 
L 268.049083 154.066288 
L 266.728786 156.307672 
L 261.167322 155.298223 
L 260.177031 153.995501 
L 258.010044 153.00064 
L 256.716882 153.898266 
L 255.296638 155.918502 
L 255.345197 159.098879 
L 254.937932 158.575423 
L 253.998148 159.053393 
L 251.988284 158.413742 
L 249.335335 159.141703 
L 248.04449 163.742225 
L 247.681761 161.369825 
L 244.846259 158.070501 
L 244.648102 156.428861 
L 243.635862 155.321445 
L 243.122523 152.944805 
L 243.287044 150.899675 
L 242.749152 150.149029 
L 243.660278 149.454185 
L 245.913848 145.120972 
L 247.36138 145.116841 
L 249.137868 143.825435 
L 249.860251 144.861728 
L 252.462587 143.267169 
L 255.206826 142.914354 
L 256.836962 140.747927 
L 256.177401 139.996143 
L 260.522523 138.921727 
L 261.386207 138.272982 
L 265.597984 132.826194 
L 266.942681 132.129177 
L 268.035673 132.290473 
L 270.383915 135.810972 
L 269.851954 138.290388 
L 270.058241 139.309332 
L 271.88213 139.69116 
" style="fill:none;stroke:#000000;stroke-linecap:square;stroke-width:0.5;"/>
   </g>
   <g id="line2d_165"/>
   <g id="line2d_166"/>
   <g id="line2d_167"/>
   <g id="line2d_168"/>
   <g id="line2d_169"/>
   <g id="line2d_170"/>
   <g id="line2d_171"/>
   <g id="line2d_172"/>
   <g id="line2d_173"/>
   <g id="line2d_174"/>
   <g id="line2d_175"/>
   <g id="line2d_176"/>
   <g id="line2d_177"/>
   <g id="line2d_178"/>
   <g id="line2d_179"/>
   <g id="line2d_180"/>
   <g id="line2d_181"/>
   <g id="line2d_182"/>
   <g id="line2d_183"/>
   <g id="line2d_184"/>
   <g id="line2d_185"/>
   <g id="line2d_186"/>
   <g id="line2d_187">
    <path clip-path="url(#pdd01e9910f)" d="M 224.296048 155.148438 
L 225.720864 151.131489 
L 228.228646 148.23255 
L 229.3859 147.413112 
L 230.459623 147.741632 
L 230.851402 147.154902 
L 232.838435 149.174601 
L 234.791194 146.873031 
L 234.497707 146.357277 
L 235.949516 142.944372 
L 236.477954 141.890555 
L 237.651518 141.115516 
L 238.106846 139.100603 
L 238.937868 138.617702 
L 239.157302 137.068491 
L 240.480041 134.298808 
L 241.343818 133.165764 
L 243.112686 132.172783 
L 243.295686 130.052251 
L 242.005363 129.381785 
L 241.596653 127.20112 
L 242.813291 127.310285 
L 244.701882 130.95058 
L 244.856952 134.807527 
L 246.444164 136.816799 
L 242.145497 137.119517 
L 241.330948 138.098259 
L 244.808238 141.692311 
L 246.14974 144.386059 
L 243.735902 149.325706 
L 242.719914 150.315763 
L 243.287044 150.899675 
L 243.567965 155.098899 
L 244.648102 156.428861 
L 244.643644 157.640976 
L 247.681761 161.369825 
L 247.901551 165.805128 
L 243.171111 164.072056 
L 233.846398 163.792067 
L 233.187028 163.807522 
L 233.125179 164.295223 
L 228.865674 164.329263 
L 228.29528 163.83269 
L 228.6593 160.440922 
L 227.514255 158.463383 
L 228.100314 158.261593 
L 227.938254 157.54459 
L 227.282471 157.518962 
L 227.095522 158.028829 
L 225.730296 157.448868 
L 225.4667 155.833604 
L 224.634151 155.436534 
L 224.356118 155.944162 
L 224.296048 155.148438 
" style="fill:none;stroke:#000000;stroke-linecap:square;stroke-width:0.5;"/>
   </g>
   <g id="line2d_188"/>
   <g id="line2d_189"/>
   <g id="line2d_190">
    <path clip-path="url(#pdd01e9910f)" d="M 291.302072 182.774974 
L 290.931088 184.715345 
L 292.003076 185.209918 
L 292.033912 186.393629 
L 289.432833 190.398068 
L 287.762741 190.863043 
L 286.72208 183.453316 
L 287.722947 184.325579 
L 288.666986 184.30383 
L 289.189605 184.003441 
L 289.380272 182.462463 
L 291.302072 182.774974 
" style="fill:none;stroke:#000000;stroke-linecap:square;stroke-width:0.5;"/>
   </g>
   <g id="line2d_191">
    <path clip-path="url(#pdd01e9910f)" d="M 197.864304 134.893026 
L 193.330906 134.350908 
L 192.095773 135.1025 
L 184.038743 134.839848 
L 183.735848 136.118942 
L 184.193358 136.725513 
L 184.264875 139.84052 
L 182.640014 138.322851 
L 180.644432 138.234771 
L 178.759181 139.081727 
L 177.745233 138.852286 
L 176.563861 138.144692 
L 176.119664 137.145337 
L 174.678247 136.536765 
L 174.790329 134.586631 
L 175.606797 133.549775 
L 175.477795 132.128809 
L 178.425364 130.584257 
L 178.246035 129.541362 
L 179.123589 129.177361 
L 178.771355 128.164904 
L 179.387743 127.595722 
L 180.09699 127.309526 
L 181.567064 128.005805 
L 182.363391 127.71243 
L 182.551211 126.551348 
L 183.60789 126.593215 
L 184.908847 124.828613 
L 186.615964 125.02383 
L 187.124833 124.146172 
L 191.948298 122.298819 
L 195.295967 122.783359 
L 195.092474 124.046866 
L 196.096829 125.652362 
L 198.981311 127.532898 
L 198.192013 127.513156 
L 198.187653 128.508971 
L 200.322002 129.757632 
L 202.178662 129.503527 
L 202.67738 130.044226 
L 202.122681 130.608216 
L 203.318523 132.035031 
L 202.950851 132.680479 
L 201.839294 133.541627 
L 199.814072 133.461685 
L 197.864304 134.893026 
" style="fill:none;stroke:#000000;stroke-linecap:square;stroke-width:0.5;"/>
   </g>
   <g id="line2d_192">
    <path clip-path="url(#pdd01e9910f)" d="M 277.762003 27.5553 
L 277.846071 28.8251 
L 277.208148 29.300246 
L 275.188934 30.162354 
L 272.901249 29.648177 
L 268.202718 31.75767 
L 268.46424 30.174971 
L 266.495671 28.523185 
L 267.031273 27.90045 
" style="fill:none;stroke:#000000;stroke-linecap:square;stroke-width:0.5;"/>
   </g>
   <g id="line2d_193">
    <path clip-path="url(#pdd01e9910f)" d="M 49.611554 181.868298 
L 50.093936 181.580672 
L 50.52301 183.103849 
L 49.695686 184.205646 
L 50.051784 184.722103 
L 50.9091 183.659991 
L 51.11102 184.627576 
L 50.329464 185.69539 
L 49.821994 188.810006 
L 51.686837 185.117077 
L 52.147913 185.200388 
L 51.821623 186.760904 
L 54.842773 184.484247 
L 61.721484 186.672631 
L 67.038541 186.116775 
L 72.13468 189.631171 
L 76.494688 194.424772 
L 78.425562 195.037984 
L 81.832119 194.891657 
L 82.850498 196.587589 
L 84.238955 203.289032 
L 83.71931 207.672452 
L 81.677197 212.251023 
L 80.720232 212.937996 
L 79.058391 216.193743 
L 77.279772 217.7378 
L 75.891871 220.162625 
L 75.881145 219.594269 
L 74.781879 222.966755 
L 72.931798 226.089055 
L 72.056365 226.676142 
L 71.405491 225.552101 
L 70.859056 226.281641 
L 71.15841 226.663941 
L 70.049101 229.435022 
L 70.189802 231.106464 
L 70.550641 230.982068 
L 70.150802 233.381895 
L 70.760842 237.696949 
L 69.661034 242.749822 
L 69.828197 244.618066 
L 68.123099 247.043558 
L 67.665935 251.949444 
L 63.581016 259.180162 
L 63.419773 262.00278 
L 60.917651 263.930487 
L 59.933583 265.244806 
L 59.711081 266.665824 
L 56.39145 267.85446 
L 55.673405 267.198277 
L 55.416747 268.276917 
L 52.919941 269.554105 
L 53.748465 268.920366 
L 53.041625 268.794795 
L 50.14698 270.359633 
L 50.402553 271.095804 
" style="fill:none;stroke:#000000;stroke-linecap:square;stroke-width:0.5;"/>
   </g>
   <g id="line2d_194"/>
   <g id="line2d_195">
    <path clip-path="url(#pdd01e9910f)" d="M 275.211791 236.152703 
L 277.944554 242.228747 
L 280.992311 244.579654 
L 281.302482 245.864133 
L 282.571135 246.266232 
L 282.479643 247.988348 
L 283.525449 249.786842 
L 286.60716 251.199275 
L 286.658497 251.937531 
L 287.645166 252.721697 
L 284.121412 253.62625 
L 282.74913 254.986322 
L 280.71211 255.812082 
L 279.95539 257.809186 
L 278.634599 258.749081 
L 277.174371 258.889708 
L 275.766671 261.730262 
L 272.430311 261.171954 
L 268.897548 259.075049 
L 268.091645 259.472263 
L 267.25247 261.472134 
L 264.558525 263.257625 
L 261.546208 262.699396 
L 261.372217 261.475464 
L 261.868812 259.887793 
L 260.786932 257.302985 
L 259.442724 255.943234 
L 259.43339 247.269393 
L 262.399436 247.67239 
L 262.40876 236.108104 
L 269.1084 235.951957 
L 270.244708 237.579949 
L 272.171094 236.452682 
L 275.211791 236.152703 
" style="fill:none;stroke:#000000;stroke-linecap:square;stroke-width:0.5;"/>
   </g>
   <g id="line2d_196">
    <path clip-path="url(#pdd01e9910f)" d="M 256.59153 27.177533 
L 256.066027 27.086639 
L 254.846335 28.782031 
L 255.152117 29.949933 
L 254.8238 30.325925 
L 252.269495 29.421107 
L 251.3333 27.685917 
" style="fill:none;stroke:#000000;stroke-linecap:square;stroke-width:0.5;"/>
   </g>
   <g id="line2d_197"/>
   <g id="line2d_198"/>
   <g id="line2d_199">
    <path clip-path="url(#pdd01e9910f)" d="M 200.533664 150.364902 
L 201.101711 150.102492 
L 200.197235 147.781889 
L 200.451325 141.066523 
L 199.662992 140.068433 
L 199.45772 138.040314 
L 197.41433 136.89475 
L 197.442446 135.785836 
L 197.864304 134.893026 
L 199.814072 133.461685 
L 201.839294 133.541627 
L 203.225274 132.213567 
L 203.235129 131.023462 
L 204.810747 130.507181 
L 207.608664 132.623018 
L 207.230232 133.569983 
L 208.446431 136.04018 
L 205.664177 140.928398 
L 204.701933 141.048959 
L 204.457544 149.839441 
L 200.533664 150.364902 
" style="fill:none;stroke:#000000;stroke-linecap:square;stroke-width:0.5;"/>
   </g>
   <g id="line2d_200"/>
   <g id="line2d_201"/>
   <g id="line2d_202"/>
   <g id="line2d_203"/>
   <g id="line2d_204"/>
   <g id="line2d_205"/>
   <g id="line2d_206"/>
   <g id="line2d_207"/>
   <g id="line2d_208"/>
   <g id="line2d_209"/>
   <g id="line2d_210">
    <path clip-path="url(#pdd01e9910f)" d="M 271.341182 212.848103 
L 271.330669 219.9411 
L 265.406283 219.37468 
L 265.589244 229.953278 
L 265.918758 231.062386 
L 269.590263 234.867526 
L 261.726601 235.082858 
L 256.377907 233.808672 
L 254.704093 232.373365 
L 241.454246 231.275022 
L 238.636957 229.72634 
L 236.926591 230.369873 
L 234.421778 230.331607 
L 234.446175 225.984818 
L 235.273375 225.048371 
L 236.933856 218.678624 
L 238.272775 216.662837 
L 240.166801 215.209143 
L 240.932976 211.30713 
L 238.320126 204.667176 
L 239.431646 203.519565 
L 239.491784 202.469369 
L 237.778994 197.667749 
L 236.164386 194.686656 
L 238.893605 193.944964 
L 248.794071 194.40132 
L 249.596372 195.351273 
L 250.463017 199.161737 
L 252.252766 202.114414 
L 257.531233 201.94025 
L 258.089735 199.13187 
L 259.128274 198.634082 
L 261.26263 198.51249 
L 261.315676 199.76716 
L 264.817801 200.097013 
L 265.18691 204.912157 
L 264.911898 207.546317 
L 266.288208 210.333703 
L 266.14398 213.222571 
L 270.944657 213.291401 
L 271.341182 212.848103 
" style="fill:none;stroke:#000000;stroke-linecap:square;stroke-width:0.5;"/>
   </g>
   <g id="line2d_211">
    <path clip-path="url(#pdd01e9910f)" d="M 224.363073 54.285085 
L 223.165852 55.761675 
L 223.624462 56.228909 
L 223.29416 58.117442 
L 223.772173 60.039909 
L 223.289398 61.599758 
L 220.898127 63.860856 
L 220.853212 64.659396 
L 221.611414 66.41589 
L 222.856229 67.017323 
L 223.574676 68.595394 
L 225.871732 69.930199 
L 227.39464 75.597142 
L 226.72686 75.998834 
L 228.309601 78.795273 
L 228.662409 83.051929 
L 228.125549 84.480952 
L 228.557921 86.588913 
L 227.086139 88.156188 
L 228.931843 90.513262 
L 229.742298 92.706923 
L 233.685657 93.270955 
L 235.123073 95.581184 
L 220.792562 104.373263 
L 215.317698 108.743546 
L 206.412195 110.331889 
L 205.881198 109.929795 
L 206.41185 109.141082 
L 205.967099 107.833487 
L 201.011459 106.451468 
L 198.850042 105.015767 
L 198.775136 104.166244 
L 178.120455 92.915579 
L 164.228997 84.833063 
L 164.244939 80.537206 
L 165.584449 79.721836 
L 169.262827 77.952575 
L 170.944127 78.190263 
L 171.46274 77.438186 
L 174.931807 77.160334 
L 176.569543 75.647805 
L 181.078255 74.235768 
L 180.494824 73.494214 
L 180.723044 71.967231 
L 183.371177 71.577183 
L 183.919261 70.835821 
L 189.864583 70.816385 
L 189.811307 70.093696 
L 190.459089 69.688198 
L 189.03788 68.680004 
L 188.196746 66.98357 
L 187.771253 62.400246 
L 186.23081 61.24091 
L 188.217121 61.013899 
L 192.852276 58.844628 
L 194.28485 58.940705 
L 195.654822 57.862392 
L 199.188656 56.669308 
L 204.052471 56.331398 
L 208.252399 55.250473 
L 211.647282 55.13373 
L 213.484465 55.879919 
L 217.497406 54.232803 
L 218.963753 54.703169 
L 219.991674 54.478228 
L 219.878914 54.072583 
L 222.197172 54.708617 
L 224.363073 54.285085 
" style="fill:none;stroke:#000000;stroke-linecap:square;stroke-width:0.5;"/>
   </g>
   <g id="line2d_212">
    <path clip-path="url(#pdd01e9910f)" d="M 257.535905 32.328113 
L 257.351346 31.237628 
L 258.615065 29.172584 
L 258.868624 29.762933 
L 259.69209 29.307376 
L 261.0621 30.403706 
L 260.960956 33.773636 
L 261.618483 34.890479 
L 262.287546 34.828162 
L 262.578045 35.78983 
L 261.463731 37.884478 
L 260.430105 38.613769 
L 260.642924 39.204281 
L 260.118715 39.855091 
L 257.47575 37.702811 
L 257.885101 37.622847 
L 257.521304 36.761499 
L 258.233342 33.024425 
L 258.238887 32.477812 
L 257.535905 32.328113 
" style="fill:none;stroke:#000000;stroke-linecap:square;stroke-width:0.5;"/>
   </g>
   <g id="line2d_213"/>
   <g id="line2d_214"/>
   <g id="line2d_215"/>
   <g id="line2d_216"/>
   <g id="line2d_217"/>
   <g id="line2d_218"/>
   <g id="line2d_219"/>
   <g id="line2d_220"/>
   <g id="patch_3">
    <path d="M 48.76875 318.2 
L 48.76875 26.8 
" style="fill:none;stroke:#000000;stroke-linecap:square;stroke-linejoin:miter;stroke-width:0.8;"/>
   </g>
   <g id="patch_4">
    <path d="M 340.16875 318.2 
L 340.16875 26.8 
" style="fill:none;stroke:#000000;stroke-linecap:square;stroke-linejoin:miter;stroke-width:0.8;"/>
   </g>
   <g id="patch_5">
    <path d="M 48.76875 318.2 
L 340.16875 318.2 
" style="fill:none;stroke:#000000;stroke-linecap:square;stroke-linejoin:miter;stroke-width:0.8;"/>
   </g>
   <g id="patch_6">
    <path d="M 48.76875 26.8 
L 340.16875 26.8 
" style="fill:none;stroke:#000000;stroke-linecap:square;stroke-linejoin:miter;stroke-width:0.8;"/>
   </g>
   <g id="text_15">
    <!-- ST face 0 -->
    <defs>
     <path id="DejaVuSans-32"/>
     <path d="M 37.109375 75.984375 
L 37.109375 68.5 
L 28.515625 68.5 
Q 23.6875 68.5 21.796875 66.546875 
Q 19.921875 64.59375 19.921875 59.515625 
L 19.921875 54.6875 
L 34.71875 54.6875 
L 34.71875 47.703125 
L 19.921875 47.703125 
L 19.921875 0 
L 10.890625 0 
L 10.890625 47.703125 
L 2.296875 47.703125 
L 2.296875 54.6875 
L 10.890625 54.6875 
L 10.890625 58.5 
Q 10.890625 67.625 15.140625 71.796875 
Q 19.390625 75.984375 28.609375 75.984375 
z
" id="DejaVuSans-102"/>
     <path d="M 34.28125 27.484375 
Q 23.390625 27.484375 19.1875 25 
Q 14.984375 22.515625 14.984375 16.5 
Q 14.984375 11.71875 18.140625 8.90625 
Q 21.296875 6.109375 26.703125 6.109375 
Q 34.1875 6.109375 38.703125 11.40625 
Q 43.21875 16.703125 43.21875 25.484375 
L 43.21875 27.484375 
z
M 52.203125 31.203125 
L 52.203125 0 
L 43.21875 0 
L 43.21875 8.296875 
Q 40.140625 3.328125 35.546875 0.953125 
Q 30.953125 -1.421875 24.3125 -1.421875 
Q 15.921875 -1.421875 10.953125 3.296875 
Q 6 8.015625 6 15.921875 
Q 6 25.140625 12.171875 29.828125 
Q 18.359375 34.515625 30.609375 34.515625 
L 43.21875 34.515625 
L 43.21875 35.40625 
Q 43.21875 41.609375 39.140625 45 
Q 35.0625 48.390625 27.6875 48.390625 
Q 23 48.390625 18.546875 47.265625 
Q 14.109375 46.140625 10.015625 43.890625 
L 10.015625 52.203125 
Q 14.9375 54.109375 19.578125 55.046875 
Q 24.21875 56 28.609375 56 
Q 40.484375 56 46.34375 49.84375 
Q 52.203125 43.703125 52.203125 31.203125 
z
" id="DejaVuSans-97"/>
     <path d="M 48.78125 52.59375 
L 48.78125 44.1875 
Q 44.96875 46.296875 41.140625 47.34375 
Q 37.3125 48.390625 33.40625 48.390625 
Q 24.65625 48.390625 19.8125 42.84375 
Q 14.984375 37.3125 14.984375 27.296875 
Q 14.984375 17.28125 19.8125 11.734375 
Q 24.65625 6.203125 33.40625 6.203125 
Q 37.3125 6.203125 41.140625 7.25 
Q 44.96875 8.296875 48.78125 10.40625 
L 48.78125 2.09375 
Q 45.015625 0.34375 40.984375 -0.53125 
Q 36.96875 -1.421875 32.421875 -1.421875 
Q 20.0625 -1.421875 12.78125 6.34375 
Q 5.515625 14.109375 5.515625 27.296875 
Q 5.515625 40.671875 12.859375 48.328125 
Q 20.21875 56 33.015625 56 
Q 37.15625 56 41.109375 55.140625 
Q 45.0625 54.296875 48.78125 52.59375 
z
" id="DejaVuSans-99"/>
     <path d="M 56.203125 29.59375 
L 56.203125 25.203125 
L 14.890625 25.203125 
Q 15.484375 15.921875 20.484375 11.0625 
Q 25.484375 6.203125 34.421875 6.203125 
Q 39.59375 6.203125 44.453125 7.46875 
Q 49.3125 8.734375 54.109375 11.28125 
L 54.109375 2.78125 
Q 49.265625 0.734375 44.1875 -0.34375 
Q 39.109375 -1.421875 33.890625 -1.421875 
Q 20.796875 -1.421875 13.15625 6.1875 
Q 5.515625 13.8125 5.515625 26.8125 
Q 5.515625 40.234375 12.765625 48.109375 
Q 20.015625 56 32.328125 56 
Q 43.359375 56 49.78125 48.890625 
Q 56.203125 41.796875 56.203125 29.59375 
z
M 47.21875 32.234375 
Q 47.125 39.59375 43.09375 43.984375 
Q 39.0625 48.390625 32.421875 48.390625 
Q 24.90625 48.390625 20.390625 44.140625 
Q 15.875 39.890625 15.1875 32.171875 
z
" id="DejaVuSans-101"/>
    </defs>
    <g transform="translate(166.58375 20.8)scale(0.12 -0.12)">
     <use xlink:href="#DejaVuSans-83"/>
     <use x="63.476562" xlink:href="#DejaVuSans-84"/>
     <use x="124.560547" xlink:href="#DejaVuSans-32"/>
     <use x="156.347656" xlink:href="#DejaVuSans-102"/>
     <use x="191.552734" xlink:href="#DejaVuSans-97"/>
     <use x="252.832031" xlink:href="#DejaVuSans-99"/>
     <use x="307.8125" xlink:href="#DejaVuSans-101"/>
     <use x="369.335938" xlink:href="#DejaVuSans-32"/>
     <use x="401.123047" xlink:href="#DejaVuSans-48"/>
    </g>
   </g>
  </g>
 </g>
 <defs>
  <clipPath id="pdd01e9910f">
   <rect height="291.4" width="291.4" x="48.76875" y="26.8"/>
  </clipPath>
 </defs>
</svg>
